<svg width="12" height="14" viewBox="0 0 12 14" fill="none" xmlns="http://www.w3.org/2000/svg">
<path fill-rule="evenodd" clip-rule="evenodd" d="M2.66527 3.66634V3.66637H1.46914C1.12302 3.66637 0.834471 3.93125 0.804912 4.27611L0.0620545 12.9428C0.0286922 13.332 0.335632 13.6664 0.726285 13.6664H11.2738C11.6644 13.6664 11.9714 13.332 11.938 12.9428L11.1952 4.27611C11.1656 3.93125 10.877 3.66637 10.5309 3.66637H9.33193V3.66634C9.33193 1.82539 7.83955 0.333008 5.9986 0.333008C4.15765 0.333008 2.66527 1.82539 2.66527 3.66634ZM5.99808 1.66641C4.89352 1.66641 3.9981 2.56182 3.99808 3.66637H7.99808C7.99806 2.56182 7.10264 1.66641 5.99808 1.66641ZM5.99687 8.99958C7.81927 8.99958 9.30009 7.53712 9.32975 5.72179C9.33126 5.70351 9.33203 5.68502 9.33203 5.66636C9.33203 5.29817 9.03355 4.99969 8.66536 4.99969C8.29717 4.99969 7.9987 5.29816 7.99869 5.66634H7.99635C7.99634 6.7709 7.10091 7.66631 5.99635 7.66631C4.90982 7.66631 4.02565 6.79988 3.99707 5.72024C3.99849 5.70245 3.99922 5.68445 3.99922 5.66629C3.99922 5.2981 3.70074 4.99963 3.33255 4.99963C2.96436 4.99963 2.66588 5.2981 2.66588 5.66629V5.66634H2.66393V5.61469C2.66367 5.63184 2.66354 5.64903 2.66354 5.66624C2.66354 7.50719 4.15592 8.99958 5.99687 8.99958Z" fill="white"/>
</svg>
