<svg width="70" height="24" viewBox="0 0 70 24" fill="none" xmlns="http://www.w3.org/2000/svg">
<path fill-rule="evenodd" clip-rule="evenodd" d="M22.4139 5.17294C21.949 5.76404 21.2052 6.23027 20.4614 6.16366C20.3684 5.36442 20.7325 4.51523 21.1587 3.99073C21.6236 3.38297 22.4372 2.95005 23.0958 2.91675C23.1733 3.74929 22.8711 4.56518 22.4139 5.17294ZM23.0879 6.3218C22.4326 6.28127 21.8347 6.53355 21.3517 6.73733C21.0409 6.86846 20.7777 6.97951 20.5775 6.97951C20.3528 6.97951 20.0787 6.86252 19.771 6.73118C19.3678 6.55907 18.9069 6.36231 18.4235 6.37175C17.3155 6.3884 16.285 7.06276 15.7193 8.13674C14.5571 10.2847 15.4172 13.465 16.5407 15.2133C17.0908 16.0792 17.7494 17.0283 18.6172 16.995C18.999 16.9795 19.2736 16.8543 19.5578 16.7247C19.885 16.5755 20.225 16.4205 20.7557 16.4205C21.2681 16.4205 21.5931 16.5715 21.9052 16.7164C22.2019 16.8541 22.4868 16.9864 22.9097 16.9783C23.8085 16.9617 24.3742 16.1125 24.9243 15.2466C25.518 14.3174 25.7789 13.4104 25.8184 13.2728L25.8231 13.2569C25.8221 13.2558 25.8148 13.2522 25.8019 13.2459C25.6034 13.1483 24.0865 12.4021 24.072 10.4013C24.0574 8.72183 25.2751 7.87093 25.4668 7.73698C25.4785 7.72883 25.4864 7.72333 25.4899 7.72047C24.7151 6.48831 23.5064 6.3551 23.0879 6.3218ZM29.3099 16.8868V3.90744H33.8426C36.1826 3.90744 37.8175 5.63913 37.8175 8.17005C37.8175 10.701 36.1516 12.4493 33.7806 12.4493H31.1849V16.8868H29.3099ZM31.1848 5.60592H33.3465C34.9737 5.60592 35.9035 6.53836 35.9035 8.17847C35.9035 9.81857 34.9737 10.7593 33.3388 10.7593H31.1848V5.60592ZM44.0084 15.3299C43.5125 16.3456 42.42 16.9866 41.2423 16.9866C39.4989 16.9866 38.2824 15.871 38.2824 14.1893C38.2824 12.5242 39.4602 11.5668 41.6374 11.4253L43.9774 11.2754V10.5594C43.9774 9.50209 43.3343 8.92764 42.1876 8.92764C41.2423 8.92764 40.5527 9.45214 40.4132 10.2514H38.7241C38.7783 8.56964 40.2505 7.34581 42.2418 7.34581C44.3881 7.34581 45.7828 8.55299 45.7828 10.4262V16.8867H44.0472V15.3299H44.0084ZM41.7458 15.4465C40.7463 15.4465 40.1109 14.9304 40.1109 14.1394C40.1109 13.3235 40.7231 12.849 41.893 12.7741L43.9773 12.6325V13.3652C43.9773 14.5807 43.0165 15.4465 41.7458 15.4465ZM51.5397 17.3946C50.7881 19.6675 49.928 20.4167 48.0994 20.4167C47.96 20.4167 47.4951 20.4001 47.3866 20.3668V18.8099C47.5028 18.8266 47.7895 18.8432 47.9367 18.8432C48.7658 18.8432 49.2307 18.4686 49.5174 17.4945L49.6878 16.9201L46.511 7.47073H48.4713L50.6796 15.1384H50.7183L52.9266 7.47073H54.8327L51.5397 17.3946Z" fill="black"/>
</svg>
