<svg width="70" height="24" viewBox="0 0 70 24" fill="none" xmlns="http://www.w3.org/2000/svg">
<path fill-rule="evenodd" clip-rule="evenodd" d="M33.2807 16.9346V11.4565H36.0457C37.1787 11.4565 38.1349 11.0683 38.9145 10.3027L39.1016 10.1086C40.5257 8.52342 40.4321 6.05398 38.9145 4.58741C38.1557 3.811 37.1163 3.39044 36.0457 3.412H31.6072V16.9346H33.2807ZM33.2809 9.79576V5.07255H36.0879C36.6909 5.07255 37.2627 5.30979 37.6889 5.74113C38.5934 6.64696 38.6142 8.15665 37.7409 9.09483C37.3146 9.55852 36.7117 9.81733 36.0879 9.79576H33.2809Z" fill="#3C4043"/>
<path fill-rule="evenodd" clip-rule="evenodd" d="M46.9079 8.40471C46.1907 7.72535 45.2136 7.38027 43.9767 7.38027C42.3863 7.38027 41.191 7.98415 40.401 9.18113L41.877 10.1409C42.4175 9.32132 43.1555 8.91154 44.091 8.91154C44.6835 8.91154 45.2552 9.138 45.7022 9.54777C46.1387 9.93598 46.3882 10.4967 46.3882 11.0898V11.4888C45.7438 11.1222 44.933 10.9281 43.9351 10.9281C42.7709 10.9281 41.8354 11.2084 41.139 11.78C40.4426 12.3515 40.0891 13.1064 40.0891 14.0661C40.0684 14.9396 40.4322 15.7699 41.0766 16.3306C41.7315 16.9345 42.563 17.2365 43.5401 17.2365C44.6939 17.2365 45.6086 16.7081 46.3051 15.6513H46.3778V16.9345H47.9786V11.23C47.9786 10.033 47.6252 9.08408 46.9079 8.40471ZM42.3658 15.2308C42.0228 14.9719 41.8148 14.5514 41.8148 14.0985C41.8148 13.5917 42.0436 13.1711 42.4906 12.8368C42.948 12.5025 43.5198 12.33 44.1956 12.33C45.1312 12.3192 45.8589 12.5349 46.3787 12.9662C46.3787 13.6995 46.098 14.3357 45.5471 14.8749C45.048 15.3925 44.3723 15.6837 43.6654 15.6837C43.1975 15.6944 42.7401 15.5327 42.3658 15.2308Z" fill="#3C4043"/>
<path d="M51.5751 20.9999L57.1673 7.6822H55.3483L52.7601 14.3249H52.7289L50.0783 7.6822H48.2593L51.9285 16.3414L49.8496 20.9999H51.5751Z" fill="#3C4043"/>
<path d="M27.5031 10.2704C27.5031 9.742 27.4616 9.21361 27.3784 8.696H20.3206V11.683H24.364C24.1977 12.6428 23.6572 13.5055 22.8672 14.0447V15.9857H25.2787C26.6924 14.6377 27.5031 12.6428 27.5031 10.2704Z" fill="#4285F4"/>
<path d="M20.3208 17.8621C22.3374 17.8621 24.0418 17.1719 25.2787 15.9857L22.8672 14.0447C22.1916 14.5191 21.3291 14.7888 20.3208 14.7888C18.3667 14.7888 16.714 13.4193 16.1215 11.5861H13.6372V13.5918C14.9053 16.2122 17.4935 17.8621 20.3208 17.8621Z" fill="#34A853"/>
<path d="M16.1215 11.5861C15.8096 10.6263 15.8099 9.58028 16.1218 8.60976V6.6148H13.6371C12.5663 8.80386 12.5663 11.3919 13.6371 13.581L16.1215 11.5861Z" fill="#FBBC04"/>
<path d="M20.3208 5.40704C21.3915 5.38547 22.4205 5.80603 23.1897 6.57167L25.331 4.35025C23.9693 3.03465 22.1815 2.31215 20.3208 2.33372C17.4935 2.33372 14.9052 3.99439 13.6371 6.6148L16.1215 8.62054C16.714 6.77655 18.3667 5.40704 20.3208 5.40704Z" fill="#EA4335"/>
</svg>
