<svg width="70" height="24" viewBox="0 0 70 24" fill="none" xmlns="http://www.w3.org/2000/svg">
<path d="M39.102 4.33736H30.8997V19.0766H39.102V4.33736Z" fill="#FF5F00"/>
<path d="M31.4206 11.707C31.4193 10.2875 31.7409 8.88631 32.3612 7.60951C32.9815 6.3327 33.8842 5.21375 35.0009 4.33736C33.618 3.25043 31.9572 2.57449 30.2084 2.38679C28.4595 2.19909 26.6931 2.50719 25.1111 3.27591C23.529 4.04462 22.1952 5.24292 21.262 6.73384C20.3288 8.22476 19.834 9.94813 19.834 11.707C19.834 13.4659 20.3288 15.1892 21.262 16.6802C22.1952 18.1711 23.529 19.3694 25.1111 20.1381C26.6931 20.9068 28.4595 21.2149 30.2084 21.0272C31.9572 20.8395 33.618 20.1636 35.0009 19.0766C33.8842 18.2002 32.9816 17.0813 32.3613 15.8045C31.741 14.5277 31.4193 13.1265 31.4206 11.707Z" fill="#EB001B"/>
<path d="M50.1673 11.707C50.1674 13.4658 49.6726 15.1892 48.7394 16.6801C47.8063 18.171 46.4725 19.3693 44.8905 20.1381C43.3085 20.9068 41.5421 21.2149 39.7933 21.0272C38.0445 20.8395 36.3837 20.1636 35.0009 19.0766C36.1166 18.1994 37.0185 17.0802 37.6387 15.8036C38.2589 14.527 38.5812 13.1263 38.5812 11.707C38.5812 10.2877 38.2589 8.88697 37.6387 7.61037C37.0185 6.33377 36.1166 5.21464 35.0009 4.33736C36.3837 3.25043 38.0445 2.57449 39.7933 2.38679C41.5421 2.19909 43.3085 2.50721 44.8905 3.27593C46.4725 4.04465 47.8063 5.24295 48.7394 6.73387C49.6726 8.22479 50.1674 9.94816 50.1673 11.707Z" fill="#F79E1B"/>
</svg>
