<svg width="70" height="24" viewBox="0 0 70 24" fill="none" xmlns="http://www.w3.org/2000/svg">
<path d="M28.7055 10.587C28.5737 11.5753 27.783 11.5753 27.0583 11.5753H26.6629L26.9924 9.66454C26.9924 9.53276 27.1241 9.46687 27.2559 9.46687H27.4536C27.9807 9.46687 28.4419 9.46687 28.7055 9.73043C28.7055 9.99399 28.7055 10.2575 28.7055 10.587ZM28.3761 7.95142H25.5428C25.3451 7.95142 25.2134 8.08319 25.1475 8.28086L24.0273 15.5287C24.0273 15.6605 24.0932 15.7923 24.2909 15.7923H25.6087C25.8064 15.7923 25.9381 15.6605 26.004 15.4628L26.3335 13.4861C26.3335 13.2885 26.5311 13.1567 26.7288 13.1567H27.6513C29.4962 13.1567 30.5504 12.2342 30.8798 10.4552C31.0116 9.66454 30.8798 9.07154 30.5504 8.61031C30.0233 8.21497 29.2985 7.95142 28.3761 7.95142Z" fill="#263577"/>
<path d="M34.8995 13.2227C34.7677 14.0134 34.1747 14.5405 33.384 14.5405C32.9887 14.5405 32.6592 14.4087 32.4616 14.1451C32.2639 13.8816 32.198 13.5521 32.2639 13.2227C32.3957 12.432 32.9887 11.9049 33.7794 11.9049C34.1747 11.9049 34.5041 12.0367 34.7018 12.3002C34.8336 12.4979 34.9654 12.8273 34.8995 13.2227ZM36.7444 10.5871H35.4266C35.2948 10.5871 35.2289 10.653 35.163 10.7848L35.0971 11.1801L35.0312 11.0483C34.7677 10.653 34.1088 10.4553 33.4499 10.4553C31.9344 10.4553 30.6825 11.5754 30.419 13.1568C30.2872 13.9475 30.4849 14.6722 30.9461 15.1994C31.3414 15.6606 31.9344 15.8583 32.6592 15.8583C33.8452 15.8583 34.5041 15.0676 34.5041 15.0676L34.4382 15.4629C34.4382 15.5947 34.5041 15.7265 34.7018 15.7265H35.8878C36.0855 15.7265 36.2173 15.5947 36.2831 15.397L37.0079 10.7848C37.0079 10.7189 36.942 10.5871 36.7444 10.5871Z" fill="#263577"/>
<path d="M43.9255 10.5869H42.5418C42.41 10.5869 42.2782 10.6528 42.2123 10.7846L40.3674 13.5519L39.5768 10.9164C39.5109 10.7187 39.3791 10.6528 39.1814 10.6528H37.8636C37.7318 10.6528 37.6001 10.7846 37.666 10.9822L39.1814 15.331L37.7977 17.3076C37.666 17.4394 37.7977 17.703 37.9954 17.703H39.3791C39.5109 17.703 39.6427 17.6371 39.7085 17.5053L44.189 10.9822C44.2549 10.7846 44.1231 10.5869 43.9255 10.5869Z" fill="#263577"/>
<path d="M48.7367 10.587C48.605 11.5753 47.8143 11.5753 47.0895 11.5753H46.6942L47.0236 9.66454C47.0236 9.53276 47.1554 9.46687 47.2872 9.46687H47.4849C48.012 9.46687 48.4732 9.46687 48.7367 9.73043C48.8026 9.99399 48.8026 10.2575 48.7367 10.587ZM48.4073 7.95142H45.5741C45.3764 7.95142 45.2446 8.08319 45.1787 8.28086L44.0586 15.5287C44.0586 15.6605 44.1245 15.7923 44.3222 15.7923H45.7717C45.9035 15.7923 46.0353 15.7264 46.0353 15.5287L46.3647 13.4861C46.3647 13.2885 46.5624 13.1567 46.7601 13.1567H47.6825C49.5274 13.1567 50.5817 12.2342 50.9111 10.4552C51.0429 9.66454 50.9111 9.07154 50.5817 8.61031C50.1204 8.21497 49.3956 7.95142 48.4073 7.95142Z" fill="#2199D6"/>
<path d="M54.9952 13.2227C54.8634 14.0134 54.2704 14.5405 53.4797 14.5405C53.0844 14.5405 52.7549 14.4087 52.5573 14.1451C52.3596 13.8816 52.2937 13.5521 52.3596 13.2227C52.4914 12.432 53.0844 11.9049 53.8751 11.9049C54.2704 11.9049 54.5998 12.0367 54.7975 12.3002C54.9293 12.4979 55.0611 12.8273 54.9952 13.2227ZM56.8401 10.5871H55.5223C55.3905 10.5871 55.3246 10.653 55.2587 10.7848L55.1928 11.1801L55.127 11.0483C54.8634 10.653 54.2045 10.4553 53.5456 10.4553C52.0301 10.4553 50.7782 11.5754 50.5147 13.1568C50.3829 13.9475 50.5806 14.6722 51.0418 15.1994C51.4371 15.6606 52.0301 15.8583 52.7549 15.8583C53.9409 15.8583 54.5998 15.0676 54.5998 15.0676L54.5339 15.4629C54.5339 15.5947 54.5998 15.7265 54.7975 15.7265H55.9835C56.1812 15.7265 56.313 15.5947 56.3788 15.397L57.1036 10.7848C57.1036 10.7189 56.9719 10.5871 56.8401 10.5871Z" fill="#2199D6"/>
<path d="M58.4224 8.14908L57.2363 15.5287C57.2363 15.6605 57.3022 15.7923 57.4999 15.7923H58.6859C58.8836 15.7923 59.0154 15.6605 59.0812 15.4628L60.2014 8.21497C60.2014 8.0832 60.1355 7.95142 59.9378 7.95142H58.62C58.5541 7.95142 58.4882 8.08319 58.4224 8.14908Z" fill="#2199D6"/>
<path d="M12.2982 17.1759L12.4959 15.7922H12.0346H9.72852L11.3099 5.71115C11.3099 5.71115 11.3099 5.64526 11.3758 5.64526H11.4416H15.3291C16.581 5.64526 17.5035 5.90882 17.9647 6.43594C18.1624 6.6995 18.2942 6.96305 18.36 7.22661C18.4259 7.55606 18.4259 7.88551 18.36 8.34673V8.61029L18.5577 8.74207C18.7554 8.80796 18.8872 8.93974 19.0189 9.07152C19.2166 9.26919 19.3484 9.53274 19.3484 9.86219C19.4143 10.1916 19.4143 10.587 19.2825 11.0482C19.1507 11.5753 19.0189 11.9707 18.8213 12.366C18.6236 12.6954 18.36 12.959 18.0965 13.2226C17.8329 13.4202 17.4376 13.552 17.1081 13.6838C16.7128 13.7497 16.3175 13.8156 15.8562 13.8156H15.5268C15.3291 13.8156 15.1315 13.8814 14.9338 14.0132C14.802 14.145 14.6702 14.3427 14.6043 14.5403V14.6721L14.209 17.11V17.1759V17.2418C14.209 17.2418 14.209 17.2418 14.1431 17.2418H12.2982V17.1759Z" fill="#263577"/>
<path d="M18.8227 8.34668C18.8227 8.41257 18.8227 8.47846 18.7568 8.54435C18.2297 11.1799 16.5166 12.0365 14.2763 12.0365H13.1562C12.8926 12.0365 12.6291 12.2342 12.6291 12.4977L12.0361 16.1875L11.9043 17.2418C11.9043 17.4394 12.0361 17.5712 12.1679 17.5712H14.2104C14.474 17.5712 14.6717 17.3735 14.6717 17.1759V17.0441L15.067 14.6721V14.5403C15.1329 14.2767 15.3306 14.145 15.5282 14.145H15.8577C17.8344 14.145 19.3498 13.3543 19.7451 11.0481C19.9428 10.0598 19.811 9.26913 19.3498 8.74202C19.218 8.61024 19.0204 8.47846 18.8227 8.34668Z" fill="#2199D6"/>
<path d="M18.2954 8.14908C18.2295 8.14908 18.1636 8.0832 18.0318 8.0832C17.966 8.0832 17.8342 8.0173 17.7683 8.0173C17.4388 7.95142 17.1094 7.95142 16.7799 7.95142H13.749C13.6831 7.95142 13.6172 7.95142 13.5514 8.0173C13.4196 8.08319 13.2878 8.21497 13.2878 8.34675L12.6289 12.4319V12.5637C12.6948 12.3001 12.8925 12.1025 13.156 12.1025H14.2761C16.5164 12.1025 18.2295 11.18 18.7566 8.61031C18.7566 8.54442 18.7566 8.47853 18.8225 8.41264C18.6907 8.34675 18.559 8.28086 18.4272 8.21497C18.3613 8.14909 18.2954 8.14908 18.2954 8.14908Z" fill="#252C5E"/>
<path d="M13.2874 8.3468C13.2874 8.21502 13.4191 8.08325 13.5509 8.01736C13.6168 8.01736 13.6827 7.95147 13.7486 7.95147H16.7795C17.1089 7.95147 17.5043 7.95147 17.7678 8.01736C17.8337 8.01736 17.9655 8.01736 18.0314 8.08325C18.0973 8.08325 18.1632 8.14914 18.2949 8.14914C18.3608 8.14914 18.3608 8.14914 18.4267 8.21503C18.5585 8.28092 18.6903 8.34681 18.8221 8.41269C18.9538 7.42435 18.8221 6.76546 18.2949 6.17245C17.7019 5.51356 16.6477 5.25 15.3299 5.25H11.4424C11.1789 5.25 10.9153 5.44767 10.9153 5.71122L9.33398 15.8582C9.33398 16.0559 9.46576 16.2535 9.66343 16.2535H12.0354L12.6285 12.432L13.2874 8.3468Z" fill="#263577"/>
</svg>
