<svg width="70" height="24" viewBox="0 0 70 24" fill="none" xmlns="http://www.w3.org/2000/svg">
<path d="M42.0317 6.34919C42.0317 5.42027 42.7609 4.66675 43.6588 4.66675C44.5583 4.66675 45.2869 5.42027 45.2869 6.34919C45.2869 7.27866 44.5583 8.03054 43.6588 8.03054C42.7609 8.03054 42.0317 7.27866 42.0317 6.34919Z" fill="#862165"/>
<path d="M46.71 6.04268L50.0102 5.43232V18.5263H46.71V6.04268Z" fill="#862165"/>
<path d="M51.5303 6.04268V18.5263H54.8327V5.43232L51.5303 6.04268Z" fill="#862165"/>
<path d="M42.0089 8.94908V18.5263H45.3107V8.94908H42.0089Z" fill="#862165"/>
<path d="M35.5458 13.1386C35.5458 10.3256 37.0958 8.91032 40.1464 8.80868C40.1464 8.80868 40.6974 8.78683 41.0226 8.85841V11.6577C39.0888 11.7266 38.8752 12.4484 38.8752 14.132V18.5263H35.5458V13.1386Z" fill="#862165"/>
<path d="M31.1717 8.9833C31.0535 9.30398 30.5155 10.7634 29.308 12.2725V5.43232L25.9005 6.12901V18.5263H29.308V14.6937C30.2948 16.2237 30.7823 18.5263 30.7823 18.5263H34.8631C34.4596 16.792 32.694 13.5948 32.694 13.5948C34.2793 11.5173 34.9747 9.30484 35.0857 8.93819H31.1885C31.1843 8.94898 31.1788 8.96414 31.1717 8.9833Z" fill="#862165"/>
<path d="M18.8026 9.31194C18.8026 10.2108 19.7692 10.2758 20.1864 10.3037C23.2466 10.5157 25.0704 12.0637 25.0704 14.4456C25.0704 16.5472 23.4396 18.6667 19.8015 18.6667C18.1146 18.6667 16.6752 18.4952 15.3987 18.1482V15.0893C16.2511 15.4516 17.6556 15.8319 19.1024 15.8319C20.4228 15.8319 21.2081 15.3805 21.2081 14.6134C21.2081 13.6878 20.2558 13.6275 19.8906 13.6044L19.8866 13.6041C15.625 13.3041 15.166 10.6988 15.166 9.59281C15.166 7.67212 16.4848 5.43232 20.2071 5.43232C22.3661 5.43232 23.53 5.78039 24.5326 6.14267L24.5829 6.15852V9.12944L24.5453 9.11851C24.1429 8.94256 23.6702 8.76989 23.6702 8.76989C22.8209 8.50706 21.6332 8.22729 20.7152 8.22729C20.1933 8.22729 18.8026 8.22729 18.8026 9.31194Z" fill="#862165"/>
</svg>
