<svg width="70" height="24" viewBox="0 0 70 24" fill="none" xmlns="http://www.w3.org/2000/svg">
<path fill-rule="evenodd" clip-rule="evenodd" d="M25.6677 17.4216H22.4367L20.0139 7.90651C19.8989 7.46881 19.6547 7.08187 19.2956 6.89949C18.3992 6.44118 17.4115 6.07644 16.334 5.89248V5.52615H21.5388C22.2571 5.52615 22.7959 6.07644 22.8857 6.71554L24.1428 13.5791L27.3722 5.52615H30.5133L25.6677 17.4216ZM32.3086 17.4216H29.2573L31.7699 5.52615H34.8213L32.3086 17.4216ZM38.7703 8.81974C38.8601 8.17906 39.3989 7.81273 40.0274 7.81273C41.0151 7.72075 42.0911 7.9047 42.989 8.36143L43.5278 5.80029C42.6298 5.43396 41.6421 5.25 40.7458 5.25C37.7842 5.25 35.6292 6.89769 35.6292 9.18448C35.6292 10.9242 37.1556 11.8376 38.2332 12.3879C39.3989 12.9366 39.8478 13.3029 39.7581 13.8516C39.7581 14.6747 38.8601 15.041 37.9638 15.041C36.8863 15.041 35.8088 14.7667 34.8226 14.3083L34.2839 16.8711C35.3614 17.3278 36.5271 17.5118 37.6046 17.5118C40.9254 17.6021 42.989 15.956 42.989 13.4853C42.989 10.3739 38.7703 10.1915 38.7703 8.81974ZM53.6661 17.4216L51.2433 5.52615H48.6409C48.1021 5.52615 47.5634 5.89248 47.3838 6.44118L42.8973 17.4216H46.0385L46.6655 15.6835H50.525L50.8841 17.4216H53.6661ZM49.0903 8.72827L49.9866 13.2115H47.474L49.0903 8.72827Z" fill="#172B85"/>
</svg>
