<svg width="40" height="41" viewBox="0 0 40 41" fill="none" xmlns="http://www.w3.org/2000/svg">
<path d="M3.33301 8.83366C3.33301 7.91318 4.0792 7.16699 4.99967 7.16699H21.6663C22.5868 7.16699 23.333 7.91318 23.333 8.83366V30.5003H18.333C17.4125 30.5003 16.6935 29.7337 16.3924 28.8638C15.7146 26.9061 13.8546 25.5003 11.6663 25.5003C9.47804 25.5003 7.61809 26.9061 6.94029 28.8638C6.63915 29.7337 5.92015 30.5003 4.99967 30.5003C4.0792 30.5003 3.33301 29.7541 3.33301 28.8337V8.83366Z" fill="#0DA678"/>
<path d="M14.9997 30.5003C14.9997 28.6593 13.5073 27.167 11.6663 27.167C9.82542 27.167 8.33301 28.6593 8.33301 30.5003C8.33301 32.3413 9.82542 33.8337 11.6663 33.8337C13.5073 33.8337 14.9997 32.3413 14.9997 30.5003Z" fill="#0DA678"/>
<path fill-rule="evenodd" clip-rule="evenodd" d="M23.333 8.83366L35.745 15.0397C36.3097 15.322 36.6663 15.8991 36.6663 16.5304V29.667C36.6663 30.1272 36.2932 30.5003 35.833 30.5003C35.3728 30.5003 35.007 30.1244 34.9311 29.6705C34.5358 27.304 32.4784 25.5003 29.9997 25.5003C27.8114 25.5003 25.9514 26.9061 25.2736 28.8638C24.9725 29.7337 24.2535 30.5003 23.333 30.5003V8.83366ZM24.9997 14.8637C24.9997 13.6247 26.3035 12.8189 27.4117 13.373L34.0784 16.7063C34.643 16.9887 34.9997 17.5658 34.9997 18.197V18.8337C34.9997 19.7541 34.2535 20.5003 33.333 20.5003H26.6663C25.7459 20.5003 24.9997 19.7541 24.9997 18.8337V14.8637Z" fill="#0DA678"/>
<path d="M33.333 30.5003C33.333 28.6593 31.8406 27.167 29.9997 27.167C28.1588 27.167 26.6663 28.6593 26.6663 30.5003C26.6663 32.3413 28.1588 33.8337 29.9997 33.8337C31.8406 33.8337 33.333 32.3413 33.333 30.5003Z" fill="#0DA678"/>
</svg>
