<svg width="28" height="35" viewBox="0 0 28 35" fill="none" xmlns="http://www.w3.org/2000/svg">
<path fill-rule="evenodd" clip-rule="evenodd" d="M14.0003 34.1663C6.81201 31.9593 1.55078 25.2308 0.666992 19.1663V7.49967L14.0003 0.833008L27.3337 7.49967V19.1663C26.4499 25.2308 21.1886 31.9593 14.0003 34.1663ZM19.0003 27.588V27.4997H19.0955L19.0003 27.588ZM6.32134 18.8806C5.66994 18.2292 5.67052 17.1744 6.32134 16.5235C6.97217 15.8727 8.02696 15.8721 8.67837 16.5235L12.2139 20.0591L19.285 12.988C19.9358 12.3372 20.9906 12.3366 21.642 12.988C22.2934 13.6394 22.2928 14.6942 21.642 15.345L13.3924 23.5946C12.7416 24.2454 11.6868 24.246 11.0354 23.5946L6.32134 18.8806Z" fill="#17B5BF"/>
</svg>
