<svg width="160" height="80" viewBox="0 0 160 80" fill="none" xmlns="http://www.w3.org/2000/svg">
<path d="M20.9744 53.9635C22.9376 53.9635 24.1796 53.6029 24.7005 52.8817C25.2614 52.1606 25.5419 50.9386 25.5419 49.2157V37.5566H21.6956V36.2345H39.0039V37.5566H36.6601V54.5044H35.7586C35.0374 53.5028 34.0157 53.0019 32.6936 53.0019C32.1327 53.0019 30.4499 53.3625 27.6453 54.0837C24.8808 54.8049 22.5169 55.1655 20.5537 55.1655C14.023 55.1655 8.95467 53.4026 5.34877 49.8768C1.78292 46.351 0 41.0624 0 34.0108C0 26.9192 1.86305 21.4502 5.58916 17.6039C9.35533 13.7576 14.4036 11.8345 20.734 11.8345C23.178 11.8345 25.622 12.155 28.066 12.796C30.5501 13.397 31.9924 13.6975 32.3931 13.6975C32.7937 13.6975 33.0942 13.6174 33.2946 13.4571C33.4949 13.2568 33.7152 12.9363 33.9556 12.4956H34.6167L35.0975 25.5369H34.0157C32.0525 21.6506 30.0693 18.6056 28.066 16.402C26.1028 14.1583 23.8992 13.0364 21.4552 13.0364C15.3251 13.0364 12.2601 19.0263 12.2601 31.0059V35.7537C12.2601 41.7635 13.0013 46.311 14.4837 49.396C16.0062 52.441 18.1698 53.9635 20.9744 53.9635Z" fill="#3B4758"/>
<path d="M55.6977 40.4413H57.4405V35.8138C57.4405 32.0075 57.2202 29.4634 56.7794 28.1813C56.3788 26.8591 55.5775 26.198 54.3755 26.198C53.6543 26.198 52.9932 26.3983 52.3923 26.799C51.8313 27.1596 51.5509 27.6804 51.5509 28.3616C51.5509 29.0026 51.6711 29.6637 51.9115 30.3448H53.4139C53.7345 31.1862 53.8947 32.2079 53.8947 33.4098C53.8947 34.5717 53.3939 35.5934 52.3923 36.4748C51.3906 37.3162 50.1286 37.7369 48.6061 37.7369C45.1604 37.7369 43.4376 36.0742 43.4376 32.7487C43.4376 27.8207 47.6244 25.3566 55.9982 25.3566C60.766 25.3566 64.0514 26.178 65.8543 27.8207C67.6973 29.4233 68.6189 32.3882 68.6189 36.7152V48.9152C68.6189 50.9987 69.1998 52.0404 70.3617 52.0404C71.7239 52.0404 72.5253 49.977 72.7656 45.8502L73.6671 45.9103C73.5069 49.4361 72.8458 51.8601 71.6839 53.1822C70.522 54.5044 68.6189 55.1655 65.9745 55.1655C61.1666 55.1655 58.4021 53.683 57.6809 50.7182C57.1601 52.2407 56.3788 53.3625 55.3371 54.0837C54.2954 54.8049 52.7729 55.1655 50.7696 55.1655C44.8399 55.1655 41.875 52.7415 41.875 47.8936C41.875 45.0489 42.9969 43.1057 45.2405 42.064C47.5243 40.9822 51.01 40.4413 55.6977 40.4413ZM53.2937 47.8335C53.2937 49.9169 53.3939 51.2591 53.5942 51.8601C53.8346 52.461 54.2553 52.7615 54.8563 52.7615C55.4973 52.7615 56.0783 52.2607 56.5992 51.2591C57.1601 50.2174 57.4405 48.795 57.4405 46.9921V41.4029H57.0198C54.5358 41.4029 53.2937 43.2259 53.2937 46.8719V47.8335Z" fill="#3B4758"/>
<path d="M74.2578 25.9576H88.7415V31.4867C90.0637 27.4 92.9684 25.3566 97.4558 25.3566C101.983 25.3566 104.728 27.5202 105.689 31.8473C107.092 27.5202 110.036 25.3566 114.524 25.3566C120.413 25.3566 123.358 28.7021 123.358 35.3931V53.4827H126.724V54.5645H110.076V53.4827H112.18V33.9507C112.18 30.9057 111.919 29.1228 111.399 28.6019C111.158 28.3616 110.838 28.2414 110.437 28.2414C109.275 28.2414 108.253 29.0226 107.372 30.5852C106.491 32.1478 106.05 34.131 106.05 36.5349V53.4827H108.213V54.5645H92.7681V53.4827H94.8716V33.9507C94.8716 30.9057 94.6111 29.1228 94.0903 28.6019C93.8499 28.3616 93.5294 28.2414 93.1287 28.2414C92.0069 28.2414 90.9852 29.1028 90.0637 30.8256C89.1822 32.5084 88.7415 34.5317 88.7415 36.8955V53.4827H90.9051V54.5645H74.2578V53.4827H77.5632V27.0394H74.2578V25.9576Z" fill="#3B4758"/>
<path d="M142.031 40.4413H143.773V35.8138C143.773 32.0075 143.553 29.4634 143.112 28.1813C142.712 26.8591 141.91 26.198 140.708 26.198C139.987 26.198 139.326 26.3983 138.725 26.799C138.164 27.1596 137.884 27.6804 137.884 28.3616C137.884 29.0026 138.004 29.6637 138.244 30.3448H139.747C140.067 31.1862 140.228 32.2079 140.228 33.4098C140.228 34.5717 139.727 35.5934 138.725 36.4748C137.723 37.3162 136.461 37.7369 134.939 37.7369C131.493 37.7369 129.77 36.0742 129.77 32.7487C129.77 27.8207 133.957 25.3566 142.331 25.3566C147.099 25.3566 150.384 26.178 152.187 27.8207C154.03 29.4233 154.952 32.3882 154.952 36.7152V48.9152C154.952 50.9987 155.533 52.0404 156.695 52.0404C158.057 52.0404 158.858 49.977 159.099 45.8502L160 45.9103C159.84 49.4361 159.179 51.8601 158.017 53.1822C156.855 54.5044 154.952 55.1655 152.307 55.1655C147.5 55.1655 144.735 53.683 144.014 50.7182C143.493 52.2407 142.712 53.3625 141.67 54.0837C140.628 54.8049 139.106 55.1655 137.102 55.1655C131.173 55.1655 128.208 52.7415 128.208 47.8936C128.208 45.0489 129.33 43.1057 131.573 42.064C133.857 40.9822 137.343 40.4413 142.031 40.4413ZM139.627 47.8335C139.627 49.9169 139.727 51.2591 139.927 51.8601C140.167 52.461 140.588 52.7615 141.189 52.7615C141.83 52.7615 142.411 52.2607 142.932 51.2591C143.493 50.2174 143.773 48.795 143.773 46.9921V41.4029H143.353C140.869 41.4029 139.627 43.2259 139.627 46.8719V47.8335Z" fill="#3B4758"/>
</svg>
