<svg width="160" height="52" viewBox="0 0 160 52" fill="none" xmlns="http://www.w3.org/2000/svg">
<path d="M22.912 40.3338C21.141 40.3338 20.3662 39.2269 20.4769 37.1239C20.5876 36.1277 20.5876 35.4636 20.5876 35.1315C20.5876 36.4598 20.6982 31.2575 20.9196 19.4142C21.0303 11.1127 20.9196 6.02117 20.5876 4.13951C20.4769 1.81511 19.37 0.708252 17.267 0.708252C16.9349 0.708252 16.6029 0.708252 16.2708 0.818936C13.725 3.69677 10.8472 5.7998 7.63732 7.01734V20.7424C7.748 24.8378 7.748 27.1622 7.748 27.8263C7.748 30.8148 9.07623 32.9178 11.7327 34.246L15.7174 29.2652V38.0094C15.7174 39.6697 15.6067 40.8872 15.496 41.5513L14.0571 43.433C11.1793 46.7535 8.96555 48.7459 7.41595 49.2993C5.4236 50.0741 2.98852 49.9634 0 48.9673C1.32823 50.5169 3.20989 51.2917 5.75566 51.2917C9.18692 51.2917 12.3968 49.8527 15.6067 46.8642C19.8128 42.9902 22.2478 40.7765 22.912 40.3338ZM15.7174 26.8301C15.3853 27.0515 14.9426 27.1622 14.6105 27.1622C13.9464 27.1622 13.393 26.7194 12.9502 25.7232C12.7289 25.3912 12.6182 24.9484 12.6182 24.395L12.5075 11.6661C12.5075 9.34174 12.5075 7.90283 12.6182 7.3494C12.6182 5.91048 13.1716 5.13568 14.1678 5.13568C15.3853 5.13568 15.9388 6.90666 15.8281 10.3379L15.7174 26.8301Z" fill="#3B4758"/>
<path d="M38.3742 29.3759C38.3742 29.2652 38.3742 29.2652 38.2636 29.2652H37.9315C36.3819 29.4866 35.4964 28.7118 35.3857 26.9408C35.6071 15.5401 35.7178 9.56312 35.7178 8.899C35.8285 4.02883 35.0537 1.37236 33.6148 0.929624C33.5041 0.818936 33.0613 1.04031 32.3972 1.48305C30.2942 2.47922 28.6339 3.14334 27.4163 3.4754C25.3133 4.47157 23.9851 6.02117 23.4317 8.1242C22.8782 10.2272 23.2103 12.4409 24.2065 14.876L23.0996 15.7615V26.2767C23.2103 27.2728 23.2103 27.8263 23.2103 27.8263C23.321 30.8148 24.6492 32.9178 27.195 34.246L30.7369 29.7079C31.1797 31.7003 32.3972 33.2499 34.5002 34.246L38.3742 29.3759ZM30.6262 9.6738C28.5232 10.4486 26.5309 12.6623 24.6492 14.4333C24.5385 13.6585 24.4278 12.9944 24.4278 12.3303C24.4278 10.0059 25.424 8.45626 27.527 7.68146L30.6262 7.01734V9.6738ZM30.6262 29.2652C29.0766 29.4866 28.1911 28.7118 28.0805 26.9408C28.0805 26.8301 28.0805 26.8301 28.0805 26.8301H27.9698V18.6394C27.9698 14.9867 28.8553 12.4409 30.6262 11.1127L30.5156 25.6126C30.5156 27.3835 30.5156 28.6011 30.6262 29.2652Z" fill="#3B4758"/>
<path d="M65.5433 29.3759C65.5433 29.2652 65.5433 29.2652 65.4326 29.2652H65.1005C63.6616 29.4866 62.7761 28.7118 62.5548 26.9408L62.7761 14.2119C62.8868 11.002 62.8868 9.23106 62.8868 8.899C62.8868 6.35323 62.8868 4.80363 62.7761 4.2502C62.5548 2.58991 61.8906 1.48305 60.8945 1.04031L55.0281 5.24637C54.8068 3.03265 54.1426 1.59374 52.9251 1.04031L46.9481 5.35705C46.8374 3.03265 46.1733 1.59374 44.9557 1.04031L39.3107 5.13568C39.4214 5.24637 39.5321 5.24637 39.6428 5.24637C41.5245 5.13568 41.9672 6.24254 41.9672 8.45626L41.8565 25.6126C41.8565 27.7156 41.9672 29.0438 42.0779 29.8186C42.5206 31.811 43.7382 33.2499 45.8412 34.246L49.6045 29.3759C49.6045 29.2652 49.6045 29.2652 49.4938 29.2652H49.2725C47.7229 29.4866 46.8374 28.7118 46.616 26.9408C46.9481 15.2081 47.0588 9.23106 47.0588 8.899V7.12803C47.3908 7.01734 47.7229 6.90666 47.8336 6.79597C48.1656 6.68528 48.387 6.68528 48.6084 6.79597C49.1618 6.79597 49.6045 7.12803 49.8259 7.90283C49.9366 8.56694 49.9366 9.12037 49.8259 9.56312L49.9366 25.6126C49.9366 28.1583 49.9366 29.5972 50.0473 29.8186C50.6007 31.811 51.8182 33.2499 53.9213 34.246L57.6846 29.3759C57.6846 29.2652 57.6846 29.2652 57.5739 29.2652H57.2418C55.6922 29.4866 54.8068 28.7118 54.6961 26.9408L54.9174 14.2119C55.0281 10.0059 55.0281 7.57077 55.0281 7.01734L55.8029 6.79597C56.0243 6.68528 56.2457 6.68528 56.467 6.79597C57.2418 6.79597 57.5739 7.12803 57.6846 7.90283C57.7953 8.45626 57.7953 9.00968 57.6846 9.56312L57.7953 25.6126C57.7953 27.937 57.906 29.2652 58.0166 29.8186C58.5701 31.811 59.7876 33.2499 61.78 34.246L65.5433 29.3759Z" fill="#3B4758"/>
<path d="M79.3894 9.78449C78.8359 9.12037 78.5039 8.34557 78.5039 7.57077C78.3932 4.58225 78.1718 2.7006 77.8398 1.9258C77.6184 1.37236 77.2863 0.929624 76.7329 0.708252L66.7712 7.90283C66.6605 8.01351 66.6605 8.1242 66.7712 8.23488V24.5057C66.7712 26.7194 66.8819 28.1583 66.9926 28.8224C67.546 31.1468 69.2063 32.9178 72.0841 34.0247L73.523 34.6888L74.0765 34.1354C76.9543 31.2575 78.7253 28.269 79.2787 25.1698C79.6107 23.5095 79.5001 21.9599 79.0573 20.521V20.4103L77.065 17.0897C78.0611 20.189 78.2825 22.624 77.6184 24.5057L76.9543 26.0553C75.9581 27.4942 75.0726 28.269 74.0765 28.4904C72.3055 28.9331 71.42 27.3835 71.42 23.8416V19.8569C72.8589 16.4256 74.9619 13.4371 77.8398 11.002C78.6146 10.4486 78.9466 10.1165 79.0573 10.0059L79.3894 9.78449ZM74.0765 12.3303C73.191 14.4333 72.3055 15.9829 71.42 16.9791V6.5746C71.42 6.46391 71.5307 6.46391 71.6414 6.46391C71.8627 6.35323 72.0841 6.35323 72.4162 6.46391C72.8589 6.46391 73.191 6.68528 73.523 7.12803C73.8551 7.90283 74.0765 9.6738 74.0765 12.3303Z" fill="#3B4758"/>
<path d="M95.099 8.56694C95.3203 6.90666 94.5455 5.35705 92.6639 3.69677C91.1143 2.25785 89.454 1.37236 87.7937 0.929624C87.4617 1.26168 87.0189 2.25785 86.4655 3.69677C86.1334 2.36854 85.58 1.48305 84.6945 1.04031L79.0495 5.13568C79.1602 5.24637 79.2709 5.24637 79.3816 5.24637C81.2633 5.13568 81.706 6.24254 81.706 8.45626L81.5953 25.6126C81.5953 27.7156 81.706 29.0438 81.8167 29.8186C82.2594 31.811 83.477 33.2499 85.58 34.246L89.3433 29.3759C89.3433 29.2652 89.3433 29.2652 89.2326 29.2652H89.0113C87.4617 29.4866 86.5762 28.7118 86.3548 26.9408C86.6869 15.2081 86.7975 9.23106 86.7975 8.899V7.12803C87.1296 6.79597 87.5723 6.68528 88.0151 6.79597C89.0113 6.90666 89.6754 8.01351 89.8967 9.89517C90.0074 10.4486 89.8968 11.3341 89.6754 12.5516L95.099 8.56694Z" fill="#3B4758"/>
<path d="M112.778 26.166C112.224 26.7194 111.228 27.0515 109.789 27.0515H101.266C102.262 24.7271 103.48 22.0706 104.698 18.9714C105.251 19.3035 105.583 19.6355 105.694 19.9676V20.0783C105.804 20.189 105.804 20.189 105.804 20.2996C106.026 19.9676 107.133 18.8607 109.125 16.9791C110.564 15.6508 111.117 14.3226 110.896 12.9944C109.9 14.1012 108.35 14.6547 106.468 14.6547C109.236 7.90283 111.007 3.4754 112.003 1.48305H111.892L112.003 1.37236H109.9C107.354 1.26168 105.583 1.26168 104.698 1.26168C102.816 1.151 101.598 1.26168 101.266 1.37236C100.381 1.70442 99.606 2.47922 98.9418 3.80745L96.9495 7.68146C97.5029 7.12803 98.4991 6.90666 99.938 6.90666H107.354L104.144 14.6547C101.488 14.6547 99.4953 15.9829 98.1671 18.6394L97.3923 20.189C100.27 19.1928 101.93 18.6394 102.484 18.5287L101.377 21.1851L98.7205 27.0515L97.7243 29.2652C97.6136 29.3759 97.6136 29.4866 97.6136 29.5972L95.8426 33.4712H97.2816C97.6136 33.5819 97.835 33.5819 97.835 33.5819H104.698C106.69 33.5819 107.907 33.4712 108.35 33.2499C109.125 32.9178 109.9 32.0323 110.675 30.5934L112.778 26.166Z" fill="#3B4758"/>
<path d="M126.427 22.0706C125.985 21.6279 125.763 20.9638 125.653 20.189C125.763 14.4333 125.874 10.67 125.985 8.78832C125.985 7.12803 125.874 5.57843 125.763 4.02883C125.431 1.81511 124.324 0.708252 122.332 0.708252C122 0.708252 121.779 0.708252 121.447 0.818936C118.901 3.69677 116.023 5.7998 112.813 7.01734V9.78449C112.813 13.2157 112.813 16.8684 112.924 20.9638V27.8263C113.034 30.8148 114.363 32.9178 116.908 34.246L126.427 22.0706ZM122.111 25.7232C121.336 26.7194 120.561 27.1622 119.786 27.1622C118.347 27.1622 117.683 26.2767 117.794 24.395H117.683V7.3494C117.794 5.68911 118.79 5.13568 119.343 5.13568C120.34 5.13568 120.893 6.90666 120.893 10.3379V14.7653C120.893 14.544 120.893 15.4295 120.782 17.4218C120.782 17.4218 120.782 17.9752 120.782 19.1928V18.5287C120.782 22.1813 121.225 24.5057 122.111 25.7232Z" fill="#3B4758"/>
<path d="M146.214 29.3759C146.214 29.2652 146.214 29.2652 146.104 29.2652H145.771C144.222 29.4866 143.336 28.7118 143.226 26.9408L143.447 14.2119C143.558 11.002 143.558 9.23106 143.558 8.899C143.558 6.35323 143.558 4.80363 143.447 4.2502C143.226 2.58991 142.562 1.48305 141.455 1.04031L135.478 5.35705C135.367 3.03265 134.703 1.59374 133.485 1.04031L127.84 5.13568C127.951 5.24637 128.062 5.24637 128.172 5.24637C130.054 5.13568 130.497 6.24254 130.497 8.45626L130.386 25.6126C130.386 27.7156 130.497 29.0438 130.607 29.8186C131.05 31.811 132.268 33.2499 134.371 34.246L138.134 29.3759C138.134 29.2652 138.134 29.2652 138.023 29.2652H137.802C136.252 29.4866 135.367 28.7118 135.146 26.9408C135.478 15.2081 135.588 9.23106 135.588 8.899V7.12803C135.92 7.01734 136.252 6.90666 136.363 6.79597C136.695 6.68528 136.917 6.68528 137.138 6.79597C137.691 6.79597 138.134 7.12803 138.355 7.90283C138.466 8.56694 138.466 9.12037 138.355 9.56312L138.466 25.6126C138.466 28.1583 138.466 29.5972 138.577 29.8186C139.13 31.811 140.348 33.2499 142.451 34.246L146.214 29.3759Z" fill="#3B4758"/>
<path d="M159.918 9.78449C159.364 9.12037 159.032 8.34557 159.032 7.57077C158.921 4.58225 158.7 2.7006 158.368 1.9258C158.147 1.37236 157.815 0.929624 157.261 0.708252L147.299 7.90283C147.189 8.01351 147.189 8.1242 147.299 8.23488V24.5057C147.299 26.7194 147.41 28.1583 147.521 28.8224C148.074 31.1468 149.735 32.9178 152.612 34.0247L154.051 34.6888L154.605 34.1354C157.483 31.2575 159.253 28.269 159.807 25.1698C160.139 23.5095 160.028 21.9599 159.586 20.521V20.4103L157.593 17.0897C158.589 20.189 158.811 22.624 158.147 24.5057L157.483 26.0553C156.486 27.4942 155.601 28.269 154.605 28.4904C152.834 28.9331 151.948 27.3835 151.948 23.8416V19.8569C153.387 16.4256 155.49 13.4371 158.368 11.002C159.143 10.4486 159.475 10.1165 159.586 10.0059L159.918 9.78449ZM154.605 12.3303C153.719 14.4333 152.834 15.9829 151.948 16.9791V6.5746C151.948 6.46391 152.059 6.46391 152.17 6.46391C152.391 6.35323 152.612 6.35323 152.944 6.46391C153.387 6.46391 153.719 6.68528 154.051 7.12803C154.383 7.90283 154.605 9.6738 154.605 12.3303Z" fill="#3B4758"/>
</svg>
