<svg width="160" height="32" viewBox="0 0 160 32" fill="none" xmlns="http://www.w3.org/2000/svg">
<path d="M10.7145 13.0739C10.6189 12.854 10.485 12.6293 10.3129 12.3998C10.1503 12.1703 9.95906 11.9599 9.73913 11.7687C9.5192 11.5774 9.28014 11.4244 9.02196 11.3097C8.76378 11.1854 8.49126 11.1232 8.20439 11.1232C7.81234 11.1232 7.4442 11.2858 7.09996 11.6109C6.75571 11.936 6.4545 12.3711 6.19632 12.9161C5.93814 13.4516 5.73256 14.0684 5.57956 14.7664C5.43613 15.4549 5.36441 16.1721 5.36441 16.9179C5.36441 17.3769 5.40266 17.812 5.47916 18.2232C5.56522 18.6248 5.69431 18.9786 5.86643 19.2846C6.03855 19.5906 6.25848 19.8344 6.52622 20.0161C6.80353 20.1978 7.13342 20.2886 7.51591 20.2886C8.08965 20.2886 8.61557 20.1117 9.09368 19.7579C9.57179 19.3946 9.97819 18.926 10.3129 18.3523C10.3224 18.1515 10.3368 17.9124 10.3559 17.6351C10.375 17.3578 10.3989 17.0231 10.4276 16.6311C10.4563 16.2295 10.4898 15.7609 10.528 15.2254C10.5758 14.6804 10.6332 14.0349 10.7001 13.2891L10.7145 13.0739ZM15.4621 21.7373C15.3665 22.684 15.1514 23.5685 14.8167 24.3908C14.482 25.2132 14.0565 25.9638 13.5401 26.6427C13.0333 27.3312 12.45 27.9432 11.7902 28.4787C11.14 29.0237 10.4467 29.4827 9.71044 29.8556C8.98371 30.2286 8.23308 30.5106 7.45854 30.7019C6.684 30.9027 5.91902 31.0031 5.1636 31.0031C4.76199 31.0031 4.35081 30.9888 3.93008 30.9601C3.50934 30.9314 3.09816 30.874 2.69655 30.788C2.29493 30.7115 1.91245 30.5967 1.54908 30.4437C1.18572 30.3003 0.860601 30.1138 0.573734 29.8843V29.87C0.573734 29.8222 0.607202 29.6548 0.674137 29.368C0.750635 29.0811 0.836695 28.7416 0.932317 28.3496C1.0375 27.9671 1.14269 27.5703 1.24787 27.1591C1.36262 26.7479 1.45824 26.3941 1.53474 26.0977C1.57299 25.9638 1.61124 25.873 1.64948 25.8252C1.68773 25.7773 1.73076 25.7534 1.77857 25.7534C1.83595 25.7534 1.86942 25.7582 1.87898 25.7678C2.15628 25.9495 2.41446 26.0977 2.65352 26.2124C2.90214 26.3367 3.16032 26.4324 3.42806 26.4993C3.70536 26.5758 4.00657 26.6284 4.33169 26.6571C4.65681 26.6858 5.03451 26.7001 5.46481 26.7001C6.13417 26.7001 6.72703 26.571 7.24339 26.3128C7.75975 26.0546 8.20439 25.72 8.57732 25.3088C8.95025 24.8976 9.24668 24.4434 9.46661 23.9462C9.6961 23.4585 9.85388 22.9756 9.93994 22.4975C9.25146 22.9565 8.55341 23.3294 7.84581 23.6163C7.1382 23.9031 6.42582 24.0466 5.70865 24.0466C4.72374 24.0466 3.8727 23.8458 3.15554 23.4442C2.43837 23.0521 1.84551 22.5214 1.37696 21.852C0.908412 21.1827 0.55939 20.4177 0.329897 19.5571C0.109966 18.687 0 17.7785 0 16.8319C0 16.086 0.0669356 15.3354 0.200807 14.58C0.34424 13.815 0.549828 13.0787 0.817571 12.3711C1.09488 11.6635 1.43433 11.0037 1.83595 10.3917C2.23756 9.77017 2.70133 9.22991 3.22725 8.77092C3.75318 8.31193 4.33647 7.95335 4.97714 7.69517C5.61781 7.42743 6.31585 7.29355 7.07127 7.29355C7.89362 7.29355 8.65382 7.47524 9.35186 7.8386C10.0595 8.20197 10.7001 8.65139 11.2739 9.18688C11.293 9.01476 11.3073 8.88088 11.3169 8.78526C11.3265 8.68008 11.3504 8.5988 11.3886 8.54143C11.4269 8.48405 11.489 8.44102 11.5751 8.41234C11.6707 8.38365 11.8046 8.35018 11.9767 8.31193C12.0819 8.29281 12.2731 8.25456 12.5504 8.19719C12.8277 8.13025 13.1576 8.05375 13.5401 7.96769C13.9226 7.88163 14.3433 7.79079 14.8023 7.69517C15.2613 7.59955 15.7251 7.49914 16.1936 7.39396C16.3084 7.36527 16.4136 7.35093 16.5092 7.35093C16.8056 7.35093 16.9538 7.54217 16.9538 7.92466C16.9538 7.97247 16.9538 8.02028 16.9538 8.0681C16.9538 8.10634 16.9491 8.14937 16.9395 8.19719L15.4621 21.7373Z" fill="#3B4758"/>
<path d="M26.736 24.0466C25.3877 24.0466 24.202 23.8266 23.1788 23.3868C22.1652 22.9469 21.3142 22.3636 20.6257 21.6369C19.9372 20.9006 19.4209 20.0591 19.0766 19.1125C18.7324 18.1562 18.5603 17.1666 18.5603 16.1434C18.5603 15.1202 18.7276 14.1497 19.0623 13.2317C19.397 12.3042 19.8655 11.477 20.468 10.7503C21.0704 10.014 21.7923 9.40203 22.6338 8.91435C23.4753 8.41712 24.4028 8.08244 25.4164 7.91032C25.5694 7.90076 25.6459 7.86729 25.6459 7.80992C25.6459 7.70473 25.6316 7.60911 25.6029 7.52305C25.5837 7.42743 25.5742 7.34615 25.5742 7.27921C25.5742 7.17403 25.5933 7.10231 25.6316 7.06406C25.6698 7.02581 25.7128 7.00669 25.7606 7.00669C27.587 7.00669 29.1409 7.21706 30.4222 7.63779C31.7036 8.04897 32.7459 8.61314 33.5491 9.33031C34.3523 10.0475 34.9356 10.8937 35.299 11.8691C35.6623 12.8444 35.844 13.8915 35.844 15.0103C35.844 16.435 35.605 17.7068 35.1269 18.8256C34.6487 19.9444 33.9937 20.891 33.1618 21.6656C32.3395 22.4401 31.3737 23.0282 30.2645 23.4298C29.1648 23.841 27.9886 24.0466 26.736 24.0466ZM24.0825 15.9856C24.0825 16.502 24.1351 17.0136 24.2403 17.5204C24.355 18.0272 24.5367 18.4861 24.7853 18.8973C25.0435 19.3085 25.3782 19.6432 25.7893 19.9014C26.2005 20.15 26.7121 20.2743 27.3241 20.2743C27.7639 20.2552 28.1464 20.1595 28.4715 19.9874C28.8062 19.8057 29.0931 19.5762 29.3321 19.2989C29.5712 19.0121 29.7672 18.6917 29.9202 18.3379C30.0828 17.9841 30.2071 17.6208 30.2931 17.2478C30.3888 16.8653 30.4557 16.4924 30.4939 16.1291C30.5322 15.7657 30.5513 15.4358 30.5513 15.1394C30.5513 14.6421 30.4748 14.1545 30.3218 13.6763C30.1784 13.1982 29.9632 12.7775 29.6764 12.4141C29.3895 12.0508 29.0309 11.7591 28.6006 11.5392C28.1799 11.3097 27.6922 11.1949 27.1376 11.1949C26.5639 11.1949 26.081 11.3671 25.6889 11.7113C25.2969 12.046 24.9813 12.4619 24.7423 12.9592C24.5128 13.4564 24.3454 13.9823 24.2403 14.5369C24.1351 15.082 24.0825 15.5649 24.0825 15.9856Z" fill="#3B4758"/>
<path d="M58.5639 23.8171C58.4587 23.8458 58.32 23.8888 58.1479 23.9462C57.9758 24.0131 57.8085 24.0466 57.6459 24.0466C57.512 24.0466 57.3925 24.0131 57.2873 23.9462C57.1917 23.8792 57.1439 23.7645 57.1439 23.6019V23.5159C57.2108 22.8178 57.2682 22.2537 57.316 21.8234C57.3638 21.3835 57.4021 21.0297 57.4307 20.762C57.4594 20.4942 57.4833 20.2934 57.5025 20.1595C57.5216 20.0161 57.5407 19.887 57.5598 19.7723C57.579 19.648 57.5933 19.5141 57.6029 19.3707C57.622 19.2272 57.6459 19.0264 57.6746 18.7682C57.7033 18.5005 57.7367 18.1515 57.775 17.7212C57.8228 17.2813 57.8802 16.7076 57.9471 16C57.9854 15.6175 58.0236 15.2398 58.0619 14.8668C58.1097 14.4844 58.1336 14.1353 58.1336 13.8198C58.1336 13.4182 58.1097 13.0548 58.0619 12.7297C58.0236 12.395 57.9471 12.1129 57.8324 11.8834C57.7272 11.6444 57.579 11.4579 57.3877 11.324C57.1965 11.1902 56.9526 11.1232 56.6562 11.1232C56.4745 11.1232 56.2355 11.1615 55.939 11.238C55.6522 11.3145 55.3605 11.4531 55.0641 11.6539C54.7677 11.8452 54.4999 12.1034 54.2609 12.4285C54.0218 12.744 53.8688 13.1456 53.8019 13.6333V13.6907C53.6871 14.7808 53.582 15.7274 53.4863 16.5307C53.4003 17.3243 53.3238 18.008 53.2568 18.5818C53.1899 19.1555 53.1325 19.6336 53.0847 20.0161C53.0465 20.3986 53.013 20.7237 52.9843 20.9914C52.9556 21.2496 52.9317 21.4648 52.9126 21.6369C52.903 21.809 52.8983 21.9716 52.8983 22.1246C52.8983 22.2011 52.8983 22.268 52.8983 22.3254C52.9078 22.3732 52.9126 22.4162 52.9126 22.4545C52.9126 22.531 52.8743 22.5979 52.7978 22.6553C52.7309 22.7031 52.5731 22.7652 52.3245 22.8417L48.9538 23.8171C48.8486 23.8458 48.71 23.8888 48.5379 23.9462C48.3658 24.0131 48.1984 24.0466 48.0359 24.0466C47.902 24.0466 47.7825 24.0131 47.6773 23.9462C47.5817 23.8792 47.5338 23.7645 47.5338 23.6019V23.5159C47.6008 22.8178 47.6534 22.2537 47.6916 21.8234C47.7394 21.3835 47.7777 21.0297 47.8064 20.762C47.8446 20.4942 47.8733 20.2934 47.8924 20.1595C47.9115 20.0161 47.9259 19.887 47.9355 19.7723C47.9546 19.648 47.9737 19.5141 47.9928 19.3707C48.012 19.2272 48.0311 19.0264 48.0502 18.7682C48.0789 18.5005 48.1124 18.1515 48.1506 17.7212C48.1984 17.2813 48.2558 16.7076 48.3227 16C48.361 15.6175 48.3992 15.2398 48.4375 14.8668C48.4853 14.4844 48.5092 14.1353 48.5092 13.8198C48.5092 13.4182 48.4901 13.0548 48.4518 12.7297C48.4136 12.395 48.3419 12.1129 48.2367 11.8834C48.141 11.6444 48.0072 11.4579 47.8351 11.324C47.6629 11.1902 47.443 11.1232 47.1753 11.1232C46.984 11.1232 46.7211 11.171 46.3864 11.2667C46.0613 11.3623 45.7314 11.5201 45.3967 11.74C45.0716 11.9599 44.7799 12.2516 44.5217 12.6149C44.2731 12.9687 44.1297 13.4086 44.0914 13.9345C44.0149 14.6421 43.9528 15.2254 43.905 15.6844C43.8572 16.1338 43.8189 16.5068 43.7902 16.8032C43.7615 17.0901 43.7376 17.3243 43.7185 17.506C43.709 17.6781 43.6994 17.8407 43.6898 17.9937C43.6803 18.0319 43.6659 18.1419 43.6468 18.3236C43.6277 18.4957 43.6038 18.7061 43.5751 18.9547C43.556 19.1937 43.532 19.4567 43.5034 19.7436C43.4842 20.0209 43.4651 20.2838 43.446 20.5325C43.4269 20.7715 43.4077 20.9819 43.3886 21.1636C43.3791 21.3357 43.3743 21.4409 43.3743 21.4791V21.7373C43.3743 21.8329 43.3695 21.9142 43.3599 21.9811C43.3504 22.0481 43.3217 22.1102 43.2739 22.1676C43.2261 22.225 43.1543 22.2776 43.0587 22.3254C42.9727 22.3732 42.8484 22.4258 42.6858 22.4832L38.9278 23.8171C38.8227 23.8553 38.684 23.9031 38.5119 23.9605C38.3398 24.0179 38.1724 24.0466 38.0099 24.0466C37.876 24.0466 37.7565 24.0131 37.6513 23.9462C37.5557 23.8792 37.5078 23.7645 37.5078 23.6019L38.7987 8.97173C38.8274 8.65617 38.8609 8.44102 38.8991 8.32628C38.947 8.20197 39.0569 8.12069 39.229 8.08244C40.0992 7.91032 40.9885 7.7382 41.8969 7.56608C42.8053 7.3844 43.6946 7.1549 44.5648 6.8776C44.6413 6.8776 44.6843 6.89194 44.6939 6.92063C44.713 6.93975 44.7225 6.97322 44.7225 7.02103L44.5361 9.11516C44.8899 8.93348 45.2867 8.73745 45.7266 8.52708C46.1664 8.30715 46.6254 8.10634 47.1035 7.92466C47.5912 7.74298 48.0837 7.59476 48.5809 7.48002C49.0877 7.35571 49.5802 7.29355 50.0583 7.29355C50.7181 7.29355 51.3253 7.44655 51.8799 7.75254C52.444 8.04897 52.9078 8.54621 53.2712 9.24425C53.7015 8.96694 54.1557 8.70876 54.6338 8.46971C55.1215 8.23065 55.6139 8.02506 56.1112 7.85294C56.618 7.68082 57.1248 7.54695 57.6316 7.45133C58.1384 7.35571 58.6308 7.3079 59.1089 7.3079C59.7113 7.3079 60.2803 7.39396 60.8158 7.56608C61.3513 7.7382 61.815 8.02028 62.2071 8.41234C62.6087 8.80439 62.9242 9.31597 63.1537 9.94707C63.3832 10.5686 63.498 11.3288 63.498 12.2277C63.498 12.4572 63.4932 12.6962 63.4836 12.9448C63.4741 13.1839 63.455 13.4325 63.4263 13.6907L62.7665 19.8296C62.7187 20.2313 62.69 20.6042 62.6804 20.9484C62.6708 21.2831 62.6661 21.6751 62.6661 22.1246C62.6661 22.2011 62.6661 22.268 62.6661 22.3254C62.6756 22.3732 62.6804 22.4162 62.6804 22.4545C62.6804 22.5405 62.6422 22.6075 62.5657 22.6553C62.4987 22.7031 62.341 22.7652 62.0923 22.8417L58.5639 23.8171Z" fill="#3B4758"/>
<path d="M74.2125 7.29355C75.1209 7.29355 75.9432 7.46567 76.6795 7.80992C77.4254 8.14459 78.0613 8.58446 78.5872 9.1295C79.1227 9.66499 79.5338 10.2674 79.8207 10.9368C80.1076 11.6061 80.251 12.2755 80.251 12.9448C80.251 13.5377 80.0693 14.1353 79.706 14.7378C79.3426 15.3306 78.831 15.8661 78.1712 16.3442C77.521 16.8223 76.7369 17.2096 75.8189 17.506C74.9009 17.8024 73.8921 17.9507 72.7925 17.9507C72.2187 17.9507 71.6163 17.8933 70.9852 17.7785C71.0235 18.1897 71.143 18.5435 71.3438 18.8399C71.5446 19.1364 71.798 19.3802 72.104 19.5715C72.41 19.7627 72.7542 19.9061 73.1367 20.0018C73.5288 20.0878 73.9304 20.1308 74.3416 20.1308C74.8005 20.1308 75.2404 20.0926 75.6611 20.0161C76.0914 19.93 76.5026 19.8201 76.8947 19.6862C77.2867 19.5523 77.6644 19.4041 78.0278 19.2416C78.3912 19.079 78.7354 18.9164 79.0605 18.7539C79.1466 18.7348 79.2183 18.7204 79.2757 18.7109C79.3426 18.6917 79.4047 18.6822 79.4621 18.6822C79.4621 18.6822 79.4573 18.7587 79.4478 18.9117C79.4478 19.0647 79.4478 19.2798 79.4478 19.5571C79.4478 19.8344 79.443 20.1691 79.4334 20.5611C79.4334 20.9532 79.4287 21.3883 79.4191 21.8664C79.4478 21.9142 79.4669 21.962 79.4765 22.0098C79.486 22.0576 79.4908 22.0959 79.4908 22.1246C79.4908 22.2393 79.3856 22.3636 79.1753 22.4975C78.9649 22.6314 78.6876 22.77 78.3433 22.9135C78.0087 23.0569 77.6214 23.1955 77.1815 23.3294C76.7512 23.4633 76.3114 23.5828 75.8619 23.688C75.4125 23.8027 74.9774 23.8888 74.5567 23.9462C74.136 24.0131 73.7678 24.0466 73.4523 24.0466C72.4195 24.0466 71.4155 23.8649 70.4402 23.5015C69.4744 23.1477 68.6138 22.6362 67.8584 21.9668C67.1125 21.2974 66.5149 20.4846 66.0654 19.5284C65.616 18.5722 65.3913 17.4965 65.3913 16.3012C65.3913 15.0485 65.6065 13.8771 66.0368 12.7871C66.4671 11.6874 67.0695 10.7312 67.844 9.91839C68.6281 9.1056 69.5604 8.46493 70.641 7.99638C71.7215 7.52783 72.912 7.29355 74.2125 7.29355ZM74.0403 11.1089C73.6483 11.1089 73.2849 11.1949 72.9502 11.3671C72.6251 11.5296 72.3239 11.7687 72.0466 12.0842C71.7789 12.3902 71.5446 12.7632 71.3438 13.203C71.143 13.6333 70.9804 14.1114 70.8561 14.6373C71.841 14.4652 72.6586 14.2835 73.3088 14.0923C73.9591 13.9011 74.4802 13.7098 74.8723 13.5186C75.2643 13.3178 75.5416 13.1217 75.7042 12.9305C75.8667 12.7297 75.948 12.5384 75.948 12.3568C75.948 12.1846 75.8811 12.0221 75.7472 11.8691C75.6229 11.7161 75.4651 11.5822 75.2739 11.4675C75.0826 11.3527 74.8723 11.2667 74.6428 11.2093C74.4228 11.1424 74.222 11.1089 74.0403 11.1089Z" fill="#3B4758"/>
<path d="M83.9803 23.3007C83.789 23.3007 83.5834 23.2912 83.3635 23.272C83.1531 23.2529 82.9571 23.2194 82.7754 23.1716C82.6033 23.1143 82.4551 23.0425 82.3308 22.9565C82.216 22.8704 82.1587 22.7557 82.1587 22.6122C82.1587 22.6027 82.1635 22.5883 82.173 22.5692C82.1826 22.5501 82.1874 22.531 82.1874 22.5118L87.2506 12.1273C86.8489 12.1273 86.3995 12.1368 85.9023 12.1559C85.4051 12.1655 84.903 12.1799 84.3962 12.199C83.899 12.2085 83.4209 12.2181 82.9619 12.2277C82.5125 12.2372 82.13 12.242 81.8144 12.242C81.7188 12.242 81.6471 12.2133 81.5993 12.1559C81.5515 12.089 81.5276 12.0173 81.5276 11.9408V11.8834L82.9762 8.42668C83.0527 8.1685 83.1962 8.00116 83.4065 7.92466C83.6169 7.84816 83.8273 7.80992 84.0377 7.80992C85.7206 7.80992 87.3701 7.8386 88.9861 7.89598C90.6117 7.95335 92.2612 7.98204 93.9346 7.98204C94.0397 7.98204 94.1449 8.0155 94.2501 8.08244C94.3649 8.14937 94.4222 8.23065 94.4222 8.32628C94.4222 8.33584 94.4127 8.36931 94.3935 8.42668L89.8467 18.3523C89.8467 18.3714 89.8706 18.3857 89.9184 18.3953C89.9758 18.4049 90.0427 18.4144 90.1192 18.424C90.2053 18.4336 90.2866 18.4383 90.3631 18.4383C90.4491 18.4383 90.5208 18.4383 90.5782 18.4383C91.1806 18.4383 91.7639 18.424 92.3281 18.3953C92.8923 18.3666 93.4612 18.3523 94.035 18.3523C94.1401 18.3523 94.231 18.3762 94.3075 18.424C94.384 18.4718 94.4222 18.5674 94.4222 18.7109C94.4222 18.73 94.4127 18.7395 94.3935 18.7395L92.5863 22.5118C92.5002 22.6935 92.3472 22.837 92.1273 22.9421C91.9074 23.0473 91.6396 23.1286 91.3241 23.186C91.0085 23.2338 90.6547 23.2673 90.2627 23.2864C89.8802 23.2959 89.4833 23.3007 89.0722 23.3007H83.9803Z" fill="#3B4758"/>
<path d="M102.325 18.6248C102.421 18.816 102.555 19.0121 102.727 19.2129C102.909 19.4041 103.114 19.581 103.344 19.7436C103.583 19.9061 103.841 20.04 104.118 20.1452C104.396 20.2408 104.683 20.2886 104.979 20.2886C105.39 20.2886 105.777 20.1308 106.141 19.8153C106.504 19.4902 106.82 19.0599 107.087 18.5244C107.365 17.9793 107.58 17.3626 107.733 16.6741C107.886 15.9761 107.962 15.2541 107.962 14.5083C107.962 14.0493 107.919 13.6142 107.833 13.203C107.757 12.7918 107.632 12.4333 107.46 12.1273C107.288 11.8213 107.063 11.5774 106.786 11.3958C106.518 11.2141 106.193 11.1232 105.811 11.1232C105.189 11.1232 104.62 11.3049 104.104 11.6683C103.588 12.0316 103.153 12.4954 102.799 13.0596L102.325 18.6248ZM96.9897 24.0036C96.8558 24.0322 96.7506 24.0466 96.6741 24.0466C96.3681 24.0466 96.2151 23.8649 96.2151 23.5015C96.2151 23.4537 96.2151 23.4059 96.2151 23.3581C96.2247 23.3103 96.2343 23.2577 96.2438 23.2003L97.9077 2.90449C97.9077 2.8758 97.9077 2.84712 97.9077 2.81843C97.9172 2.78974 97.922 2.76584 97.922 2.74671C97.922 2.70847 97.9172 2.675 97.9077 2.64631C97.9077 2.61762 97.9077 2.59372 97.9077 2.57459C97.9077 2.48853 97.9363 2.4216 97.9937 2.37379C98.0607 2.31641 98.2232 2.25426 98.4814 2.18732L102.512 1.22632C102.617 1.2072 102.756 1.16417 102.928 1.09723C103.1 1.03029 103.267 0.996826 103.43 0.996826C103.554 0.996826 103.669 1.02551 103.774 1.08289C103.889 1.14026 103.946 1.25023 103.946 1.41278C103.946 1.43191 103.941 1.45103 103.932 1.47016C103.932 1.48928 103.932 1.50841 103.932 1.52753C103.922 1.57534 103.898 1.78571 103.86 2.15864C103.822 2.53156 103.779 2.98577 103.731 3.52125C103.683 4.04718 103.631 4.61613 103.573 5.22811C103.516 5.83053 103.463 6.39949 103.416 6.93497C103.368 7.46089 103.325 7.91032 103.286 8.28325C103.248 8.65617 103.224 8.86654 103.215 8.91435C103.913 8.45537 104.635 8.07288 105.381 7.76688C106.126 7.45133 106.872 7.29355 107.618 7.29355C108.603 7.29355 109.454 7.49914 110.171 7.91032C110.888 8.31193 111.481 8.8522 111.95 9.53112C112.418 10.2005 112.763 10.975 112.983 11.8547C113.212 12.7345 113.327 13.6429 113.327 14.58C113.327 15.3354 113.255 16.0956 113.112 16.8606C112.978 17.616 112.777 18.3427 112.509 19.0408C112.251 19.7388 111.921 20.3938 111.52 21.0058C111.127 21.6178 110.673 22.1485 110.157 22.5979C109.65 23.0473 109.081 23.4011 108.45 23.6593C107.819 23.9175 107.135 24.0466 106.399 24.0466C105.51 24.0466 104.697 23.8506 103.961 23.4585C103.224 23.0665 102.541 22.5597 101.909 21.9381C101.89 22.1676 101.876 22.3493 101.866 22.4832C101.857 22.617 101.823 22.7222 101.766 22.7987C101.718 22.8656 101.642 22.923 101.537 22.9708C101.431 23.0091 101.274 23.0521 101.063 23.0999C100.958 23.1286 100.772 23.1764 100.504 23.2434C100.246 23.3007 99.9301 23.3677 99.5572 23.4442C99.1938 23.5302 98.7874 23.6211 98.338 23.7167C97.8981 23.8123 97.4487 23.9079 96.9897 24.0036Z" fill="#3B4758"/>
<path d="M130.367 21.5222C130.338 21.8377 130.3 22.0576 130.252 22.1819C130.204 22.2967 130.099 22.3732 129.936 22.4114C129.124 22.6409 128.273 22.8752 127.383 23.1143C126.504 23.3438 125.648 23.6497 124.816 24.0322C124.787 24.0418 124.744 24.0466 124.687 24.0466C124.61 24.0466 124.562 24.0275 124.543 23.9892C124.534 23.951 124.529 23.9079 124.529 23.8601C124.529 23.841 124.529 23.8075 124.529 23.7597C124.538 23.7119 124.553 23.6211 124.572 23.4872C124.591 23.3629 124.615 23.186 124.644 22.9565C124.682 22.727 124.73 22.421 124.787 22.0385C123.716 22.7366 122.765 23.2434 121.933 23.5589C121.11 23.884 120.379 24.0466 119.738 24.0466C118.141 24.0466 116.975 23.6641 116.238 22.8991C115.512 22.1246 115.148 20.9723 115.148 19.4424C115.148 19.1651 115.153 18.883 115.163 18.5961C115.172 18.2997 115.201 17.9985 115.249 17.6925C115.354 16.5641 115.445 15.5984 115.521 14.7951C115.598 13.9823 115.66 13.2939 115.708 12.7297C115.756 12.1655 115.794 11.7065 115.823 11.3527C115.861 10.9894 115.889 10.6881 115.909 10.4491C115.937 10.21 115.956 10.014 115.966 9.86101C115.985 9.69845 116.004 9.54068 116.023 9.38768C116.062 9.08169 116.095 8.86654 116.124 8.74223C116.162 8.61792 116.272 8.53664 116.454 8.4984C116.903 8.41234 117.329 8.33584 117.73 8.2689C118.141 8.1924 118.543 8.11591 118.935 8.03941C119.337 7.95335 119.743 7.86251 120.154 7.76688C120.565 7.67126 121 7.55652 121.459 7.42264C121.479 7.42264 121.498 7.42264 121.517 7.42264C121.536 7.41308 121.555 7.4083 121.574 7.4083C121.689 7.4083 121.746 7.44655 121.746 7.52305V7.55173C121.708 7.87685 121.675 8.18284 121.646 8.46971C121.617 8.75658 121.589 9.053 121.56 9.359C121.531 9.65543 121.498 9.97576 121.459 10.32C121.431 10.6642 121.393 11.0659 121.345 11.5248C121.297 11.9743 121.24 12.4954 121.173 13.0883C121.106 13.6811 121.024 14.3696 120.929 15.1537C120.871 15.7274 120.814 16.3012 120.757 16.8749C120.699 17.4391 120.671 17.965 120.671 18.4527C120.671 18.7204 120.69 18.969 120.728 19.1985C120.766 19.4185 120.833 19.6097 120.929 19.7723C121.034 19.9253 121.168 20.0448 121.33 20.1308C121.493 20.2169 121.703 20.2599 121.961 20.2599C122.162 20.2599 122.435 20.2169 122.779 20.1308C123.123 20.0352 123.467 19.8774 123.812 19.6575C124.156 19.428 124.457 19.1316 124.715 18.7682C124.983 18.3953 125.136 17.9268 125.174 17.3626C125.241 16.4159 125.299 15.627 125.346 14.9959C125.404 14.3553 125.452 13.8198 125.49 13.3895C125.528 12.9496 125.562 12.5815 125.59 12.285C125.619 11.9886 125.643 11.7065 125.662 11.4388C125.691 11.1615 125.715 10.8698 125.734 10.5638C125.753 10.2483 125.772 9.85623 125.791 9.38768C125.82 9.07213 125.853 8.85698 125.892 8.74223C125.939 8.61792 126.049 8.53664 126.221 8.4984C127.092 8.32628 127.981 8.15416 128.889 7.98204C129.798 7.80035 130.687 7.57086 131.557 7.29355C131.634 7.29355 131.677 7.3079 131.686 7.33658C131.705 7.35571 131.715 7.38918 131.715 7.43699L130.367 21.5222Z" fill="#3B4758"/>
<path d="M135.502 23.3007C135.31 23.3007 135.105 23.2912 134.885 23.272C134.674 23.2529 134.478 23.2194 134.297 23.1716C134.125 23.1143 133.976 23.0425 133.852 22.9565C133.737 22.8704 133.68 22.7557 133.68 22.6122C133.68 22.6027 133.685 22.5883 133.694 22.5692C133.704 22.5501 133.709 22.531 133.709 22.5118L138.772 12.1273C138.37 12.1273 137.921 12.1368 137.424 12.1559C136.926 12.1655 136.424 12.1799 135.918 12.199C135.42 12.2085 134.942 12.2181 134.483 12.2277C134.034 12.2372 133.651 12.242 133.336 12.242C133.24 12.242 133.168 12.2133 133.121 12.1559C133.073 12.089 133.049 12.0173 133.049 11.9408V11.8834L134.498 8.42668C134.574 8.1685 134.717 8.00116 134.928 7.92466C135.138 7.84816 135.349 7.80992 135.559 7.80992C137.242 7.80992 138.891 7.8386 140.507 7.89598C142.133 7.95335 143.782 7.98204 145.456 7.98204C145.561 7.98204 145.666 8.0155 145.771 8.08244C145.886 8.14937 145.944 8.23065 145.944 8.32628C145.944 8.33584 145.934 8.36931 145.915 8.42668L141.368 18.3523C141.368 18.3714 141.392 18.3857 141.44 18.3953C141.497 18.4049 141.564 18.4144 141.641 18.424C141.727 18.4336 141.808 18.4383 141.884 18.4383C141.97 18.4383 142.042 18.4383 142.1 18.4383C142.702 18.4383 143.285 18.424 143.849 18.3953C144.414 18.3666 144.983 18.3523 145.556 18.3523C145.661 18.3523 145.752 18.3762 145.829 18.424C145.905 18.4718 145.944 18.5674 145.944 18.7109C145.944 18.73 145.934 18.7395 145.915 18.7395L144.108 22.5118C144.022 22.6935 143.869 22.837 143.649 22.9421C143.429 23.0473 143.161 23.1286 142.845 23.186C142.53 23.2338 142.176 23.2673 141.784 23.2864C141.401 23.2959 141.005 23.3007 140.593 23.3007H135.502Z" fill="#3B4758"/>
<path d="M149.558 23.3007C149.367 23.3007 149.161 23.2912 148.941 23.272C148.731 23.2529 148.535 23.2194 148.353 23.1716C148.181 23.1143 148.033 23.0425 147.909 22.9565C147.794 22.8704 147.736 22.7557 147.736 22.6122C147.736 22.6027 147.741 22.5883 147.751 22.5692C147.76 22.5501 147.765 22.531 147.765 22.5118L152.828 12.1273C152.427 12.1273 151.977 12.1368 151.48 12.1559C150.983 12.1655 150.481 12.1799 149.974 12.199C149.477 12.2085 148.999 12.2181 148.54 12.2277C148.09 12.2372 147.708 12.242 147.392 12.242C147.297 12.242 147.225 12.2133 147.177 12.1559C147.129 12.089 147.105 12.0173 147.105 11.9408V11.8834L148.554 8.42668C148.631 8.1685 148.774 8.00116 148.984 7.92466C149.195 7.84816 149.405 7.80992 149.615 7.80992C151.298 7.80992 152.948 7.8386 154.564 7.89598C156.189 7.95335 157.839 7.98204 159.512 7.98204C159.618 7.98204 159.723 8.0155 159.828 8.08244C159.943 8.14937 160 8.23065 160 8.32628C160 8.33584 159.99 8.36931 159.971 8.42668L155.424 18.3523C155.424 18.3714 155.448 18.3857 155.496 18.3953C155.554 18.4049 155.62 18.4144 155.697 18.424C155.783 18.4336 155.864 18.4383 155.941 18.4383C156.027 18.4383 156.099 18.4383 156.156 18.4383C156.758 18.4383 157.342 18.424 157.906 18.3953C158.47 18.3666 159.039 18.3523 159.613 18.3523C159.718 18.3523 159.809 18.3762 159.885 18.424C159.962 18.4718 160 18.5674 160 18.7109C160 18.73 159.99 18.7395 159.971 18.7395L158.164 22.5118C158.078 22.6935 157.925 22.837 157.705 22.9421C157.485 23.0473 157.217 23.1286 156.902 23.186C156.586 23.2338 156.232 23.2673 155.84 23.2864C155.458 23.2959 155.061 23.3007 154.65 23.3007H149.558Z" fill="#3B4758"/>
</svg>
