<svg width="160" height="80" viewBox="0 0 160 80" fill="none" xmlns="http://www.w3.org/2000/svg">
<path d="M0 29.4278V23.1542H9.24779V29.4278H0ZM0 56.8459V32.309H9.24779V56.8459H0Z" fill="#3B4758"/>
<path d="M43.2652 56.8459V45.321C43.2652 43.8959 43.3116 42.4398 43.4046 40.9527C43.5285 39.4346 43.6524 38.1644 43.7763 37.142C43.9003 36.1197 43.9777 35.4691 44.0087 35.1902H43.8228L37.921 56.8459H29.8814L23.9331 35.2367H23.7472C23.7782 35.5155 23.8556 36.1661 23.9796 37.1885C24.1345 38.1799 24.2739 39.4346 24.3978 40.9527C24.5217 42.4398 24.5837 43.8959 24.5837 45.321V56.8459H15.15V24.8736H29.6491L34.4821 43.3227H34.668L39.4545 24.8736H53.4424V56.8459H43.2652Z" fill="#3B4758"/>
<path d="M81.1084 56.8459L79.7607 52.3382H68.5612L67.2135 56.8459H56.711L68.3753 24.8736H80.3184L91.9827 56.8459H81.1084ZM70.6988 45.1816H77.6231L74.2771 33.7961H74.0912L70.6988 45.1816Z" fill="#3B4758"/>
<path d="M109.703 24.8736C120.887 24.8736 126.479 30.2023 126.479 40.8597C126.479 51.5172 120.887 56.8459 109.703 56.8459H95.8547V24.8736H109.703ZM106.125 49.1781H109.517C113.824 49.1781 115.977 46.87 115.977 42.2539V39.4656C115.977 34.8495 113.824 32.5414 109.517 32.5414H106.125V49.1781Z" fill="#3B4758"/>
<path d="M132.024 24.8736H159.675V32.5414H142.294V36.9562H157.165V44.2986H142.294V49.1781H160V56.8459H132.024V24.8736Z" fill="#3B4758"/>
</svg>
