<svg width="160" height="80" viewBox="0 0 160 80" fill="none" xmlns="http://www.w3.org/2000/svg">
<path d="M8.34996 26.6905C8.34996 26.9361 8.2681 27.1271 8.10437 27.2635C7.94065 27.3727 7.79057 27.5228 7.65413 27.7138C7.38126 27.9594 7.13567 28.2186 6.91737 28.4915C6.72636 28.7371 6.49441 28.9826 6.22154 29.2282C6.11239 29.3374 5.96231 29.4875 5.7713 29.6785C5.58028 29.8422 5.37563 30.0196 5.15733 30.2106C4.96632 30.3743 4.76166 30.5244 4.54336 30.6608C4.35235 30.7973 4.18862 30.8655 4.05219 30.8655C3.83389 30.8655 3.54737 30.7973 3.19263 30.6608C2.86518 30.4971 2.57866 30.388 2.33308 30.3334C2.14207 30.3061 1.9647 30.2924 1.80097 30.2924C1.66453 30.2652 1.5281 30.1833 1.39166 30.0469C0.900486 29.9377 0.58668 29.774 0.450243 29.5557C0.313806 29.3101 0.163725 29.0645 0 28.8189C0 28.7098 0.0409312 28.6416 0.122794 28.6143C0.204656 28.587 0.272875 28.5324 0.327449 28.4505C0.600324 28.0958 0.832267 27.8093 1.02328 27.591C1.21429 27.3454 1.43259 27.0998 1.67818 26.8542C2.14207 26.4449 2.57866 26.022 2.98798 25.5854C3.42458 25.1488 3.87482 24.7394 4.33871 24.3574C4.557 24.3301 4.72073 24.2483 4.82988 24.1118C4.93903 23.9754 5.10275 23.9072 5.32105 23.9072C5.53935 23.9072 5.71672 23.9754 5.85316 24.1118C6.01688 24.2483 6.15332 24.412 6.26247 24.603C6.39891 24.7667 6.5217 24.9441 6.63085 25.1351C6.76729 25.2988 6.91737 25.4216 7.08109 25.5035C7.27211 25.6399 7.53134 25.8173 7.85879 26.0356C8.18624 26.2539 8.34996 26.4722 8.34996 26.6905ZM2.74239 34.3037C2.9334 34.4129 3.06984 34.5629 3.1517 34.7539C3.26085 34.9177 3.41093 35.0405 3.60194 35.1223C3.76567 35.2042 3.94304 35.2451 4.13405 35.2451C4.32506 35.2451 4.48879 35.2724 4.62522 35.327C4.73437 35.3816 4.81624 35.4498 4.87081 35.5316C4.92539 35.6135 4.97996 35.6954 5.03454 35.7772C5.19826 35.9137 5.44385 36.0365 5.7713 36.1456C6.12603 36.2548 6.35798 36.3775 6.46713 36.514C6.65814 36.7596 6.79458 37.0734 6.87644 37.4554C6.98559 37.8374 7.06745 38.2467 7.12203 38.6833C7.1766 39.0926 7.21753 39.5156 7.24482 39.9522C7.27211 40.3615 7.31304 40.7163 7.36761 41.0164C7.42219 41.644 7.49041 42.2716 7.57227 42.8993C7.65413 43.4996 7.69506 44.1135 7.69506 44.7412C7.69506 45.3688 7.66778 46.01 7.6132 46.6649C7.55863 47.3198 7.53134 47.9611 7.53134 48.5887C7.53134 48.9161 7.51769 49.3254 7.49041 49.8166C7.49041 50.3078 7.38126 50.6898 7.16296 50.9627C7.13567 51.0718 7.12203 51.2629 7.12203 51.5357V52.8455C7.12203 53.0093 7.13567 53.173 7.16296 53.3367C7.19024 53.5004 7.20389 53.6778 7.20389 53.8688C7.20389 54.169 7.12203 54.3873 6.9583 54.5237C6.87644 54.4964 6.78093 54.4828 6.67178 54.4828C6.58992 54.4828 6.50806 54.4828 6.4262 54.4828C6.12603 54.4828 5.90773 54.5373 5.7713 54.6465C5.47113 54.6192 5.18462 54.5919 4.91174 54.5646C4.63887 54.5373 4.35235 54.5237 4.05219 54.5237C3.5883 54.5237 3.08348 54.5919 2.53773 54.7284C2.42858 54.4555 2.37401 54.169 2.37401 53.8688C2.4013 53.5686 2.34672 53.2958 2.21028 53.0502C2.183 52.9683 2.15571 52.9001 2.12842 52.8455C2.12842 52.7637 2.12842 52.6818 2.12842 52.5999C2.21028 52.2725 2.25122 52.0542 2.25122 51.945C2.25122 51.8086 2.25122 51.6722 2.25122 51.5357C2.25122 51.1537 2.23757 50.7717 2.21028 50.3897C2.183 49.9803 2.19664 49.5847 2.25122 49.2027C2.25122 49.0662 2.26486 48.9434 2.29215 48.8343C2.34672 48.7251 2.37401 48.6023 2.37401 48.4659C2.37401 48.3295 2.34672 48.2339 2.29215 48.1794C2.23757 48.1248 2.21028 48.0566 2.21028 47.9747C2.21028 47.8929 2.21028 47.7564 2.21028 47.5654C2.23757 47.3744 2.2785 47.2516 2.33308 47.197C2.33308 46.9787 2.33308 46.7741 2.33308 46.5831C2.36036 46.3648 2.37401 46.1601 2.37401 45.9691C2.37401 45.5325 2.36036 45.0959 2.33308 44.6593C2.30579 44.2227 2.29215 43.7997 2.29215 43.3904C2.29215 43.1994 2.2785 43.0766 2.25122 43.022C2.22393 42.9675 2.19664 42.9265 2.16935 42.8993C2.14207 42.872 2.10113 42.8583 2.04656 42.8583C1.99198 42.831 1.95105 42.7765 1.92377 42.6946C2.03292 41.4939 1.99198 40.2933 1.80097 39.0926C1.60996 37.892 1.51445 36.6777 1.51445 35.4498C1.51445 35.2588 1.54174 35.1223 1.59632 35.0405C1.65089 34.9313 1.71911 34.8495 1.80097 34.7949C1.88283 34.7403 1.95105 34.6857 2.00563 34.6312C2.08749 34.5493 2.14207 34.4401 2.16935 34.3037C2.38765 34.3583 2.57866 34.3583 2.74239 34.3037Z" fill="#BAC4D1"/>
<path d="M25.9504 23.989C26.387 23.9345 26.7144 23.9754 26.9327 24.1118C27.1783 24.221 27.4239 24.2892 27.6695 24.3165C27.8059 24.3438 27.9424 24.3574 28.0788 24.3574C28.2425 24.3301 28.4062 24.3165 28.57 24.3165C28.9247 24.3165 29.1976 24.3574 29.3886 24.4393C29.6069 24.5211 29.8252 24.6985 30.0435 24.9714C30.0981 25.026 30.1663 25.1078 30.2481 25.217C30.3573 25.2988 30.4119 25.3807 30.4119 25.4626C30.4119 25.6809 30.3573 25.8719 30.2481 26.0356C30.139 26.1993 30.0844 26.4313 30.0844 26.7314C30.0844 27.1953 30.139 27.6592 30.2481 28.1231C30.3573 28.5597 30.4255 29.0099 30.4528 29.4738C30.5892 31.1656 30.6575 32.8711 30.6575 34.5902C30.6847 36.282 30.6984 37.9602 30.6984 39.6248C30.6984 39.8431 30.6847 40.0477 30.6575 40.2387C30.6575 40.4024 30.6029 40.5525 30.4937 40.689V41.2211C30.4664 41.9305 30.4801 42.6537 30.5347 43.3904C30.5892 44.0999 30.6165 44.8094 30.6165 45.5188C30.6165 46.1465 30.5756 46.7741 30.4937 47.4017C30.4392 48.0293 30.4119 48.6705 30.4119 49.3254C30.4119 49.9258 30.4528 50.5124 30.5347 51.0855C30.6165 51.6585 30.6575 52.2452 30.6575 52.8455C30.521 53.0911 30.4392 53.2821 30.4119 53.4186C30.3846 53.555 30.33 53.6778 30.2481 53.7869C30.1663 53.8415 30.0708 53.8552 29.9616 53.8279C29.8798 53.8006 29.8115 53.8279 29.757 53.9097C29.6205 54.0735 29.525 54.2645 29.4705 54.4828C29.4159 54.7011 29.2794 54.8784 29.0611 55.0149C29.0066 55.3969 28.8565 55.6834 28.6109 55.8744C28.3926 56.0927 28.2289 56.3656 28.1197 56.6931C27.7923 56.7203 27.5603 56.7067 27.4239 56.6521C27.3147 56.5976 27.1919 56.543 27.0555 56.4884C27.0282 56.0245 27.0282 55.6834 27.0555 55.4651C27.1101 55.2741 27.1374 55.0695 27.1374 54.8512C27.1374 54.5783 27.0692 54.3736 26.9327 54.2372C26.7963 54.1007 26.7008 53.9234 26.6462 53.7051C26.346 53.5141 26.1414 53.3913 26.0322 53.3367C25.9231 53.2548 25.8276 53.1593 25.7457 53.0502C25.582 52.8319 25.4456 52.5999 25.3364 52.3544C25.2273 52.1088 25.1045 51.8768 24.968 51.6585C24.586 51.0309 24.1903 50.3897 23.781 49.7348C23.399 49.0799 22.976 48.4386 22.5122 47.811C22.4303 47.6746 22.3348 47.5518 22.2256 47.4426C22.1165 47.3335 22.021 47.2107 21.9391 47.0742C21.4752 46.3375 21.0386 45.5871 20.6293 44.823C20.22 44.059 19.7425 43.3358 19.1967 42.6537C18.9784 42.3808 18.8147 42.0806 18.7056 41.7532C18.5964 41.3984 18.4327 41.0983 18.2144 40.8527C18.1871 40.9891 18.1734 41.1392 18.1734 41.3029C18.1734 41.4667 18.1734 41.6167 18.1734 41.7532C18.1734 42.681 18.1871 43.6087 18.2144 44.5365C18.269 45.437 18.2962 46.3511 18.2962 47.2789C18.2962 47.4699 18.269 47.6473 18.2144 47.811C18.1871 47.9474 18.1734 48.1112 18.1734 48.3022C18.1734 48.575 18.1871 48.8343 18.2144 49.0799C18.2417 49.3254 18.2553 49.571 18.2553 49.8166C18.2553 50.1168 18.2417 50.4033 18.2144 50.6762C18.2144 50.949 18.2007 51.2219 18.1734 51.4948C18.1189 51.8495 18.0507 52.1906 17.9688 52.5181C17.8869 52.8182 17.846 53.132 17.846 53.4595C17.846 53.6505 17.8596 53.8279 17.8869 53.9916C17.9415 54.1553 17.9688 54.3054 17.9688 54.4418C17.7778 54.742 17.5322 54.8921 17.232 54.8921C16.9592 54.8921 16.7272 55.0012 16.5362 55.2195C16.3725 55.1922 16.236 55.2059 16.1269 55.2605C16.045 55.315 15.9632 55.3423 15.8813 55.3423C15.7721 55.3423 15.6766 55.3287 15.5948 55.3014C15.5402 55.2741 15.472 55.2605 15.3901 55.2605C15.2537 55.2605 15.1173 55.3287 14.9808 55.4651C14.8444 55.6016 14.7079 55.6698 14.5715 55.6698C14.4896 55.6698 14.3396 55.6152 14.1213 55.5061C13.9302 55.3969 13.7119 55.2605 13.4664 55.0967C13.2481 54.9603 13.0434 54.8102 12.8524 54.6465C12.6614 54.5101 12.5659 54.4009 12.5659 54.319C12.5386 54.1826 12.5249 53.9916 12.5249 53.746C12.5249 53.4186 12.5386 53.1048 12.5659 52.8046C12.6204 52.4771 12.675 52.1497 12.7296 51.8222C12.8115 50.8945 12.8524 49.9803 12.8524 49.0799C12.8524 48.1521 12.8524 47.2243 12.8524 46.2965C12.8524 45.9145 12.8524 45.5325 12.8524 45.1505C12.8797 44.7684 12.8933 44.3864 12.8933 44.0044C12.8933 43.1039 12.8524 42.2034 12.7705 41.3029C12.716 40.3752 12.6887 39.461 12.6887 38.5605C12.6887 37.9329 12.716 37.319 12.7705 36.7186C12.8251 36.091 12.8524 35.4771 12.8524 34.8767C12.8524 34.4129 12.8387 33.9626 12.8115 33.526C12.7842 33.0894 12.7705 32.6392 12.7705 32.1753C12.7432 31.8751 12.7432 31.5613 12.7705 31.2339C12.7978 30.8791 12.8115 30.5517 12.8115 30.2515C12.8115 29.8968 12.7569 29.5693 12.6477 29.2692C12.5659 28.9417 12.5249 28.6416 12.5249 28.3687C12.5249 28.205 12.5522 28.0549 12.6068 27.9184C12.6887 27.7547 12.7296 27.591 12.7296 27.4273C12.7296 27.209 12.6887 26.9907 12.6068 26.7724C12.5522 26.5541 12.5249 26.3358 12.5249 26.1175C12.5249 25.8992 12.5522 25.6945 12.6068 25.5035C12.6614 25.3125 12.6887 25.1078 12.6887 24.8895C13.0707 24.6985 13.4118 24.603 13.7119 24.603C14.0121 24.603 14.2304 24.7122 14.3668 24.9305C14.3668 25.4216 14.3941 25.8037 14.4487 26.0765C14.5033 26.3221 14.5442 26.5814 14.5715 26.8542C14.5715 27.018 14.5579 27.209 14.5306 27.4273C14.5306 27.6456 14.5442 27.8639 14.5715 28.0822C14.5988 28.2732 14.6534 28.4369 14.7352 28.5733C14.8444 28.7098 15.0217 28.778 15.2673 28.778C15.3219 28.9144 15.3901 29.0372 15.472 29.1464C15.5539 29.2555 15.6084 29.392 15.6357 29.5557C15.7994 29.4465 15.8949 29.2965 15.9222 29.1054C15.9495 28.9144 15.9495 28.7371 15.9222 28.5733C16.0587 28.6279 16.1815 28.6552 16.2906 28.6552C16.3998 28.6279 16.5089 28.6416 16.6181 28.6961C16.6726 29.0782 16.7409 29.4192 16.8227 29.7194C16.9046 29.9923 16.9319 30.3197 16.9046 30.7018C17.4503 31.1111 17.9142 31.6977 18.2962 32.4618C18.7056 33.1986 19.0876 33.8671 19.4423 34.4674C19.6333 34.7676 19.8516 35.0541 20.0972 35.327C20.3701 35.5726 20.5747 35.8727 20.7112 36.2275C20.9295 36.3639 21.1068 36.5413 21.2433 36.7596C21.3797 36.9779 21.5025 37.1962 21.6117 37.4145C22.1574 38.3695 22.7577 39.2973 23.4126 40.1978C24.0675 41.0983 24.7497 41.9851 25.4592 42.8583C25.4865 42.6673 25.5001 42.4899 25.5001 42.3262C25.5001 42.1352 25.5001 41.9442 25.5001 41.7532L25.4592 38.0694C25.4592 37.8511 25.4456 37.6464 25.4183 37.4554C25.4183 37.2644 25.4046 37.0597 25.3773 36.8414C25.3228 36.132 25.3091 35.4361 25.3364 34.7539C25.3637 34.0718 25.3637 33.3759 25.3364 32.6665C25.2818 31.9297 25.2409 31.1793 25.2136 30.4152C25.2136 29.6512 25.1863 28.8871 25.1317 28.1231C25.1045 27.6592 25.0772 27.1953 25.0499 26.7314C25.0226 26.2675 25.009 25.8037 25.009 25.3398C25.009 24.7667 25.0635 24.2483 25.1727 23.7844C25.2273 23.7298 25.2818 23.6889 25.3364 23.6616C25.4183 23.607 25.5138 23.5797 25.6229 23.5797C25.7866 23.5797 25.8958 23.7162 25.9504 23.989Z" fill="#BAC4D1"/>
<path d="M35.8557 55.0149C35.7466 54.9057 35.692 54.7556 35.692 54.5646C35.692 54.4282 35.692 54.319 35.692 54.2372C35.7193 54.128 35.7466 54.0052 35.7739 53.8688C35.9103 53.2412 35.9785 52.6136 35.9785 51.986C35.9785 51.3311 36.0058 50.6898 36.0604 50.0622C36.0877 49.6802 36.1013 49.2982 36.1013 48.9161C36.1286 48.5341 36.1422 48.1521 36.1422 47.7701C36.1422 45.5052 36.074 43.254 35.9376 41.0164C35.8011 38.7516 35.7329 36.4731 35.7329 34.1809C35.7329 32.5982 35.7602 31.0156 35.8148 29.4329C35.8694 27.8229 35.9103 26.213 35.9376 24.603C36.1832 24.4666 36.4833 24.412 36.8381 24.4393C37.1928 24.4666 37.4793 24.3438 37.6976 24.0709C37.8341 24.0436 37.9705 24.0436 38.1069 24.0709C38.2434 24.0709 38.3798 24.0709 38.5162 24.0709C38.8164 24.0709 39.1029 23.9754 39.3758 23.7844C39.6487 23.5934 39.9488 23.4297 40.2763 23.2932C40.44 23.3478 40.5492 23.3751 40.6037 23.3751C40.6856 23.3478 40.7675 23.3341 40.8493 23.3341C40.9312 23.3341 41.1086 23.4297 41.3814 23.6207C41.6543 23.8117 41.9545 24.03 42.2819 24.2756C42.6094 24.5211 42.9095 24.7531 43.1824 24.9714C43.4826 25.1897 43.6736 25.3261 43.7554 25.3807C44.4376 25.8992 45.0379 26.4722 45.5564 27.0998C46.1022 27.7001 46.6343 28.3141 47.1527 28.9417C47.6439 29.5693 48.176 30.2106 48.749 30.8655C49.3221 31.4931 49.8815 32.0798 50.4272 32.6255C50.6182 32.8438 50.8092 33.0348 51.0003 33.1986C51.2186 33.3623 51.4232 33.5533 51.6142 33.7716C51.6961 33.8807 51.7643 34.0035 51.8189 34.14C51.9007 34.2491 51.9826 34.3719 52.0645 34.5084C52.2282 34.6994 52.4192 34.8631 52.6375 34.9995C52.8558 35.136 53.0605 35.2997 53.2515 35.4907C53.3879 35.5999 53.5926 35.8182 53.8654 36.1456C54.1383 36.4731 54.2747 36.7186 54.2747 36.8824C54.2747 36.9915 54.2475 37.087 54.1929 37.1689C54.1383 37.2507 54.0837 37.3463 54.0292 37.4554C54.0019 37.5373 53.9882 37.6601 53.9882 37.8238C53.9882 37.9875 53.9746 38.0967 53.9473 38.1512C53.6744 38.3695 53.5243 38.506 53.4971 38.5605C53.4698 38.6151 53.4288 38.6697 53.3743 38.7243C53.2924 38.8334 53.1833 38.9289 53.0468 39.0108C52.9377 39.0654 52.8558 39.1609 52.8012 39.2973C52.7467 39.3792 52.7194 39.461 52.7194 39.5429C52.7467 39.6248 52.733 39.7203 52.6784 39.8294C52.542 40.1296 52.3237 40.4161 52.0235 40.689C51.7234 40.9618 51.4641 41.262 51.2458 41.5895C50.9457 42.0806 50.6455 42.5718 50.3454 43.063C50.0452 43.5541 49.7041 44.0317 49.3221 44.4956C49.1584 44.7139 48.981 44.9322 48.79 45.1505C48.6262 45.3415 48.4625 45.5461 48.2988 45.7644C48.1624 45.9282 48.0396 46.1055 47.9304 46.2965C47.8213 46.4603 47.6985 46.6513 47.562 46.8696C47.2619 47.2516 46.9754 47.6336 46.7025 48.0156C46.4296 48.3704 46.1431 48.7388 45.8429 49.1208C45.5155 49.5847 45.1607 50.0486 44.7787 50.5124C44.3967 50.949 44.0556 51.3993 43.7554 51.8632C43.4553 52.3544 43.1415 52.8046 42.814 53.2139C42.4866 53.6232 42.1318 54.0189 41.7498 54.4009C41.6407 54.4828 41.5042 54.6056 41.3405 54.7693C41.1768 54.933 41.013 55.0149 40.8493 55.0149C40.7402 55.0149 40.6447 54.9739 40.5628 54.8921C40.5082 54.8102 40.4127 54.7693 40.2763 54.7693C40.249 54.7693 40.1671 54.7829 40.0307 54.8102C39.8943 54.8375 39.7305 54.8648 39.5395 54.8921L38.8028 54.9739C38.3662 55.1922 38.0524 55.2878 37.8613 55.2605C37.6703 55.2605 37.4793 55.2741 37.2883 55.3014C37.1792 55.3287 37.0837 55.3696 37.0018 55.4242C36.9472 55.4788 36.879 55.5061 36.7971 55.5061C36.6061 55.5061 36.456 55.4105 36.3469 55.2195C36.2377 55.0558 36.074 54.9876 35.8557 55.0149ZM48.1351 37.3326C48.1351 37.1962 47.9986 37.0052 47.7258 36.7596C47.4802 36.514 47.2892 36.3366 47.1527 36.2275C46.9617 36.0637 46.7298 35.9137 46.4569 35.7772C46.2113 35.6135 46.0066 35.4361 45.8429 35.2451C45.7065 35.0814 45.5701 34.9177 45.4336 34.7539C45.3245 34.5629 45.2017 34.3856 45.0652 34.2218C44.5741 33.6761 44.0692 33.1303 43.5508 32.5846C43.0596 32.0388 42.623 31.4385 42.241 30.7836C41.9954 30.6199 41.7635 30.4289 41.5452 30.2106C41.3269 29.9923 41.0676 29.8149 40.7675 29.6785C40.7129 29.8422 40.6856 30.0196 40.6856 30.2106C40.7129 30.3743 40.7265 30.538 40.7265 30.7018C40.7265 31.3294 40.6992 31.9433 40.6447 32.5437C40.5901 33.144 40.5628 33.7443 40.5628 34.3446C40.5628 35.8182 40.5901 37.278 40.6447 38.7243C40.7265 40.1432 40.7675 41.5758 40.7675 43.022C40.7675 43.5678 40.7675 44.1135 40.7675 44.6593C40.7947 45.205 40.8493 45.7508 40.9312 46.2965C40.8766 46.4603 40.8493 46.6103 40.8493 46.7468C40.8493 46.8832 40.8766 47.0606 40.9312 47.2789C41.1495 47.1424 41.3269 46.9787 41.4633 46.7877C41.627 46.5694 41.7771 46.3648 41.9135 46.1737C42.3774 45.5734 42.8277 44.9731 43.2643 44.3728C43.7281 43.7452 44.192 43.1175 44.6559 42.4899C44.9561 42.0806 45.2562 41.685 45.5564 41.3029C45.8839 40.8936 46.1977 40.4707 46.4978 40.0341C46.5797 39.9249 46.7025 39.7339 46.8662 39.461C47.0572 39.1882 47.2346 38.9153 47.3983 38.6424C47.5893 38.3422 47.753 38.0694 47.8895 37.8238C48.0532 37.5782 48.1351 37.4145 48.1351 37.3326Z" fill="#BAC4D1"/>
<path d="M63.034 26.6905C63.034 26.9361 62.9522 27.1271 62.7884 27.2635C62.6247 27.3727 62.4746 27.5228 62.3382 27.7138C62.0653 27.9594 61.8197 28.2186 61.6014 28.4915C61.4104 28.7371 61.1785 28.9826 60.9056 29.2282C60.7965 29.3374 60.6464 29.4875 60.4554 29.6785C60.2643 29.8422 60.0597 30.0196 59.8414 30.2106C59.6504 30.3743 59.4457 30.5244 59.2274 30.6608C59.0364 30.7973 58.8727 30.8655 58.7362 30.8655C58.5179 30.8655 58.2314 30.7973 57.8767 30.6608C57.5492 30.4971 57.2627 30.388 57.0171 30.3334C56.8261 30.3061 56.6488 30.2924 56.485 30.2924C56.3486 30.2652 56.2122 30.1833 56.0757 30.0469C55.5845 29.9377 55.2707 29.774 55.1343 29.5557C54.9979 29.3101 54.8478 29.0645 54.6841 28.8189C54.6841 28.7098 54.725 28.6416 54.8069 28.6143C54.8887 28.587 54.9569 28.5324 55.0115 28.4505C55.2844 28.0958 55.5163 27.8093 55.7073 27.591C55.8984 27.3454 56.1167 27.0998 56.3622 26.8542C56.8261 26.4449 57.2627 26.022 57.672 25.5854C58.1086 25.1488 58.5589 24.7394 59.0228 24.3574C59.2411 24.3301 59.4048 24.2483 59.5139 24.1118C59.6231 23.9754 59.7868 23.9072 60.0051 23.9072C60.2234 23.9072 60.4008 23.9754 60.5372 24.1118C60.7009 24.2483 60.8374 24.412 60.9465 24.603C61.083 24.7667 61.2058 24.9441 61.3149 25.1351C61.4514 25.2988 61.6014 25.4216 61.7652 25.5035C61.9562 25.6399 62.2154 25.8173 62.5429 26.0356C62.8703 26.2539 63.034 26.4722 63.034 26.6905ZM57.4265 34.3037C57.6175 34.4129 57.7539 34.5629 57.8358 34.7539C57.9449 34.9177 58.095 35.0405 58.286 35.1223C58.4497 35.2042 58.6271 35.2451 58.8181 35.2451C59.0091 35.2451 59.1728 35.2724 59.3093 35.327C59.4184 35.3816 59.5003 35.4498 59.5549 35.5316C59.6094 35.6135 59.664 35.6954 59.7186 35.7772C59.8823 35.9137 60.1279 36.0365 60.4554 36.1456C60.8101 36.2548 61.042 36.3775 61.1512 36.514C61.3422 36.7596 61.4786 37.0734 61.5605 37.4554C61.6697 37.8374 61.7515 38.2467 61.8061 38.6833C61.8607 39.0926 61.9016 39.5156 61.9289 39.9522C61.9562 40.3615 61.9971 40.7163 62.0517 41.0164C62.1063 41.644 62.1745 42.2716 62.2563 42.8993C62.3382 43.4996 62.3791 44.1135 62.3791 44.7412C62.3791 45.3688 62.3518 46.01 62.2973 46.6649C62.2427 47.3198 62.2154 47.9611 62.2154 48.5887C62.2154 48.9161 62.2018 49.3254 62.1745 49.8166C62.1745 50.3078 62.0653 50.6898 61.847 50.9627C61.8197 51.0718 61.8061 51.2629 61.8061 51.5357V52.8455C61.8061 53.0093 61.8197 53.173 61.847 53.3367C61.8743 53.5004 61.888 53.6778 61.888 53.8688C61.888 54.169 61.8061 54.3873 61.6424 54.5237C61.5605 54.4964 61.465 54.4828 61.3558 54.4828C61.274 54.4828 61.1921 54.4828 61.1103 54.4828C60.8101 54.4828 60.5918 54.5373 60.4554 54.6465C60.1552 54.6192 59.8687 54.5919 59.5958 54.5646C59.3229 54.5373 59.0364 54.5237 58.7362 54.5237C58.2724 54.5237 57.7675 54.5919 57.2218 54.7284C57.1126 54.4555 57.0581 54.169 57.0581 53.8688C57.0854 53.5686 57.0308 53.2958 56.8943 53.0502C56.8671 52.9683 56.8398 52.9001 56.8125 52.8455C56.8125 52.7637 56.8125 52.6818 56.8125 52.5999C56.8943 52.2725 56.9353 52.0542 56.9353 51.945C56.9353 51.8086 56.9353 51.6722 56.9353 51.5357C56.9353 51.1537 56.9216 50.7717 56.8943 50.3897C56.8671 49.9803 56.8807 49.5847 56.9353 49.2027C56.9353 49.0662 56.9489 48.9434 56.9762 48.8343C57.0308 48.7251 57.0581 48.6023 57.0581 48.4659C57.0581 48.3295 57.0308 48.2339 56.9762 48.1794C56.9216 48.1248 56.8943 48.0566 56.8943 47.9747C56.8943 47.8929 56.8943 47.7564 56.8943 47.5654C56.9216 47.3744 56.9626 47.2516 57.0171 47.197C57.0171 46.9787 57.0171 46.7741 57.0171 46.5831C57.0444 46.3648 57.0581 46.1601 57.0581 45.9691C57.0581 45.5325 57.0444 45.0959 57.0171 44.6593C56.9899 44.2227 56.9762 43.7997 56.9762 43.3904C56.9762 43.1994 56.9626 43.0766 56.9353 43.022C56.908 42.9675 56.8807 42.9265 56.8534 42.8993C56.8261 42.872 56.7852 42.8583 56.7306 42.8583C56.676 42.831 56.6351 42.7765 56.6078 42.6946C56.717 41.4939 56.676 40.2933 56.485 39.0926C56.294 37.892 56.1985 36.6777 56.1985 35.4498C56.1985 35.2588 56.2258 35.1223 56.2804 35.0405C56.335 34.9313 56.4032 34.8495 56.485 34.7949C56.5669 34.7403 56.6351 34.6857 56.6897 34.6312C56.7716 34.5493 56.8261 34.4401 56.8534 34.3037C57.0717 34.3583 57.2627 34.3583 57.4265 34.3037Z" fill="#BAC4D1"/>
<path d="M73.2259 43.7997C73.2805 43.9362 73.4715 44.2227 73.7989 44.6593C74.1537 45.0959 74.5493 45.5734 74.9859 46.0919C75.4225 46.6103 75.8318 47.1152 76.2139 47.6063C76.6232 48.0702 76.9097 48.4113 77.0734 48.6296C77.3736 49.0116 77.6601 49.3937 77.933 49.7757C78.2331 50.1304 78.506 50.5124 78.7516 50.9218L79.4884 52.1497C79.7067 52.4226 79.8977 52.6545 80.0614 52.8455C80.2524 53.0365 80.4025 53.2958 80.5116 53.6232C80.5662 53.8415 80.5935 53.9916 80.5935 54.0735C80.5935 54.2645 80.5253 54.4009 80.3888 54.4828C80.1705 54.4828 80.0478 54.5101 80.0205 54.5646C80.0205 54.6465 79.9659 54.7147 79.8567 54.7693C79.7476 54.8239 79.5702 54.8512 79.3246 54.8512C79.1063 54.8784 78.929 54.8921 78.7925 54.8921C78.5469 54.8921 78.2331 54.8784 77.8511 54.8512C77.4964 54.8512 77.2099 54.8921 76.9916 54.9739C76.937 55.0012 76.8551 55.0422 76.746 55.0967C76.6368 55.1513 76.555 55.1786 76.5004 55.1786C76.2821 55.1786 76.1184 55.1377 76.0092 55.0558C75.9273 55.0012 75.8046 54.9603 75.6408 54.933C75.4225 54.6874 75.2315 54.4418 75.0678 54.1963C74.9314 53.9234 74.7676 53.6505 74.5766 53.3776C74.3856 53.1866 74.1946 53.0229 74.0036 52.8865C73.8126 52.7227 73.6488 52.5454 73.5124 52.3544C73.1031 51.754 72.6801 51.1673 72.2435 50.5943C71.8069 50.0213 71.3567 49.4619 70.8928 48.9161C70.6745 48.616 70.4426 48.3431 70.197 48.0975C69.9514 47.8519 69.7195 47.579 69.5012 47.2789C69.2829 47.006 69.0782 46.7195 68.8872 46.4193C68.6962 46.0919 68.5052 45.7781 68.3141 45.4779C68.1504 45.2323 67.9321 44.9185 67.6592 44.5365C67.3864 44.1272 67.0862 43.7315 66.7588 43.3495C66.4313 42.9402 66.1039 42.5582 65.7764 42.2034C65.449 41.8487 65.1761 41.5758 64.9578 41.3848C64.9305 41.2211 64.8623 41.0983 64.7531 41.0164C64.644 40.9073 64.5212 40.8118 64.3848 40.7299C64.3302 40.5935 64.2756 40.4707 64.221 40.3615C64.1392 40.2251 64.0982 40.0886 64.0982 39.9522C64.0982 39.7612 64.1392 39.5838 64.221 39.4201C64.2756 39.3109 64.3165 39.2154 64.3438 39.1336C64.3438 39.0244 64.3711 38.9153 64.4257 38.8061C64.5621 38.506 64.7395 38.2195 64.9578 37.9466C65.2034 37.6464 65.3944 37.3326 65.5308 37.0052C65.5854 36.9233 65.6127 36.8414 65.6127 36.7596C65.6127 36.6504 65.64 36.5549 65.6945 36.4731C65.7491 36.2548 65.8583 36.0774 66.022 35.9409C66.213 35.7772 66.3631 35.5999 66.4722 35.4088C66.6087 35.1905 66.7315 34.9722 66.8406 34.7539C66.9771 34.5084 67.1135 34.2491 67.2499 33.9763C67.6592 33.2941 68.0822 32.6392 68.5188 32.0116C68.9827 31.3567 69.4466 30.7018 69.9105 30.0469C70.2652 29.5011 70.6063 28.9826 70.9337 28.4915C71.2885 27.973 71.6432 27.4545 71.998 26.9361C72.189 26.6905 72.3936 26.404 72.6119 26.0765C72.8302 25.7491 73.0622 25.4216 73.3077 25.0942C73.5806 24.7667 73.8535 24.4666 74.1264 24.1937C74.3992 23.9208 74.6721 23.7025 74.945 23.5388C75.3543 23.5115 75.6272 23.607 75.7636 23.8253C75.9001 24.0163 76.1047 24.1118 76.3776 24.1118C76.7323 24.1937 76.9643 24.3028 77.0734 24.4393C77.1826 24.5757 77.3054 24.7122 77.4418 24.8486C77.8238 24.8486 78.124 24.9168 78.3423 25.0533C78.5879 25.1897 78.8198 25.3943 79.0381 25.6672C78.9563 25.9674 78.8335 26.2403 78.6697 26.4858C78.506 26.7041 78.3559 26.9361 78.2195 27.1817C78.0012 27.2908 77.8375 27.4409 77.7283 27.6319C77.6465 27.8229 77.51 27.973 77.319 28.0822C77.0461 28.546 76.7596 28.9963 76.4594 29.4329C76.1593 29.8422 75.8591 30.2515 75.559 30.6608C75.3952 30.9064 75.2179 31.1247 75.0269 31.3157C74.8631 31.5067 74.7131 31.7114 74.5766 31.9297C74.522 32.0116 74.4675 32.1071 74.4129 32.2162C74.3856 32.2981 74.3447 32.3799 74.2901 32.4618C73.9626 32.9803 73.6079 33.4714 73.2259 33.9353C72.8439 34.3719 72.4891 34.8631 72.1617 35.4088C72.0525 35.5999 71.957 35.8045 71.8752 36.0228C71.8206 36.2138 71.7387 36.4048 71.6296 36.5958C71.5204 36.7596 71.3567 36.9779 71.1384 37.2507C70.9474 37.5236 70.7564 37.8238 70.5654 38.1512C70.3744 38.4514 70.197 38.7516 70.0333 39.0517C69.8968 39.3246 69.8286 39.5565 69.8286 39.7475C69.8559 39.884 70.0196 40.1569 70.3198 40.5662C70.6472 40.9482 71.002 41.3712 71.384 41.835C71.7933 42.2716 72.1753 42.6946 72.5301 43.1039C72.8848 43.4859 73.1167 43.7179 73.2259 43.7997ZM75.9273 36.3503C76.1184 36.7596 76.323 37.1143 76.5413 37.4145C76.6232 37.5236 76.7187 37.6191 76.8278 37.701C76.937 37.7829 77.0188 37.892 77.0734 38.0284C77.128 38.083 77.1826 38.2058 77.2371 38.3968C77.2917 38.5605 77.3463 38.6833 77.4009 38.7652C77.4827 38.9835 77.6465 39.2291 77.892 39.502C78.1376 39.7748 78.2604 40.0204 78.2604 40.2387C78.2604 40.3752 78.2331 40.5252 78.1786 40.689C78.124 40.8527 78.0831 41.0028 78.0558 41.1392C78.0285 41.3029 78.0148 41.4803 78.0148 41.6713C78.0148 41.835 77.9603 41.9851 77.8511 42.1216C77.7147 42.258 77.5646 42.3399 77.4009 42.3671C77.2371 42.3944 77.0871 42.4627 76.9506 42.5718C76.896 42.6264 76.8142 42.7219 76.705 42.8583C76.5959 42.9948 76.4867 43.1448 76.3776 43.3086C76.2684 43.4723 76.1593 43.636 76.0501 43.7997C75.9683 43.9362 75.9273 44.0453 75.9273 44.1272C75.5999 44.1545 75.3816 44.1681 75.2724 44.1681C75.1906 44.1408 75.0951 44.1408 74.9859 44.1681C74.8495 44.0317 74.6994 43.9225 74.5357 43.8407C74.3992 43.7315 74.2219 43.636 74.0036 43.5541C73.949 43.3358 73.8262 43.0903 73.6352 42.8174C73.4442 42.5172 73.2805 42.2716 73.144 42.0806L72.8575 41.7122C72.4482 41.1392 72.0662 40.5935 71.7114 40.075C71.384 39.5292 71.1384 38.9289 70.9747 38.274C71.4931 37.892 71.8888 37.6055 72.1617 37.4145C72.4618 37.2235 72.7756 37.0461 73.1031 36.8824C73.4305 36.7186 73.7443 36.5686 74.0445 36.4321C74.372 36.2684 74.6721 36.0774 74.945 35.8591C75.1633 35.8591 75.3134 35.8727 75.3952 35.9C75.4771 35.9273 75.5317 35.9546 75.559 35.9819C75.5863 36.0092 75.6135 36.0637 75.6408 36.1456C75.6954 36.2002 75.7909 36.2684 75.9273 36.3503Z" fill="#BAC4D1"/>
<path d="M95.8199 23.2932C95.8472 23.3751 95.97 23.4706 96.1883 23.5797C96.4339 23.6889 96.584 23.7435 96.6385 23.7435C97.0205 23.6889 97.2388 23.7025 97.2934 23.7844C97.3753 23.839 97.4571 23.9072 97.539 23.989C97.6482 23.9345 97.73 23.8799 97.7846 23.8253C97.8665 23.7435 97.9756 23.7025 98.112 23.7025C98.2485 23.7844 98.3303 23.9072 98.3576 24.0709C98.4122 24.2073 98.4804 24.3438 98.5623 24.4802C98.535 24.835 98.535 25.0669 98.5623 25.176C98.5896 25.2579 98.6032 25.3534 98.6032 25.4626C98.6032 25.8719 98.4804 26.3221 98.2348 26.8133C97.9893 27.2772 97.8119 27.7138 97.7027 28.1231C97.5663 28.2595 97.4708 28.4096 97.4162 28.5733C97.3889 28.7371 97.3207 28.8871 97.2116 29.0236C97.1297 29.2965 97.0069 29.542 96.8432 29.7603C96.6795 29.9514 96.5703 30.1833 96.5157 30.4562C96.4884 30.4835 96.4202 30.579 96.3111 30.7427C96.2292 30.9064 96.1337 31.0838 96.0246 31.2748C95.9154 31.4658 95.8063 31.6568 95.6971 31.8478C95.6152 32.0388 95.5607 32.1616 95.5334 32.2162C95.4515 32.3526 95.3833 32.4891 95.3287 32.6255C95.3014 32.7347 95.2469 32.8438 95.165 32.953C95.1104 33.1167 95.0149 33.3214 94.8785 33.5669C94.7693 33.7852 94.6329 34.0172 94.4692 34.2628C94.3327 34.5084 94.2099 34.7539 94.1008 34.9995C93.9916 35.2178 93.9371 35.3816 93.9371 35.4907C93.7461 35.709 93.6369 35.9546 93.6096 36.2275C92.8729 37.6191 92.218 39.0517 91.6449 40.5252C91.0719 41.9715 90.4579 43.4041 89.803 44.823C89.7484 45.0686 89.7075 45.2187 89.6802 45.2733C89.6802 45.3278 89.6529 45.3688 89.5984 45.3961C89.5165 45.5871 89.421 45.7781 89.3118 45.9691C89.2027 46.1328 89.1208 46.3102 89.0663 46.5012C88.9571 46.8014 88.8616 47.0879 88.7797 47.3607C88.7252 47.6063 88.6024 47.8656 88.4114 48.1384C88.3841 48.3022 88.3295 48.4659 88.2476 48.6296C88.1658 48.7661 88.1385 48.9161 88.1658 49.0799C88.2476 49.1617 88.3704 49.2163 88.5341 49.2436C88.7252 49.2436 88.8752 49.2436 88.9844 49.2436C89.1481 49.2436 89.3118 49.2436 89.4756 49.2436C89.6393 49.2163 89.803 49.2027 89.9667 49.2027C90.1305 49.2027 90.2805 49.2163 90.417 49.2436C90.5534 49.2436 90.6899 49.2436 90.8263 49.2436H91.8496C91.9587 49.2436 92.0542 49.2572 92.1361 49.2845C92.2452 49.2845 92.3408 49.2845 92.4226 49.2845C92.7228 49.2845 93.0366 49.2709 93.364 49.2436C93.7188 49.2163 94.0599 49.2027 94.3873 49.2027C94.5783 49.2027 94.783 49.2027 95.0013 49.2027C95.2196 49.1754 95.4379 49.189 95.6562 49.2436C95.738 49.2709 95.7926 49.3118 95.8199 49.3664C95.8745 49.421 95.97 49.421 96.1064 49.3664C96.352 49.612 96.5021 49.762 96.5567 49.8166C96.6112 49.8712 96.6658 49.9258 96.7204 49.9803C96.7204 50.0895 96.7204 50.185 96.7204 50.2669C96.7477 50.3214 96.7613 50.3897 96.7613 50.4715C96.7613 50.7717 96.7886 50.9763 96.8432 51.0855C96.6795 51.3311 96.6249 51.5084 96.6795 51.6176L96.4748 52.0678C96.4748 52.2043 96.4475 52.3544 96.3929 52.5181C96.3384 52.6545 96.3384 52.791 96.3929 52.9274C96.2565 53.1457 96.161 53.3913 96.1064 53.6642C96.0791 53.9097 95.9973 54.1417 95.8608 54.36C95.6425 54.4418 95.4242 54.4828 95.2059 54.4828C94.9876 54.4555 94.7693 54.4691 94.551 54.5237C94.4146 54.4691 94.2236 54.4418 93.978 54.4418C93.7597 54.4418 93.5414 54.4555 93.3231 54.4828C93.1321 54.5101 92.9274 54.5237 92.7091 54.5237C92.6273 54.5237 92.5454 54.5237 92.4635 54.5237C92.3817 54.4964 92.2998 54.4828 92.218 54.4828C91.9178 54.5373 91.7541 54.551 91.7268 54.5237C91.7268 54.4964 91.6995 54.4828 91.6449 54.4828C91.3448 54.4828 91.0446 54.4964 90.7444 54.5237C90.4443 54.5237 90.1441 54.5237 89.8439 54.5237C89.7348 54.5237 89.6393 54.5373 89.5574 54.5646C89.4756 54.5919 89.3937 54.6056 89.3118 54.6056C89.23 54.6056 89.1481 54.5919 89.0663 54.5646C88.9844 54.5373 88.9025 54.5237 88.8207 54.5237C88.6842 54.5237 88.5341 54.5373 88.3704 54.5646C88.2067 54.5919 88.043 54.6056 87.8792 54.6056C87.7974 54.6056 87.7155 54.5919 87.6337 54.5646C87.5518 54.5646 87.4699 54.5646 87.3881 54.5646C87.2516 54.5646 87.1152 54.5919 86.9788 54.6465C86.8423 54.7011 86.6922 54.7011 86.5285 54.6465L85.9555 54.7284C85.5189 54.7284 85.0823 54.7556 84.6457 54.8102C84.2364 54.8648 83.8134 54.8921 83.3768 54.8921C83.1312 54.8921 82.9675 54.8784 82.8857 54.8512C82.7492 54.742 82.5855 54.6738 82.3945 54.6465C82.2035 54.6192 82.0261 54.5646 81.8624 54.4828C81.8351 54.2645 81.7396 54.1007 81.5759 53.9916C81.4121 53.8825 81.262 53.7597 81.1256 53.6232C81.1529 53.2958 81.1256 53.0911 81.0437 53.0093C81.071 52.5727 80.9892 52.2861 80.7982 52.1497C80.8254 51.9041 80.921 51.6722 81.0847 51.4539C81.2484 51.2356 81.3439 51.0036 81.3712 50.758C81.5895 50.5397 81.7259 50.376 81.7805 50.2669C81.8351 50.1577 81.8624 50.0349 81.8624 49.8985C82.0261 49.7075 82.1762 49.4755 82.3126 49.2027C82.4763 48.9025 82.6264 48.5887 82.7629 48.2612C82.8993 47.9338 83.0221 47.62 83.1312 47.3198C83.2404 46.9924 83.3359 46.7059 83.4178 46.4603C83.6361 46.1601 83.7998 45.8463 83.9089 45.5188C84.0181 45.1914 84.1409 44.8639 84.2773 44.5365C84.4956 44.1545 84.632 43.8816 84.6866 43.7179C84.7685 43.5269 84.8776 43.3631 85.0141 43.2267C85.0414 43.1175 85.1096 42.9129 85.2187 42.6127C85.3552 42.2853 85.4916 41.9442 85.628 41.5895C85.7645 41.2347 85.9009 40.9209 86.0373 40.648C86.2011 40.3479 86.3102 40.1569 86.3648 40.075C86.3921 39.9386 86.4467 39.8021 86.5285 39.6657C86.6104 39.5292 86.6513 39.3928 86.6513 39.2564C86.9242 38.9016 87.1425 38.465 87.3062 37.9466C87.4699 37.4281 87.6473 36.9779 87.8383 36.5958C88.0293 36.1865 88.234 35.7909 88.4523 35.4088C88.6706 34.9995 88.8889 34.5902 89.1072 34.1809C89.9531 32.5437 90.799 30.8928 91.6449 29.2282C91.5903 29.0918 91.4676 29.0236 91.2765 29.0236C91.1128 29.0236 90.9764 28.9826 90.8672 28.9008C90.6489 28.9554 90.4443 28.969 90.2533 28.9417C90.0622 28.9144 89.8576 28.9008 89.6393 28.9008C89.1208 28.7916 88.6842 28.7507 88.3295 28.778C88.002 28.778 87.6746 28.778 87.3471 28.778C87.1834 28.778 87.0061 28.7643 86.815 28.7371C86.6513 28.7098 86.4876 28.6961 86.3239 28.6961C85.9146 28.6961 85.4916 28.7234 85.055 28.778C84.6457 28.8326 84.25 28.9008 83.868 28.9826C83.6224 28.9281 83.3632 28.9008 83.0903 28.9008C82.8447 28.9008 82.6128 28.8735 82.3945 28.8189C82.2853 28.4096 82.258 28.1777 82.3126 28.1231C82.258 28.0412 82.1898 27.973 82.108 27.9184C82.0534 27.8366 81.9988 27.7547 81.9442 27.6728C81.9715 27.4273 81.9442 27.2772 81.8624 27.2226C81.8078 27.1407 81.7532 27.0316 81.6986 26.8952C81.6986 26.7041 81.685 26.5268 81.6577 26.3631C81.6577 26.172 81.685 25.981 81.7396 25.79C81.685 25.6809 81.6168 25.599 81.5349 25.5444C81.4531 25.4626 81.3848 25.3807 81.3303 25.2988C81.3576 25.1624 81.3576 25.0533 81.3303 24.9714C81.3303 24.8622 81.3439 24.7531 81.3712 24.6439C81.5349 24.5075 81.7123 24.412 81.9033 24.3574C82.0943 24.2756 82.2444 24.1528 82.3535 23.989C82.7083 23.8799 83.063 23.8117 83.4178 23.7844C83.7998 23.7571 84.1682 23.7435 84.5229 23.7435C84.9049 23.7435 85.2597 23.7571 85.5871 23.7844C85.9418 23.7844 86.2829 23.798 86.6104 23.8253C86.856 23.8253 87.0743 23.8662 87.2653 23.9481C87.4836 24.0027 87.7019 24.0436 87.9202 24.0709C88.0566 24.0982 88.1931 24.1118 88.3295 24.1118C88.4659 24.0845 88.6024 24.0709 88.7388 24.0709C89.2027 24.0709 89.6666 24.0845 90.1305 24.1118C90.6216 24.1118 91.0992 24.1118 91.5631 24.1118C91.9451 24.1118 92.2998 24.1118 92.6273 24.1118C92.9547 24.1118 93.2822 24.0845 93.6096 24.03C93.7188 23.9208 93.8006 23.8117 93.8552 23.7025C93.9098 23.5934 93.9644 23.4842 94.0189 23.3751C94.2645 23.3751 94.4282 23.3887 94.5101 23.416C94.592 23.416 94.6602 23.416 94.7148 23.416L95.2059 23.6207C95.3151 23.6207 95.4379 23.607 95.5743 23.5797C95.7108 23.5252 95.7926 23.4297 95.8199 23.2932Z" fill="#BAC4D1"/>
<path d="M120.788 38.274C120.733 38.3832 120.679 38.4923 120.624 38.6015C120.57 38.6833 120.529 38.7788 120.501 38.888C120.611 38.9971 120.706 39.1199 120.788 39.2564C120.897 39.3655 120.952 39.4883 120.952 39.6248C120.952 39.7339 120.924 39.8431 120.87 39.9522C120.842 40.0341 120.842 40.1159 120.87 40.1978C120.761 40.3888 120.638 40.5662 120.501 40.7299C120.392 40.8936 120.31 41.071 120.256 41.262C120.147 41.3712 120.051 41.4803 119.969 41.5895C119.915 41.6986 119.86 41.8078 119.806 41.9169C119.669 41.9715 119.574 42.067 119.519 42.2034C119.492 42.3126 119.424 42.4081 119.314 42.4899C119.287 42.5991 119.151 42.8583 118.905 43.2676C118.66 43.6769 118.387 44.1135 118.086 44.5774C117.786 45.0413 117.5 45.4916 117.227 45.9282C116.954 46.3648 116.763 46.6513 116.654 46.7877C116.599 46.9242 116.531 47.0333 116.449 47.1152C116.395 47.197 116.326 47.2925 116.245 47.4017C116.19 47.4835 116.149 47.579 116.122 47.6882C116.094 47.7701 116.054 47.8383 115.999 47.8929C115.944 48.002 115.876 48.0975 115.794 48.1794C115.74 48.2612 115.685 48.3704 115.631 48.5068C115.358 48.8616 115.085 49.2845 114.812 49.7757C114.539 50.2669 114.28 50.7035 114.034 51.0855C113.898 51.3038 113.761 51.5221 113.625 51.7404C113.516 51.9587 113.393 52.177 113.257 52.3953C113.12 52.6136 112.984 52.8182 112.847 53.0093C112.711 53.2003 112.574 53.4049 112.438 53.6232C112.22 53.7869 112.029 53.9916 111.865 54.2372C111.701 54.4555 111.51 54.6465 111.292 54.8102C110.937 54.8102 110.719 54.6465 110.637 54.319C110.282 54.2372 110.105 54.2372 110.105 54.319C110.105 54.4009 110.105 54.4691 110.105 54.5237C109.996 54.5783 109.914 54.6601 109.859 54.7693C109.832 54.8784 109.764 54.9603 109.655 55.0149C109.436 54.9603 109.245 54.8648 109.082 54.7284C108.945 54.6192 108.741 54.5783 108.468 54.6056C108.358 54.4418 108.236 54.3054 108.099 54.1963C107.963 54.0598 107.84 53.9234 107.731 53.7869C107.676 53.6232 107.594 53.4868 107.485 53.3776C107.403 53.2685 107.322 53.1593 107.24 53.0502C107.158 52.9137 107.076 52.791 106.994 52.6818C106.912 52.5727 106.83 52.4635 106.749 52.3544C106.558 52.1088 106.367 51.8768 106.175 51.6585C106.012 51.4129 105.862 51.1673 105.725 50.9218C105.507 50.5943 105.289 50.2669 105.07 49.9394C104.879 49.5847 104.675 49.2436 104.456 48.9161C104.347 48.7524 104.238 48.5887 104.129 48.425C104.02 48.2612 103.924 48.0975 103.842 47.9338C103.788 47.7973 103.706 47.6336 103.597 47.4426C103.515 47.2516 103.406 47.1288 103.269 47.0742C103.215 46.8559 103.119 46.6922 102.983 46.5831C102.846 46.4739 102.71 46.3375 102.574 46.1737C102.383 45.9554 102.205 45.7235 102.041 45.4779C101.878 45.205 101.714 44.9322 101.55 44.6593C101.005 43.8952 100.486 43.1448 99.9949 42.4081C99.531 41.6713 99.0671 40.9073 98.6032 40.1159C98.7397 39.6793 98.8079 39.3519 98.8079 39.1336C98.8079 38.9153 98.8761 38.7379 99.0125 38.6015C99.0125 38.4923 99.0398 38.3286 99.0944 38.1103C99.4491 37.51 99.7902 36.9642 100.118 36.4731C100.418 36.0092 100.622 35.6271 100.732 35.327C100.868 35.0268 101.005 34.713 101.141 34.3856C101.277 34.3037 101.387 34.2082 101.468 34.099C101.55 33.9626 101.659 33.8398 101.796 33.7307C101.85 33.4305 101.973 33.1849 102.164 32.9939C102.355 32.7756 102.478 32.5164 102.533 32.2162C102.778 32.0252 102.915 31.8069 102.942 31.5613C103.297 31.3157 103.515 30.9883 103.597 30.579C103.815 30.3607 103.992 30.1151 104.129 29.8422C104.293 29.5693 104.443 29.2828 104.579 28.9826C104.907 28.7098 105.166 28.355 105.357 27.9184C105.521 27.8093 105.643 27.6592 105.725 27.4682C105.807 27.2772 105.916 27.1135 106.053 26.977C106.271 26.6223 106.435 26.3358 106.544 26.1175C106.68 25.8719 106.817 25.6263 106.953 25.3807C107.144 25.3807 107.267 25.3125 107.322 25.176C107.376 25.0396 107.485 24.985 107.649 25.0123C107.649 24.7667 107.717 24.5484 107.854 24.3574C107.908 24.3301 107.99 24.3028 108.099 24.2756C108.208 24.221 108.263 24.1664 108.263 24.1118C108.208 23.7844 108.222 23.5934 108.304 23.5388C108.386 23.4842 108.454 23.4297 108.509 23.3751C108.809 23.4297 109.013 23.4706 109.123 23.4979C109.232 23.5252 109.409 23.6207 109.655 23.7844C109.928 23.7844 110.119 23.839 110.228 23.9481C110.337 24.0573 110.46 24.1391 110.596 24.1937C110.705 24.3028 110.787 24.412 110.842 24.5211C110.924 24.6303 111.033 24.7122 111.169 24.7667C111.387 25.0669 111.619 25.3943 111.865 25.7491C112.111 26.1038 112.342 26.4313 112.561 26.7314C112.861 27.1407 113.161 27.5364 113.461 27.9184C113.789 28.2732 114.089 28.6688 114.362 29.1054C114.444 29.2419 114.594 29.4875 114.812 29.8422C115.03 30.1697 115.276 30.5244 115.549 30.9064C115.822 31.2884 116.067 31.6432 116.285 31.9706C116.504 32.2708 116.654 32.4482 116.736 32.5027C116.818 32.6392 116.995 32.8984 117.268 33.2804C117.541 33.6624 117.827 34.0718 118.127 34.5084C118.455 34.9177 118.769 35.3133 119.069 35.6954C119.369 36.0774 119.574 36.323 119.683 36.4321C119.983 36.8414 120.201 37.1825 120.338 37.4554C120.501 37.701 120.651 37.9739 120.788 38.274ZM111.415 45.9691C111.715 45.5598 111.947 45.1914 112.111 44.8639C112.274 44.5365 112.438 44.209 112.602 43.8816C112.875 43.5541 113.038 43.3222 113.093 43.1858C113.147 43.0493 113.216 42.9129 113.298 42.7765C113.516 42.449 113.734 42.1216 113.952 41.7941C114.198 41.4667 114.389 41.1119 114.525 40.7299C114.689 40.6207 114.812 40.4843 114.894 40.3206C114.976 40.1569 115.098 40.0068 115.262 39.8703C115.098 39.2973 114.907 38.8607 114.689 38.5605C114.471 38.2331 114.253 37.9193 114.034 37.6191C113.952 37.4827 113.871 37.3463 113.789 37.2098C113.707 37.0734 113.625 36.9369 113.543 36.8005C113.434 36.7186 113.338 36.6368 113.257 36.5549C113.202 36.4731 113.134 36.3912 113.052 36.3093C112.997 36.1729 112.915 35.9955 112.806 35.7772C112.697 35.6408 112.588 35.518 112.479 35.4088C112.37 35.2997 112.274 35.1633 112.192 34.9995C112.083 34.8904 111.947 34.7403 111.783 34.5493C111.619 34.3583 111.442 34.1536 111.251 33.9353C111.087 33.6897 110.937 33.4714 110.801 33.2804C110.664 33.0621 110.555 32.8848 110.473 32.7483C110.419 32.6119 110.364 32.5027 110.31 32.4209C110.282 32.3117 110.241 32.2026 110.187 32.0934C110.05 31.9024 109.914 31.7387 109.777 31.6022C109.641 31.4385 109.505 31.2611 109.368 31.0701C109.286 31.1247 109.204 31.1656 109.123 31.1929C109.068 31.1929 109.013 31.2202 108.959 31.2748C108.768 31.6295 108.549 31.957 108.304 32.2571C108.086 32.5573 107.867 32.8848 107.649 33.2395C107.458 33.5669 107.267 33.908 107.076 34.2628C106.885 34.5902 106.694 34.9177 106.503 35.2451C106.367 35.4361 106.23 35.6271 106.094 35.8182C105.984 35.9819 105.862 36.1729 105.725 36.3912C105.589 36.5822 105.466 36.7869 105.357 37.0052C105.275 37.1962 105.166 37.3872 105.029 37.5782C104.811 37.8511 104.634 38.0967 104.497 38.315C104.361 38.5333 104.224 38.7925 104.088 39.0926C104.17 39.2564 104.293 39.4883 104.456 39.7885C104.647 40.0614 104.838 40.3479 105.029 40.648C105.22 40.9209 105.384 41.1801 105.521 41.4257C105.684 41.6713 105.78 41.835 105.807 41.9169C106.025 42.1079 106.203 42.3262 106.339 42.5718C106.476 42.7901 106.653 43.0084 106.871 43.2267C106.98 43.445 107.103 43.636 107.24 43.7997C107.376 43.9635 107.513 44.1408 107.649 44.3318C107.785 44.5229 107.963 44.8094 108.181 45.1914C108.399 45.5461 108.618 45.9145 108.836 46.2965C109.054 46.6786 109.273 47.0333 109.491 47.3607C109.709 47.6882 109.887 47.8929 110.023 47.9747C110.296 47.6746 110.514 47.3471 110.678 46.9924C110.869 46.6103 111.115 46.2693 111.415 45.9691Z" fill="#BAC4D1"/>
<path d="M136.874 23.989C137.31 23.9345 137.638 23.9754 137.856 24.1118C138.102 24.221 138.347 24.2892 138.593 24.3165C138.729 24.3438 138.866 24.3574 139.002 24.3574C139.166 24.3301 139.33 24.3165 139.493 24.3165C139.848 24.3165 140.121 24.3574 140.312 24.4393C140.53 24.5211 140.749 24.6985 140.967 24.9714C141.022 25.026 141.09 25.1078 141.172 25.217C141.281 25.2988 141.335 25.3807 141.335 25.4626C141.335 25.6809 141.281 25.8719 141.172 26.0356C141.062 26.1993 141.008 26.4313 141.008 26.7314C141.008 27.1953 141.062 27.6592 141.172 28.1231C141.281 28.5597 141.349 29.0099 141.376 29.4738C141.513 31.1656 141.581 32.8711 141.581 34.5902C141.608 36.282 141.622 37.9602 141.622 39.6248C141.622 39.8431 141.608 40.0477 141.581 40.2387C141.581 40.4024 141.526 40.5525 141.417 40.689V41.2211C141.39 41.9305 141.404 42.6537 141.458 43.3904C141.513 44.0999 141.54 44.8094 141.54 45.5188C141.54 46.1465 141.499 46.7741 141.417 47.4017C141.363 48.0293 141.335 48.6705 141.335 49.3254C141.335 49.9258 141.376 50.5124 141.458 51.0855C141.54 51.6585 141.581 52.2452 141.581 52.8455C141.445 53.0911 141.363 53.2821 141.335 53.4186C141.308 53.555 141.254 53.6778 141.172 53.7869C141.09 53.8415 140.994 53.8552 140.885 53.8279C140.803 53.8006 140.735 53.8279 140.68 53.9097C140.544 54.0735 140.449 54.2645 140.394 54.4828C140.339 54.7011 140.203 54.8784 139.985 55.0149C139.93 55.3969 139.78 55.6834 139.534 55.8744C139.316 56.0927 139.152 56.3656 139.043 56.6931C138.716 56.7203 138.484 56.7067 138.347 56.6521C138.238 56.5976 138.115 56.543 137.979 56.4884C137.952 56.0245 137.952 55.6834 137.979 55.4651C138.034 55.2741 138.061 55.0695 138.061 54.8512C138.061 54.5783 137.993 54.3736 137.856 54.2372C137.72 54.1007 137.624 53.9234 137.57 53.7051C137.27 53.5141 137.065 53.3913 136.956 53.3367C136.847 53.2548 136.751 53.1593 136.669 53.0502C136.505 52.8319 136.369 52.5999 136.26 52.3544C136.151 52.1088 136.028 51.8768 135.892 51.6585C135.51 51.0309 135.114 50.3897 134.705 49.7348C134.322 49.0799 133.9 48.4386 133.436 47.811C133.354 47.6746 133.258 47.5518 133.149 47.4426C133.04 47.3335 132.944 47.2107 132.863 47.0742C132.399 46.3375 131.962 45.5871 131.553 44.823C131.144 44.059 130.666 43.3358 130.12 42.6537C129.902 42.3808 129.738 42.0806 129.629 41.7532C129.52 41.3984 129.356 41.0983 129.138 40.8527C129.111 40.9891 129.097 41.1392 129.097 41.3029C129.097 41.4667 129.097 41.6167 129.097 41.7532C129.097 42.681 129.111 43.6087 129.138 44.5365C129.192 45.437 129.22 46.3511 129.22 47.2789C129.22 47.4699 129.192 47.6473 129.138 47.811C129.111 47.9474 129.097 48.1112 129.097 48.3022C129.097 48.575 129.111 48.8343 129.138 49.0799C129.165 49.3254 129.179 49.571 129.179 49.8166C129.179 50.1168 129.165 50.4033 129.138 50.6762C129.138 50.949 129.124 51.2219 129.097 51.4948C129.042 51.8495 128.974 52.1906 128.892 52.5181C128.81 52.8182 128.77 53.132 128.77 53.4595C128.77 53.6505 128.783 53.8279 128.81 53.9916C128.865 54.1553 128.892 54.3054 128.892 54.4418C128.701 54.742 128.456 54.8921 128.156 54.8921C127.883 54.8921 127.651 55.0012 127.46 55.2195C127.296 55.1922 127.16 55.2059 127.05 55.2605C126.969 55.315 126.887 55.3423 126.805 55.3423C126.696 55.3423 126.6 55.3287 126.518 55.3014C126.464 55.2741 126.395 55.2605 126.314 55.2605C126.177 55.2605 126.041 55.3287 125.904 55.4651C125.768 55.6016 125.631 55.6698 125.495 55.6698C125.413 55.6698 125.263 55.6152 125.045 55.5061C124.854 55.3969 124.635 55.2605 124.39 55.0967C124.172 54.9603 123.967 54.8102 123.776 54.6465C123.585 54.5101 123.489 54.4009 123.489 54.319C123.462 54.1826 123.448 53.9916 123.448 53.746C123.448 53.4186 123.462 53.1048 123.489 52.8046C123.544 52.4771 123.599 52.1497 123.653 51.8222C123.735 50.8945 123.776 49.9803 123.776 49.0799C123.776 48.1521 123.776 47.2243 123.776 46.2965C123.776 45.9145 123.776 45.5325 123.776 45.1505C123.803 44.7684 123.817 44.3864 123.817 44.0044C123.817 43.1039 123.776 42.2034 123.694 41.3029C123.639 40.3752 123.612 39.461 123.612 38.5605C123.612 37.9329 123.639 37.319 123.694 36.7186C123.749 36.091 123.776 35.4771 123.776 34.8767C123.776 34.4129 123.762 33.9626 123.735 33.526C123.708 33.0894 123.694 32.6392 123.694 32.1753C123.667 31.8751 123.667 31.5613 123.694 31.2339C123.721 30.8791 123.735 30.5517 123.735 30.2515C123.735 29.8968 123.68 29.5693 123.571 29.2692C123.489 28.9417 123.448 28.6416 123.448 28.3687C123.448 28.205 123.476 28.0549 123.53 27.9184C123.612 27.7547 123.653 27.591 123.653 27.4273C123.653 27.209 123.612 26.9907 123.53 26.7724C123.476 26.5541 123.448 26.3358 123.448 26.1175C123.448 25.8992 123.476 25.6945 123.53 25.5035C123.585 25.3125 123.612 25.1078 123.612 24.8895C123.994 24.6985 124.335 24.603 124.635 24.603C124.936 24.603 125.154 24.7122 125.29 24.9305C125.29 25.4216 125.318 25.8037 125.372 26.0765C125.427 26.3221 125.468 26.5814 125.495 26.8542C125.495 27.018 125.481 27.209 125.454 27.4273C125.454 27.6456 125.468 27.8639 125.495 28.0822C125.522 28.2732 125.577 28.4369 125.659 28.5733C125.768 28.7098 125.945 28.778 126.191 28.778C126.245 28.9144 126.314 29.0372 126.395 29.1464C126.477 29.2555 126.532 29.392 126.559 29.5557C126.723 29.4465 126.818 29.2965 126.846 29.1054C126.873 28.9144 126.873 28.7371 126.846 28.5733C126.982 28.6279 127.105 28.6552 127.214 28.6552C127.323 28.6279 127.432 28.6416 127.542 28.6961C127.596 29.0782 127.664 29.4192 127.746 29.7194C127.828 29.9923 127.855 30.3197 127.828 30.7018C128.374 31.1111 128.838 31.6977 129.22 32.4618C129.629 33.1986 130.011 33.8671 130.366 34.4674C130.557 34.7676 130.775 35.0541 131.021 35.327C131.294 35.5726 131.498 35.8727 131.635 36.2275C131.853 36.3639 132.03 36.5413 132.167 36.7596C132.303 36.9779 132.426 37.1962 132.535 37.4145C133.081 38.3695 133.681 39.2973 134.336 40.1978C134.991 41.0983 135.673 41.9851 136.383 42.8583C136.41 42.6673 136.424 42.4899 136.424 42.3262C136.424 42.1352 136.424 41.9442 136.424 41.7532L136.383 38.0694C136.383 37.8511 136.369 37.6464 136.342 37.4554C136.342 37.2644 136.328 37.0597 136.301 36.8414C136.246 36.132 136.233 35.4361 136.26 34.7539C136.287 34.0718 136.287 33.3759 136.26 32.6665C136.205 31.9297 136.164 31.1793 136.137 30.4152C136.137 29.6512 136.11 28.8871 136.055 28.1231C136.028 27.6592 136.001 27.1953 135.973 26.7314C135.946 26.2675 135.932 25.8037 135.932 25.3398C135.932 24.7667 135.987 24.2483 136.096 23.7844C136.151 23.7298 136.205 23.6889 136.26 23.6616C136.342 23.607 136.437 23.5797 136.546 23.5797C136.71 23.5797 136.819 23.7162 136.874 23.989Z" fill="#BAC4D1"/>
<path d="M152.632 43.7997C152.687 43.9362 152.878 44.2227 153.205 44.6593C153.56 45.0959 153.956 45.5734 154.392 46.0919C154.829 46.6103 155.238 47.1152 155.62 47.6063C156.03 48.0702 156.316 48.4113 156.48 48.6296C156.78 49.0116 157.067 49.3937 157.339 49.7757C157.64 50.1304 157.913 50.5124 158.158 50.9218L158.895 52.1497C159.113 52.4226 159.304 52.6545 159.468 52.8455C159.659 53.0365 159.809 53.2958 159.918 53.6232C159.973 53.8415 160 53.9916 160 54.0735C160 54.2645 159.932 54.4009 159.795 54.4828C159.577 54.4828 159.454 54.5101 159.427 54.5646C159.427 54.6465 159.372 54.7147 159.263 54.7693C159.154 54.8239 158.977 54.8512 158.731 54.8512C158.513 54.8784 158.335 54.8921 158.199 54.8921C157.953 54.8921 157.64 54.8784 157.258 54.8512C156.903 54.8512 156.616 54.8921 156.398 54.9739C156.343 55.0012 156.262 55.0422 156.152 55.0967C156.043 55.1513 155.961 55.1786 155.907 55.1786C155.689 55.1786 155.525 55.1377 155.416 55.0558C155.334 55.0012 155.211 54.9603 155.047 54.933C154.829 54.6874 154.638 54.4418 154.474 54.1963C154.338 53.9234 154.174 53.6505 153.983 53.3776C153.792 53.1866 153.601 53.0229 153.41 52.8865C153.219 52.7227 153.055 52.5454 152.919 52.3544C152.51 51.754 152.087 51.1673 151.65 50.5943C151.213 50.0213 150.763 49.4619 150.299 48.9161C150.081 48.616 149.849 48.3431 149.603 48.0975C149.358 47.8519 149.126 47.579 148.908 47.2789C148.689 47.006 148.485 46.7195 148.294 46.4193C148.103 46.0919 147.912 45.7781 147.721 45.4779C147.557 45.2323 147.339 44.9185 147.066 44.5365C146.793 44.1272 146.493 43.7315 146.165 43.3495C145.838 42.9402 145.51 42.5582 145.183 42.2034C144.855 41.8487 144.583 41.5758 144.364 41.3848C144.337 41.2211 144.269 41.0983 144.16 41.0164C144.05 40.9073 143.928 40.8118 143.791 40.7299C143.737 40.5935 143.682 40.4707 143.628 40.3615C143.546 40.2251 143.505 40.0886 143.505 39.9522C143.505 39.7612 143.546 39.5838 143.628 39.4201C143.682 39.3109 143.723 39.2154 143.75 39.1336C143.75 39.0244 143.778 38.9153 143.832 38.8061C143.969 38.506 144.146 38.2195 144.364 37.9466C144.61 37.6464 144.801 37.3326 144.937 37.0052C144.992 36.9233 145.019 36.8414 145.019 36.7596C145.019 36.6504 145.046 36.5549 145.101 36.4731C145.156 36.2548 145.265 36.0774 145.428 35.9409C145.62 35.7772 145.77 35.5999 145.879 35.4088C146.015 35.1905 146.138 34.9722 146.247 34.7539C146.384 34.5084 146.52 34.2491 146.656 33.9763C147.066 33.2941 147.489 32.6392 147.925 32.0116C148.389 31.3567 148.853 30.7018 149.317 30.0469C149.672 29.5011 150.013 28.9826 150.34 28.4915C150.695 27.973 151.05 27.4545 151.404 26.9361C151.595 26.6905 151.8 26.404 152.018 26.0765C152.237 25.7491 152.469 25.4216 152.714 25.0942C152.987 24.7667 153.26 24.4666 153.533 24.1937C153.806 23.9208 154.079 23.7025 154.352 23.5388C154.761 23.5115 155.034 23.607 155.17 23.8253C155.307 24.0163 155.511 24.1118 155.784 24.1118C156.139 24.1937 156.371 24.3028 156.48 24.4393C156.589 24.5757 156.712 24.7122 156.848 24.8486C157.23 24.8486 157.53 24.9168 157.749 25.0533C157.994 25.1897 158.226 25.3943 158.445 25.6672C158.363 25.9674 158.24 26.2403 158.076 26.4858C157.913 26.7041 157.762 26.9361 157.626 27.1817C157.408 27.2908 157.244 27.4409 157.135 27.6319C157.053 27.8229 156.917 27.973 156.726 28.0822C156.453 28.546 156.166 28.9963 155.866 29.4329C155.566 29.8422 155.266 30.2515 154.965 30.6608C154.802 30.9064 154.624 31.1247 154.433 31.3157C154.27 31.5067 154.12 31.7114 153.983 31.9297C153.929 32.0116 153.874 32.1071 153.819 32.2162C153.792 32.2981 153.751 32.3799 153.697 32.4618C153.369 32.9803 153.014 33.4714 152.632 33.9353C152.25 34.3719 151.896 34.8631 151.568 35.4088C151.459 35.5999 151.364 35.8045 151.282 36.0228C151.227 36.2138 151.145 36.4048 151.036 36.5958C150.927 36.7596 150.763 36.9779 150.545 37.2507C150.354 37.5236 150.163 37.8238 149.972 38.1512C149.781 38.4514 149.603 38.7516 149.44 39.0517C149.303 39.3246 149.235 39.5565 149.235 39.7475C149.262 39.884 149.426 40.1569 149.726 40.5662C150.054 40.9482 150.408 41.3712 150.79 41.835C151.2 42.2716 151.582 42.6946 151.937 43.1039C152.291 43.4859 152.523 43.7179 152.632 43.7997ZM155.334 36.3503C155.525 36.7596 155.73 37.1143 155.948 37.4145C156.03 37.5236 156.125 37.6191 156.234 37.701C156.343 37.7829 156.425 37.892 156.48 38.0284C156.534 38.083 156.589 38.2058 156.644 38.3968C156.698 38.5605 156.753 38.6833 156.807 38.7652C156.889 38.9835 157.053 39.2291 157.299 39.502C157.544 39.7748 157.667 40.0204 157.667 40.2387C157.667 40.3752 157.64 40.5252 157.585 40.689C157.53 40.8527 157.49 41.0028 157.462 41.1392C157.435 41.3029 157.421 41.4803 157.421 41.6713C157.421 41.835 157.367 41.9851 157.258 42.1216C157.121 42.258 156.971 42.3399 156.807 42.3671C156.644 42.3944 156.494 42.4627 156.357 42.5718C156.303 42.6264 156.221 42.7219 156.112 42.8583C156.002 42.9948 155.893 43.1448 155.784 43.3086C155.675 43.4723 155.566 43.636 155.457 43.7997C155.375 43.9362 155.334 44.0453 155.334 44.1272C155.006 44.1545 154.788 44.1681 154.679 44.1681C154.597 44.1408 154.502 44.1408 154.392 44.1681C154.256 44.0317 154.106 43.9225 153.942 43.8407C153.806 43.7315 153.628 43.636 153.41 43.5541C153.355 43.3358 153.233 43.0903 153.042 42.8174C152.851 42.5172 152.687 42.2716 152.551 42.0806L152.264 41.7122C151.855 41.1392 151.473 40.5935 151.118 40.075C150.79 39.5292 150.545 38.9289 150.381 38.274C150.9 37.892 151.295 37.6055 151.568 37.4145C151.868 37.2235 152.182 37.0461 152.51 36.8824C152.837 36.7186 153.151 36.5686 153.451 36.4321C153.778 36.2684 154.079 36.0774 154.352 35.8591C154.57 35.8591 154.72 35.8727 154.802 35.9C154.884 35.9273 154.938 35.9546 154.965 35.9819C154.993 36.0092 155.02 36.0637 155.047 36.1456C155.102 36.2002 155.197 36.2684 155.334 36.3503Z" fill="#BAC4D1"/>
</svg>
