<svg width="160" height="34" viewBox="0 0 160 34" fill="none" xmlns="http://www.w3.org/2000/svg">
<path d="M8.34996 3.6905C8.34996 3.93609 8.2681 4.1271 8.10437 4.26354C7.94065 4.37269 7.79057 4.52277 7.65413 4.71378C7.38126 4.95937 7.13567 5.2186 6.91737 5.49147C6.72636 5.73706 6.49441 5.98265 6.22154 6.22823C6.11239 6.33738 5.96231 6.48747 5.7713 6.67848C5.58028 6.8422 5.37563 7.01957 5.15733 7.21058C4.96632 7.37431 4.76166 7.52439 4.54336 7.66083C4.35235 7.79726 4.18862 7.86548 4.05219 7.86548C3.83389 7.86548 3.54737 7.79726 3.19263 7.66083C2.86518 7.4971 2.57866 7.38795 2.33308 7.33338C2.14207 7.30609 1.9647 7.29245 1.80097 7.29245C1.66453 7.26516 1.5281 7.1833 1.39166 7.04686C0.900486 6.93771 0.58668 6.77398 0.450243 6.55568C0.313806 6.3101 0.163725 6.06451 0 5.81892C0 5.70977 0.0409312 5.64155 0.122794 5.61427C0.204656 5.58698 0.272875 5.5324 0.327449 5.45054C0.600324 5.09581 0.832267 4.80929 1.02328 4.59099C1.21429 4.3454 1.43259 4.09981 1.67818 3.85423C2.14207 3.44491 2.57866 3.02196 2.98798 2.58536C3.42458 2.14876 3.87482 1.73945 4.33871 1.35742C4.557 1.33014 4.72073 1.24827 4.82988 1.11184C4.93903 0.975399 5.10275 0.907181 5.32105 0.907181C5.53935 0.907181 5.71672 0.975399 5.85316 1.11184C6.01688 1.24827 6.15332 1.412 6.26247 1.60301C6.39891 1.76674 6.5217 1.9441 6.63085 2.13512C6.76729 2.29884 6.91737 2.42163 7.08109 2.5035C7.27211 2.63993 7.53134 2.8173 7.85879 3.0356C8.18624 3.2539 8.34996 3.4722 8.34996 3.6905ZM2.74239 11.3037C2.9334 11.4129 3.06984 11.5629 3.1517 11.7539C3.26085 11.9177 3.41093 12.0405 3.60194 12.1223C3.76567 12.2042 3.94304 12.2451 4.13405 12.2451C4.32506 12.2451 4.48879 12.2724 4.62522 12.327C4.73437 12.3816 4.81624 12.4498 4.87081 12.5316C4.92539 12.6135 4.97996 12.6954 5.03454 12.7772C5.19826 12.9137 5.44385 13.0365 5.7713 13.1456C6.12603 13.2548 6.35798 13.3775 6.46713 13.514C6.65814 13.7596 6.79458 14.0734 6.87644 14.4554C6.98559 14.8374 7.06745 15.2467 7.12203 15.6833C7.1766 16.0926 7.21753 16.5156 7.24482 16.9522C7.27211 17.3615 7.31304 17.7163 7.36761 18.0164C7.42219 18.644 7.49041 19.2716 7.57227 19.8993C7.65413 20.4996 7.69506 21.1135 7.69506 21.7412C7.69506 22.3688 7.66778 23.01 7.6132 23.6649C7.55863 24.3198 7.53134 24.9611 7.53134 25.5887C7.53134 25.9161 7.51769 26.3254 7.49041 26.8166C7.49041 27.3078 7.38126 27.6898 7.16296 27.9627C7.13567 28.0718 7.12203 28.2629 7.12203 28.5357V29.8455C7.12203 30.0093 7.13567 30.173 7.16296 30.3367C7.19024 30.5004 7.20389 30.6778 7.20389 30.8688C7.20389 31.169 7.12203 31.3873 6.9583 31.5237C6.87644 31.4964 6.78093 31.4828 6.67178 31.4828C6.58992 31.4828 6.50806 31.4828 6.4262 31.4828C6.12603 31.4828 5.90773 31.5373 5.7713 31.6465C5.47113 31.6192 5.18462 31.5919 4.91174 31.5646C4.63887 31.5373 4.35235 31.5237 4.05219 31.5237C3.5883 31.5237 3.08348 31.5919 2.53773 31.7284C2.42858 31.4555 2.37401 31.169 2.37401 30.8688C2.4013 30.5686 2.34672 30.2958 2.21028 30.0502C2.183 29.9683 2.15571 29.9001 2.12842 29.8455C2.12842 29.7637 2.12842 29.6818 2.12842 29.5999C2.21028 29.2725 2.25122 29.0542 2.25122 28.945C2.25122 28.8086 2.25122 28.6722 2.25122 28.5357C2.25122 28.1537 2.23757 27.7717 2.21028 27.3897C2.183 26.9803 2.19664 26.5847 2.25122 26.2027C2.25122 26.0662 2.26486 25.9434 2.29215 25.8343C2.34672 25.7251 2.37401 25.6023 2.37401 25.4659C2.37401 25.3295 2.34672 25.2339 2.29215 25.1794C2.23757 25.1248 2.21028 25.0566 2.21028 24.9747C2.21028 24.8929 2.21028 24.7564 2.21028 24.5654C2.23757 24.3744 2.2785 24.2516 2.33308 24.197C2.33308 23.9787 2.33308 23.7741 2.33308 23.5831C2.36036 23.3648 2.37401 23.1601 2.37401 22.9691C2.37401 22.5325 2.36036 22.0959 2.33308 21.6593C2.30579 21.2227 2.29215 20.7997 2.29215 20.3904C2.29215 20.1994 2.2785 20.0766 2.25122 20.022C2.22393 19.9675 2.19664 19.9265 2.16935 19.8993C2.14207 19.872 2.10113 19.8583 2.04656 19.8583C1.99198 19.831 1.95105 19.7765 1.92377 19.6946C2.03292 18.4939 1.99198 17.2933 1.80097 16.0926C1.60996 14.892 1.51445 13.6777 1.51445 12.4498C1.51445 12.2588 1.54174 12.1223 1.59632 12.0405C1.65089 11.9313 1.71911 11.8495 1.80097 11.7949C1.88283 11.7403 1.95105 11.6857 2.00563 11.6312C2.08749 11.5493 2.14207 11.4401 2.16935 11.3037C2.38765 11.3583 2.57866 11.3583 2.74239 11.3037Z" fill="#BAC4D1"/>
<path d="M25.9504 0.989043C26.387 0.934468 26.7144 0.975399 26.9327 1.11184C27.1783 1.22099 27.4239 1.28921 27.6695 1.31649C27.8059 1.34378 27.9424 1.35742 28.0788 1.35742C28.2425 1.33014 28.4062 1.31649 28.57 1.31649C28.9247 1.31649 29.1976 1.35742 29.3886 1.43929C29.6069 1.52115 29.8252 1.69852 30.0435 1.97139C30.0981 2.02597 30.1663 2.10783 30.2481 2.21698C30.3573 2.29884 30.4119 2.3807 30.4119 2.46257C30.4119 2.68087 30.3573 2.87188 30.2481 3.0356C30.139 3.19933 30.0844 3.43127 30.0844 3.73143C30.0844 4.19532 30.139 4.65921 30.2481 5.12309C30.3573 5.55969 30.4255 6.00993 30.4528 6.47382C30.5892 8.16564 30.6575 9.87111 30.6575 11.5902C30.6847 13.282 30.6984 14.9602 30.6984 16.6248C30.6984 16.8431 30.6847 17.0477 30.6575 17.2387C30.6575 17.4024 30.6029 17.5525 30.4937 17.689V18.2211C30.4664 18.9305 30.4801 19.6537 30.5347 20.3904C30.5892 21.0999 30.6165 21.8094 30.6165 22.5188C30.6165 23.1465 30.5756 23.7741 30.4937 24.4017C30.4392 25.0293 30.4119 25.6705 30.4119 26.3254C30.4119 26.9258 30.4528 27.5124 30.5347 28.0855C30.6165 28.6585 30.6575 29.2452 30.6575 29.8455C30.521 30.0911 30.4392 30.2821 30.4119 30.4186C30.3846 30.555 30.33 30.6778 30.2481 30.7869C30.1663 30.8415 30.0708 30.8552 29.9616 30.8279C29.8798 30.8006 29.8115 30.8279 29.757 30.9097C29.6205 31.0735 29.525 31.2645 29.4705 31.4828C29.4159 31.7011 29.2794 31.8784 29.0611 32.0149C29.0066 32.3969 28.8565 32.6834 28.6109 32.8744C28.3926 33.0927 28.2289 33.3656 28.1197 33.6931C27.7923 33.7203 27.5603 33.7067 27.4239 33.6521C27.3147 33.5976 27.1919 33.543 27.0555 33.4884C27.0282 33.0245 27.0282 32.6834 27.0555 32.4651C27.1101 32.2741 27.1374 32.0695 27.1374 31.8512C27.1374 31.5783 27.0692 31.3736 26.9327 31.2372C26.7963 31.1007 26.7008 30.9234 26.6462 30.7051C26.346 30.5141 26.1414 30.3913 26.0322 30.3367C25.9231 30.2548 25.8276 30.1593 25.7457 30.0502C25.582 29.8319 25.4456 29.5999 25.3364 29.3544C25.2273 29.1088 25.1045 28.8768 24.968 28.6585C24.586 28.0309 24.1903 27.3897 23.781 26.7348C23.399 26.0799 22.976 25.4386 22.5122 24.811C22.4303 24.6746 22.3348 24.5518 22.2256 24.4426C22.1165 24.3335 22.021 24.2107 21.9391 24.0742C21.4752 23.3375 21.0386 22.5871 20.6293 21.823C20.22 21.059 19.7425 20.3358 19.1967 19.6537C18.9784 19.3808 18.8147 19.0806 18.7056 18.7532C18.5964 18.3984 18.4327 18.0983 18.2144 17.8527C18.1871 17.9891 18.1734 18.1392 18.1734 18.3029C18.1734 18.4667 18.1734 18.6167 18.1734 18.7532C18.1734 19.681 18.1871 20.6087 18.2144 21.5365C18.269 22.437 18.2962 23.3511 18.2962 24.2789C18.2962 24.4699 18.269 24.6473 18.2144 24.811C18.1871 24.9474 18.1734 25.1112 18.1734 25.3022C18.1734 25.575 18.1871 25.8343 18.2144 26.0799C18.2417 26.3254 18.2553 26.571 18.2553 26.8166C18.2553 27.1168 18.2417 27.4033 18.2144 27.6762C18.2144 27.949 18.2007 28.2219 18.1734 28.4948C18.1189 28.8495 18.0507 29.1906 17.9688 29.5181C17.8869 29.8182 17.846 30.132 17.846 30.4595C17.846 30.6505 17.8596 30.8279 17.8869 30.9916C17.9415 31.1553 17.9688 31.3054 17.9688 31.4418C17.7778 31.742 17.5322 31.8921 17.232 31.8921C16.9592 31.8921 16.7272 32.0012 16.5362 32.2195C16.3725 32.1922 16.236 32.2059 16.1269 32.2605C16.045 32.315 15.9632 32.3423 15.8813 32.3423C15.7721 32.3423 15.6766 32.3287 15.5948 32.3014C15.5402 32.2741 15.472 32.2605 15.3901 32.2605C15.2537 32.2605 15.1173 32.3287 14.9808 32.4651C14.8444 32.6016 14.7079 32.6698 14.5715 32.6698C14.4896 32.6698 14.3396 32.6152 14.1213 32.5061C13.9302 32.3969 13.7119 32.2605 13.4664 32.0967C13.2481 31.9603 13.0434 31.8102 12.8524 31.6465C12.6614 31.5101 12.5659 31.4009 12.5659 31.319C12.5386 31.1826 12.5249 30.9916 12.5249 30.746C12.5249 30.4186 12.5386 30.1048 12.5659 29.8046C12.6204 29.4771 12.675 29.1497 12.7296 28.8222C12.8115 27.8945 12.8524 26.9803 12.8524 26.0799C12.8524 25.1521 12.8524 24.2243 12.8524 23.2965C12.8524 22.9145 12.8524 22.5325 12.8524 22.1505C12.8797 21.7684 12.8933 21.3864 12.8933 21.0044C12.8933 20.1039 12.8524 19.2034 12.7705 18.3029C12.716 17.3752 12.6887 16.461 12.6887 15.5605C12.6887 14.9329 12.716 14.319 12.7705 13.7186C12.8251 13.091 12.8524 12.4771 12.8524 11.8767C12.8524 11.4129 12.8387 10.9626 12.8115 10.526C12.7842 10.0894 12.7705 9.63917 12.7705 9.17528C12.7432 8.87512 12.7432 8.56131 12.7705 8.23386C12.7978 7.87913 12.8115 7.55168 12.8115 7.25151C12.8115 6.89678 12.7569 6.56933 12.6477 6.26917C12.5659 5.94172 12.5249 5.64155 12.5249 5.36868C12.5249 5.20496 12.5522 5.05487 12.6068 4.91844C12.6887 4.75471 12.7296 4.59099 12.7296 4.42726C12.7296 4.20896 12.6887 3.99066 12.6068 3.77236C12.5522 3.55406 12.5249 3.33576 12.5249 3.11746C12.5249 2.89916 12.5522 2.69451 12.6068 2.5035C12.6614 2.31248 12.6887 2.10783 12.6887 1.88953C13.0707 1.69852 13.4118 1.60301 13.7119 1.60301C14.0121 1.60301 14.2304 1.71216 14.3668 1.93046C14.3668 2.42163 14.3941 2.80366 14.4487 3.07653C14.5033 3.32212 14.5442 3.58135 14.5715 3.85423C14.5715 4.01795 14.5579 4.20896 14.5306 4.42726C14.5306 4.64556 14.5442 4.86386 14.5715 5.08216C14.5988 5.27317 14.6534 5.4369 14.7352 5.57334C14.8444 5.70977 15.0217 5.77799 15.2673 5.77799C15.3219 5.91443 15.3901 6.03722 15.472 6.14637C15.5539 6.25552 15.6084 6.39196 15.6357 6.55568C15.7994 6.44653 15.8949 6.29645 15.9222 6.10544C15.9495 5.91443 15.9495 5.73706 15.9222 5.57334C16.0587 5.62791 16.1815 5.6552 16.2906 5.6552C16.3998 5.62791 16.5089 5.64155 16.6181 5.69613C16.6726 6.07815 16.7409 6.41925 16.8227 6.71941C16.9046 6.99228 16.9319 7.31973 16.9046 7.70176C17.4503 8.11107 17.9142 8.69775 18.2962 9.4618C18.7056 10.1986 19.0876 10.8671 19.4423 11.4674C19.6333 11.7676 19.8516 12.0541 20.0972 12.327C20.3701 12.5726 20.5747 12.8727 20.7112 13.2275C20.9295 13.3639 21.1068 13.5413 21.2433 13.7596C21.3797 13.9779 21.5025 14.1962 21.6117 14.4145C22.1574 15.3695 22.7577 16.2973 23.4126 17.1978C24.0675 18.0983 24.7497 18.9851 25.4592 19.8583C25.4865 19.6673 25.5001 19.4899 25.5001 19.3262C25.5001 19.1352 25.5001 18.9442 25.5001 18.7532L25.4592 15.0694C25.4592 14.8511 25.4456 14.6464 25.4183 14.4554C25.4183 14.2644 25.4046 14.0597 25.3773 13.8414C25.3228 13.132 25.3091 12.4361 25.3364 11.7539C25.3637 11.0718 25.3637 10.3759 25.3364 9.66645C25.2818 8.92969 25.2409 8.17929 25.2136 7.41524C25.2136 6.65119 25.1863 5.88714 25.1317 5.12309C25.1045 4.65921 25.0772 4.19532 25.0499 3.73143C25.0226 3.26755 25.009 2.80366 25.009 2.33977C25.009 1.76674 25.0635 1.24827 25.1727 0.784387C25.2273 0.729812 25.2818 0.688881 25.3364 0.661594C25.4183 0.607019 25.5138 0.579731 25.6229 0.579731C25.7866 0.579731 25.8958 0.716168 25.9504 0.989043Z" fill="#BAC4D1"/>
<path d="M35.8557 32.0149C35.7466 31.9057 35.692 31.7556 35.692 31.5646C35.692 31.4282 35.692 31.319 35.692 31.2372C35.7193 31.128 35.7466 31.0052 35.7739 30.8688C35.9103 30.2412 35.9785 29.6136 35.9785 28.986C35.9785 28.3311 36.0058 27.6898 36.0604 27.0622C36.0877 26.6802 36.1013 26.2982 36.1013 25.9161C36.1286 25.5341 36.1422 25.1521 36.1422 24.7701C36.1422 22.5052 36.074 20.254 35.9376 18.0164C35.8011 15.7516 35.7329 13.4731 35.7329 11.1809C35.7329 9.59824 35.7602 8.01556 35.8148 6.43289C35.8694 4.82293 35.9103 3.21297 35.9376 1.60301C36.1832 1.46657 36.4833 1.412 36.8381 1.43929C37.1928 1.46657 37.4793 1.34378 37.6976 1.07091C37.8341 1.04362 37.9705 1.04362 38.1069 1.07091C38.2434 1.07091 38.3798 1.07091 38.5162 1.07091C38.8164 1.07091 39.1029 0.975399 39.3758 0.784387C39.6487 0.593375 39.9488 0.42965 40.2763 0.293213C40.44 0.347788 40.5492 0.375075 40.6037 0.375075C40.6856 0.347788 40.7675 0.334144 40.8493 0.334144C40.9312 0.334144 41.1086 0.42965 41.3814 0.620662C41.6543 0.811675 41.9545 1.02997 42.2819 1.27556C42.6094 1.52115 42.9095 1.75309 43.1824 1.97139C43.4826 2.18969 43.6736 2.32613 43.7554 2.3807C44.4376 2.89916 45.0379 3.4722 45.5564 4.09981C46.1022 4.70014 46.6343 5.3141 47.1527 5.94172C47.6439 6.56933 48.176 7.21058 48.749 7.86548C49.3221 8.49309 49.8815 9.07977 50.4272 9.62552C50.6182 9.84382 50.8092 10.0348 51.0003 10.1986C51.2186 10.3623 51.4232 10.5533 51.6142 10.7716C51.6961 10.8807 51.7643 11.0035 51.8189 11.14C51.9007 11.2491 51.9826 11.3719 52.0645 11.5084C52.2282 11.6994 52.4192 11.8631 52.6375 11.9995C52.8558 12.136 53.0605 12.2997 53.2515 12.4907C53.3879 12.5999 53.5926 12.8182 53.8654 13.1456C54.1383 13.4731 54.2747 13.7186 54.2747 13.8824C54.2747 13.9915 54.2475 14.087 54.1929 14.1689C54.1383 14.2507 54.0837 14.3463 54.0292 14.4554C54.0019 14.5373 53.9882 14.6601 53.9882 14.8238C53.9882 14.9875 53.9746 15.0967 53.9473 15.1512C53.6744 15.3695 53.5243 15.506 53.4971 15.5605C53.4698 15.6151 53.4288 15.6697 53.3743 15.7243C53.2924 15.8334 53.1833 15.9289 53.0468 16.0108C52.9377 16.0654 52.8558 16.1609 52.8012 16.2973C52.7467 16.3792 52.7194 16.461 52.7194 16.5429C52.7467 16.6248 52.733 16.7203 52.6784 16.8294C52.542 17.1296 52.3237 17.4161 52.0235 17.689C51.7234 17.9618 51.4641 18.262 51.2458 18.5895C50.9457 19.0806 50.6455 19.5718 50.3454 20.063C50.0452 20.5541 49.7041 21.0317 49.3221 21.4956C49.1584 21.7139 48.981 21.9322 48.79 22.1505C48.6262 22.3415 48.4625 22.5461 48.2988 22.7644C48.1624 22.9282 48.0396 23.1055 47.9304 23.2965C47.8213 23.4603 47.6985 23.6513 47.562 23.8696C47.2619 24.2516 46.9754 24.6336 46.7025 25.0156C46.4296 25.3704 46.1431 25.7388 45.8429 26.1208C45.5155 26.5847 45.1607 27.0486 44.7787 27.5124C44.3967 27.949 44.0556 28.3993 43.7554 28.8632C43.4553 29.3544 43.1415 29.8046 42.814 30.2139C42.4866 30.6232 42.1318 31.0189 41.7498 31.4009C41.6407 31.4828 41.5042 31.6056 41.3405 31.7693C41.1768 31.933 41.013 32.0149 40.8493 32.0149C40.7402 32.0149 40.6447 31.9739 40.5628 31.8921C40.5082 31.8102 40.4127 31.7693 40.2763 31.7693C40.249 31.7693 40.1671 31.7829 40.0307 31.8102C39.8943 31.8375 39.7305 31.8648 39.5395 31.8921L38.8028 31.9739C38.3662 32.1922 38.0524 32.2878 37.8613 32.2605C37.6703 32.2605 37.4793 32.2741 37.2883 32.3014C37.1792 32.3287 37.0837 32.3696 37.0018 32.4242C36.9472 32.4788 36.879 32.5061 36.7971 32.5061C36.6061 32.5061 36.456 32.4105 36.3469 32.2195C36.2377 32.0558 36.074 31.9876 35.8557 32.0149ZM48.1351 14.3326C48.1351 14.1962 47.9986 14.0052 47.7258 13.7596C47.4802 13.514 47.2892 13.3366 47.1527 13.2275C46.9617 13.0637 46.7298 12.9137 46.4569 12.7772C46.2113 12.6135 46.0066 12.4361 45.8429 12.2451C45.7065 12.0814 45.5701 11.9177 45.4336 11.7539C45.3245 11.5629 45.2017 11.3856 45.0652 11.2218C44.5741 10.6761 44.0692 10.1303 43.5508 9.58459C43.0596 9.03884 42.623 8.43852 42.241 7.78362C41.9954 7.61989 41.7635 7.42888 41.5452 7.21058C41.3269 6.99228 41.0676 6.81491 40.7675 6.67848C40.7129 6.8422 40.6856 7.01957 40.6856 7.21058C40.7129 7.37431 40.7265 7.53803 40.7265 7.70176C40.7265 8.32937 40.6992 8.94334 40.6447 9.54366C40.5901 10.144 40.5628 10.7443 40.5628 11.3446C40.5628 12.8182 40.5901 14.278 40.6447 15.7243C40.7265 17.1432 40.7675 18.5758 40.7675 20.022C40.7675 20.5678 40.7675 21.1135 40.7675 21.6593C40.7947 22.205 40.8493 22.7508 40.9312 23.2965C40.8766 23.4603 40.8493 23.6103 40.8493 23.7468C40.8493 23.8832 40.8766 24.0606 40.9312 24.2789C41.1495 24.1424 41.3269 23.9787 41.4633 23.7877C41.627 23.5694 41.7771 23.3648 41.9135 23.1737C42.3774 22.5734 42.8277 21.9731 43.2643 21.3728C43.7281 20.7452 44.192 20.1175 44.6559 19.4899C44.9561 19.0806 45.2562 18.685 45.5564 18.3029C45.8839 17.8936 46.1977 17.4707 46.4978 17.0341C46.5797 16.9249 46.7025 16.7339 46.8662 16.461C47.0572 16.1882 47.2346 15.9153 47.3983 15.6424C47.5893 15.3422 47.753 15.0694 47.8895 14.8238C48.0532 14.5782 48.1351 14.4145 48.1351 14.3326Z" fill="#BAC4D1"/>
<path d="M63.034 3.6905C63.034 3.93609 62.9522 4.1271 62.7884 4.26354C62.6247 4.37269 62.4746 4.52277 62.3382 4.71378C62.0653 4.95937 61.8197 5.2186 61.6014 5.49147C61.4104 5.73706 61.1785 5.98265 60.9056 6.22823C60.7965 6.33738 60.6464 6.48747 60.4554 6.67848C60.2643 6.8422 60.0597 7.01957 59.8414 7.21058C59.6504 7.37431 59.4457 7.52439 59.2274 7.66083C59.0364 7.79726 58.8727 7.86548 58.7362 7.86548C58.5179 7.86548 58.2314 7.79726 57.8767 7.66083C57.5492 7.4971 57.2627 7.38795 57.0171 7.33338C56.8261 7.30609 56.6488 7.29245 56.485 7.29245C56.3486 7.26516 56.2122 7.1833 56.0757 7.04686C55.5845 6.93771 55.2707 6.77398 55.1343 6.55568C54.9979 6.3101 54.8478 6.06451 54.6841 5.81892C54.6841 5.70977 54.725 5.64155 54.8069 5.61427C54.8887 5.58698 54.9569 5.5324 55.0115 5.45054C55.2844 5.09581 55.5163 4.80929 55.7073 4.59099C55.8984 4.3454 56.1167 4.09981 56.3622 3.85423C56.8261 3.44491 57.2627 3.02196 57.672 2.58536C58.1086 2.14876 58.5589 1.73945 59.0228 1.35742C59.2411 1.33014 59.4048 1.24827 59.5139 1.11184C59.6231 0.975399 59.7868 0.907181 60.0051 0.907181C60.2234 0.907181 60.4008 0.975399 60.5372 1.11184C60.7009 1.24827 60.8374 1.412 60.9465 1.60301C61.083 1.76674 61.2058 1.9441 61.3149 2.13512C61.4514 2.29884 61.6014 2.42163 61.7652 2.5035C61.9562 2.63993 62.2154 2.8173 62.5429 3.0356C62.8703 3.2539 63.034 3.4722 63.034 3.6905ZM57.4265 11.3037C57.6175 11.4129 57.7539 11.5629 57.8358 11.7539C57.9449 11.9177 58.095 12.0405 58.286 12.1223C58.4497 12.2042 58.6271 12.2451 58.8181 12.2451C59.0091 12.2451 59.1728 12.2724 59.3093 12.327C59.4184 12.3816 59.5003 12.4498 59.5549 12.5316C59.6094 12.6135 59.664 12.6954 59.7186 12.7772C59.8823 12.9137 60.1279 13.0365 60.4554 13.1456C60.8101 13.2548 61.042 13.3775 61.1512 13.514C61.3422 13.7596 61.4786 14.0734 61.5605 14.4554C61.6697 14.8374 61.7515 15.2467 61.8061 15.6833C61.8607 16.0926 61.9016 16.5156 61.9289 16.9522C61.9562 17.3615 61.9971 17.7163 62.0517 18.0164C62.1063 18.644 62.1745 19.2716 62.2563 19.8993C62.3382 20.4996 62.3791 21.1135 62.3791 21.7412C62.3791 22.3688 62.3518 23.01 62.2973 23.6649C62.2427 24.3198 62.2154 24.9611 62.2154 25.5887C62.2154 25.9161 62.2018 26.3254 62.1745 26.8166C62.1745 27.3078 62.0653 27.6898 61.847 27.9627C61.8197 28.0718 61.8061 28.2629 61.8061 28.5357V29.8455C61.8061 30.0093 61.8197 30.173 61.847 30.3367C61.8743 30.5004 61.888 30.6778 61.888 30.8688C61.888 31.169 61.8061 31.3873 61.6424 31.5237C61.5605 31.4964 61.465 31.4828 61.3558 31.4828C61.274 31.4828 61.1921 31.4828 61.1103 31.4828C60.8101 31.4828 60.5918 31.5373 60.4554 31.6465C60.1552 31.6192 59.8687 31.5919 59.5958 31.5646C59.3229 31.5373 59.0364 31.5237 58.7362 31.5237C58.2724 31.5237 57.7675 31.5919 57.2218 31.7284C57.1126 31.4555 57.0581 31.169 57.0581 30.8688C57.0854 30.5686 57.0308 30.2958 56.8943 30.0502C56.8671 29.9683 56.8398 29.9001 56.8125 29.8455C56.8125 29.7637 56.8125 29.6818 56.8125 29.5999C56.8943 29.2725 56.9353 29.0542 56.9353 28.945C56.9353 28.8086 56.9353 28.6722 56.9353 28.5357C56.9353 28.1537 56.9216 27.7717 56.8943 27.3897C56.8671 26.9803 56.8807 26.5847 56.9353 26.2027C56.9353 26.0662 56.9489 25.9434 56.9762 25.8343C57.0308 25.7251 57.0581 25.6023 57.0581 25.4659C57.0581 25.3295 57.0308 25.2339 56.9762 25.1794C56.9216 25.1248 56.8943 25.0566 56.8943 24.9747C56.8943 24.8929 56.8943 24.7564 56.8943 24.5654C56.9216 24.3744 56.9626 24.2516 57.0171 24.197C57.0171 23.9787 57.0171 23.7741 57.0171 23.5831C57.0444 23.3648 57.0581 23.1601 57.0581 22.9691C57.0581 22.5325 57.0444 22.0959 57.0171 21.6593C56.9899 21.2227 56.9762 20.7997 56.9762 20.3904C56.9762 20.1994 56.9626 20.0766 56.9353 20.022C56.908 19.9675 56.8807 19.9265 56.8534 19.8993C56.8261 19.872 56.7852 19.8583 56.7306 19.8583C56.676 19.831 56.6351 19.7765 56.6078 19.6946C56.717 18.4939 56.676 17.2933 56.485 16.0926C56.294 14.892 56.1985 13.6777 56.1985 12.4498C56.1985 12.2588 56.2258 12.1223 56.2804 12.0405C56.335 11.9313 56.4032 11.8495 56.485 11.7949C56.5669 11.7403 56.6351 11.6857 56.6897 11.6312C56.7716 11.5493 56.8261 11.4401 56.8534 11.3037C57.0717 11.3583 57.2627 11.3583 57.4265 11.3037Z" fill="#BAC4D1"/>
<path d="M73.2259 20.7997C73.2805 20.9362 73.4715 21.2227 73.7989 21.6593C74.1537 22.0959 74.5493 22.5734 74.9859 23.0919C75.4225 23.6103 75.8318 24.1152 76.2139 24.6063C76.6232 25.0702 76.9097 25.4113 77.0734 25.6296C77.3736 26.0116 77.6601 26.3937 77.933 26.7757C78.2331 27.1304 78.506 27.5124 78.7516 27.9218L79.4884 29.1497C79.7067 29.4226 79.8977 29.6545 80.0614 29.8455C80.2524 30.0365 80.4025 30.2958 80.5116 30.6232C80.5662 30.8415 80.5935 30.9916 80.5935 31.0735C80.5935 31.2645 80.5253 31.4009 80.3888 31.4828C80.1705 31.4828 80.0478 31.5101 80.0205 31.5646C80.0205 31.6465 79.9659 31.7147 79.8567 31.7693C79.7476 31.8239 79.5702 31.8512 79.3246 31.8512C79.1063 31.8784 78.929 31.8921 78.7925 31.8921C78.5469 31.8921 78.2331 31.8784 77.8511 31.8512C77.4964 31.8512 77.2099 31.8921 76.9916 31.9739C76.937 32.0012 76.8551 32.0422 76.746 32.0967C76.6368 32.1513 76.555 32.1786 76.5004 32.1786C76.2821 32.1786 76.1184 32.1377 76.0092 32.0558C75.9273 32.0012 75.8046 31.9603 75.6408 31.933C75.4225 31.6874 75.2315 31.4418 75.0678 31.1963C74.9314 30.9234 74.7676 30.6505 74.5766 30.3776C74.3856 30.1866 74.1946 30.0229 74.0036 29.8865C73.8126 29.7227 73.6488 29.5454 73.5124 29.3544C73.1031 28.754 72.6801 28.1673 72.2435 27.5943C71.8069 27.0213 71.3567 26.4619 70.8928 25.9161C70.6745 25.616 70.4426 25.3431 70.197 25.0975C69.9514 24.8519 69.7195 24.579 69.5012 24.2789C69.2829 24.006 69.0782 23.7195 68.8872 23.4193C68.6962 23.0919 68.5052 22.7781 68.3141 22.4779C68.1504 22.2323 67.9321 21.9185 67.6592 21.5365C67.3864 21.1272 67.0862 20.7315 66.7588 20.3495C66.4313 19.9402 66.1039 19.5582 65.7764 19.2034C65.449 18.8487 65.1761 18.5758 64.9578 18.3848C64.9305 18.2211 64.8623 18.0983 64.7531 18.0164C64.644 17.9073 64.5212 17.8118 64.3848 17.7299C64.3302 17.5935 64.2756 17.4707 64.221 17.3615C64.1392 17.2251 64.0982 17.0886 64.0982 16.9522C64.0982 16.7612 64.1392 16.5838 64.221 16.4201C64.2756 16.3109 64.3165 16.2154 64.3438 16.1336C64.3438 16.0244 64.3711 15.9153 64.4257 15.8061C64.5621 15.506 64.7395 15.2195 64.9578 14.9466C65.2034 14.6464 65.3944 14.3326 65.5308 14.0052C65.5854 13.9233 65.6127 13.8414 65.6127 13.7596C65.6127 13.6504 65.64 13.5549 65.6945 13.4731C65.7491 13.2548 65.8583 13.0774 66.022 12.9409C66.213 12.7772 66.3631 12.5999 66.4722 12.4088C66.6087 12.1905 66.7315 11.9722 66.8406 11.7539C66.9771 11.5084 67.1135 11.2491 67.2499 10.9763C67.6592 10.2941 68.0822 9.63917 68.5188 9.01155C68.9827 8.35666 69.4466 7.70176 69.9105 7.04686C70.2652 6.50111 70.6063 5.98265 70.9337 5.49147C71.2885 4.97301 71.6432 4.45455 71.998 3.93609C72.189 3.6905 72.3936 3.40398 72.6119 3.07653C72.8302 2.74908 73.0622 2.42163 73.3077 2.09418C73.5806 1.76674 73.8535 1.46657 74.1264 1.1937C74.3992 0.920824 74.6721 0.702525 74.945 0.5388C75.3543 0.511513 75.6272 0.607019 75.7636 0.825318C75.9001 1.01633 76.1047 1.11184 76.3776 1.11184C76.7323 1.1937 76.9643 1.30285 77.0734 1.43929C77.1826 1.57572 77.3054 1.71216 77.4418 1.8486C77.8238 1.8486 78.124 1.91682 78.3423 2.05325C78.5879 2.18969 78.8198 2.39435 79.0381 2.66722C78.9563 2.96738 78.8335 3.24026 78.6697 3.48585C78.506 3.70414 78.3559 3.93609 78.2195 4.18168C78.0012 4.29083 77.8375 4.44091 77.7283 4.63192C77.6465 4.82293 77.51 4.97301 77.319 5.08216C77.0461 5.54605 76.7596 5.99629 76.4594 6.43289C76.1593 6.8422 75.8591 7.25151 75.559 7.66083C75.3952 7.90641 75.2179 8.12471 75.0269 8.31573C74.8631 8.50674 74.7131 8.71139 74.5766 8.92969C74.522 9.01155 74.4675 9.10706 74.4129 9.21621C74.3856 9.29807 74.3447 9.37994 74.2901 9.4618C73.9626 9.98026 73.6079 10.4714 73.2259 10.9353C72.8439 11.3719 72.4891 11.8631 72.1617 12.4088C72.0525 12.5999 71.957 12.8045 71.8752 13.0228C71.8206 13.2138 71.7387 13.4048 71.6296 13.5958C71.5204 13.7596 71.3567 13.9779 71.1384 14.2507C70.9474 14.5236 70.7564 14.8238 70.5654 15.1512C70.3744 15.4514 70.197 15.7516 70.0333 16.0517C69.8968 16.3246 69.8286 16.5565 69.8286 16.7475C69.8559 16.884 70.0196 17.1569 70.3198 17.5662C70.6472 17.9482 71.002 18.3712 71.384 18.835C71.7933 19.2716 72.1753 19.6946 72.5301 20.1039C72.8848 20.4859 73.1167 20.7179 73.2259 20.7997ZM75.9273 13.3503C76.1184 13.7596 76.323 14.1143 76.5413 14.4145C76.6232 14.5236 76.7187 14.6191 76.8278 14.701C76.937 14.7829 77.0188 14.892 77.0734 15.0284C77.128 15.083 77.1826 15.2058 77.2371 15.3968C77.2917 15.5605 77.3463 15.6833 77.4009 15.7652C77.4827 15.9835 77.6465 16.2291 77.892 16.502C78.1376 16.7748 78.2604 17.0204 78.2604 17.2387C78.2604 17.3752 78.2331 17.5252 78.1786 17.689C78.124 17.8527 78.0831 18.0028 78.0558 18.1392C78.0285 18.3029 78.0148 18.4803 78.0148 18.6713C78.0148 18.835 77.9603 18.9851 77.8511 19.1216C77.7147 19.258 77.5646 19.3399 77.4009 19.3671C77.2371 19.3944 77.0871 19.4627 76.9506 19.5718C76.896 19.6264 76.8142 19.7219 76.705 19.8583C76.5959 19.9948 76.4867 20.1448 76.3776 20.3086C76.2684 20.4723 76.1593 20.636 76.0501 20.7997C75.9683 20.9362 75.9273 21.0453 75.9273 21.1272C75.5999 21.1545 75.3816 21.1681 75.2724 21.1681C75.1906 21.1408 75.0951 21.1408 74.9859 21.1681C74.8495 21.0317 74.6994 20.9225 74.5357 20.8407C74.3992 20.7315 74.2219 20.636 74.0036 20.5541C73.949 20.3358 73.8262 20.0903 73.6352 19.8174C73.4442 19.5172 73.2805 19.2716 73.144 19.0806L72.8575 18.7122C72.4482 18.1392 72.0662 17.5935 71.7114 17.075C71.384 16.5292 71.1384 15.9289 70.9747 15.274C71.4931 14.892 71.8888 14.6055 72.1617 14.4145C72.4618 14.2235 72.7756 14.0461 73.1031 13.8824C73.4305 13.7186 73.7443 13.5686 74.0445 13.4321C74.372 13.2684 74.6721 13.0774 74.945 12.8591C75.1633 12.8591 75.3134 12.8727 75.3952 12.9C75.4771 12.9273 75.5317 12.9546 75.559 12.9819C75.5863 13.0092 75.6135 13.0637 75.6408 13.1456C75.6954 13.2002 75.7909 13.2684 75.9273 13.3503Z" fill="#BAC4D1"/>
<path d="M95.8199 0.293213C95.8472 0.375075 95.97 0.470581 96.1883 0.579731C96.4339 0.688881 96.584 0.743456 96.6385 0.743456C97.0205 0.688881 97.2388 0.702525 97.2934 0.784387C97.3753 0.838962 97.4571 0.907181 97.539 0.989043C97.6482 0.934468 97.73 0.879893 97.7846 0.825318C97.8665 0.743456 97.9756 0.702525 98.112 0.702525C98.2485 0.784387 98.3303 0.907181 98.3576 1.07091C98.4122 1.20734 98.4804 1.34378 98.5623 1.48022C98.535 1.83495 98.535 2.0669 98.5623 2.17605C98.5896 2.25791 98.6032 2.35342 98.6032 2.46257C98.6032 2.87188 98.4804 3.32212 98.2348 3.81329C97.9893 4.27718 97.8119 4.71378 97.7027 5.12309C97.5663 5.25953 97.4708 5.40961 97.4162 5.57334C97.3889 5.73706 97.3207 5.88714 97.2116 6.02358C97.1297 6.29645 97.0069 6.54204 96.8432 6.76034C96.6795 6.95135 96.5703 7.1833 96.5157 7.45617C96.4884 7.48346 96.4202 7.57896 96.3111 7.74269C96.2292 7.90641 96.1337 8.08378 96.0246 8.27479C95.9154 8.46581 95.8063 8.65682 95.6971 8.84783C95.6152 9.03884 95.5607 9.16164 95.5334 9.21621C95.4515 9.35265 95.3833 9.48909 95.3287 9.62552C95.3014 9.73467 95.2469 9.84382 95.165 9.95297C95.1104 10.1167 95.0149 10.3214 94.8785 10.5669C94.7693 10.7852 94.6329 11.0172 94.4692 11.2628C94.3327 11.5084 94.2099 11.7539 94.1008 11.9995C93.9916 12.2178 93.9371 12.3816 93.9371 12.4907C93.7461 12.709 93.6369 12.9546 93.6096 13.2275C92.8729 14.6191 92.218 16.0517 91.6449 17.5252C91.0719 18.9715 90.4579 20.4041 89.803 21.823C89.7484 22.0686 89.7075 22.2187 89.6802 22.2733C89.6802 22.3278 89.6529 22.3688 89.5984 22.3961C89.5165 22.5871 89.421 22.7781 89.3118 22.9691C89.2027 23.1328 89.1208 23.3102 89.0663 23.5012C88.9571 23.8014 88.8616 24.0879 88.7797 24.3607C88.7252 24.6063 88.6024 24.8656 88.4114 25.1384C88.3841 25.3022 88.3295 25.4659 88.2476 25.6296C88.1658 25.7661 88.1385 25.9161 88.1658 26.0799C88.2476 26.1617 88.3704 26.2163 88.5341 26.2436C88.7252 26.2436 88.8752 26.2436 88.9844 26.2436C89.1481 26.2436 89.3118 26.2436 89.4756 26.2436C89.6393 26.2163 89.803 26.2027 89.9667 26.2027C90.1305 26.2027 90.2805 26.2163 90.417 26.2436C90.5534 26.2436 90.6899 26.2436 90.8263 26.2436H91.8496C91.9587 26.2436 92.0542 26.2572 92.1361 26.2845C92.2452 26.2845 92.3408 26.2845 92.4226 26.2845C92.7228 26.2845 93.0366 26.2709 93.364 26.2436C93.7188 26.2163 94.0599 26.2027 94.3873 26.2027C94.5783 26.2027 94.783 26.2027 95.0013 26.2027C95.2196 26.1754 95.4379 26.189 95.6562 26.2436C95.738 26.2709 95.7926 26.3118 95.8199 26.3664C95.8745 26.421 95.97 26.421 96.1064 26.3664C96.352 26.612 96.5021 26.762 96.5567 26.8166C96.6112 26.8712 96.6658 26.9258 96.7204 26.9803C96.7204 27.0895 96.7204 27.185 96.7204 27.2669C96.7477 27.3214 96.7613 27.3897 96.7613 27.4715C96.7613 27.7717 96.7886 27.9763 96.8432 28.0855C96.6795 28.3311 96.6249 28.5084 96.6795 28.6176L96.4748 29.0678C96.4748 29.2043 96.4475 29.3544 96.3929 29.5181C96.3384 29.6545 96.3384 29.791 96.3929 29.9274C96.2565 30.1457 96.161 30.3913 96.1064 30.6642C96.0791 30.9097 95.9973 31.1417 95.8608 31.36C95.6425 31.4418 95.4242 31.4828 95.2059 31.4828C94.9876 31.4555 94.7693 31.4691 94.551 31.5237C94.4146 31.4691 94.2236 31.4418 93.978 31.4418C93.7597 31.4418 93.5414 31.4555 93.3231 31.4828C93.1321 31.5101 92.9274 31.5237 92.7091 31.5237C92.6273 31.5237 92.5454 31.5237 92.4635 31.5237C92.3817 31.4964 92.2998 31.4828 92.218 31.4828C91.9178 31.5373 91.7541 31.551 91.7268 31.5237C91.7268 31.4964 91.6995 31.4828 91.6449 31.4828C91.3448 31.4828 91.0446 31.4964 90.7444 31.5237C90.4443 31.5237 90.1441 31.5237 89.8439 31.5237C89.7348 31.5237 89.6393 31.5373 89.5574 31.5646C89.4756 31.5919 89.3937 31.6056 89.3118 31.6056C89.23 31.6056 89.1481 31.5919 89.0663 31.5646C88.9844 31.5373 88.9025 31.5237 88.8207 31.5237C88.6842 31.5237 88.5341 31.5373 88.3704 31.5646C88.2067 31.5919 88.043 31.6056 87.8792 31.6056C87.7974 31.6056 87.7155 31.5919 87.6337 31.5646C87.5518 31.5646 87.4699 31.5646 87.3881 31.5646C87.2516 31.5646 87.1152 31.5919 86.9788 31.6465C86.8423 31.7011 86.6922 31.7011 86.5285 31.6465L85.9555 31.7284C85.5189 31.7284 85.0823 31.7556 84.6457 31.8102C84.2364 31.8648 83.8134 31.8921 83.3768 31.8921C83.1312 31.8921 82.9675 31.8784 82.8857 31.8512C82.7492 31.742 82.5855 31.6738 82.3945 31.6465C82.2035 31.6192 82.0261 31.5646 81.8624 31.4828C81.8351 31.2645 81.7396 31.1007 81.5759 30.9916C81.4121 30.8825 81.262 30.7597 81.1256 30.6232C81.1529 30.2958 81.1256 30.0911 81.0437 30.0093C81.071 29.5727 80.9892 29.2861 80.7982 29.1497C80.8254 28.9041 80.921 28.6722 81.0847 28.4539C81.2484 28.2356 81.3439 28.0036 81.3712 27.758C81.5895 27.5397 81.7259 27.376 81.7805 27.2669C81.8351 27.1577 81.8624 27.0349 81.8624 26.8985C82.0261 26.7075 82.1762 26.4755 82.3126 26.2027C82.4763 25.9025 82.6264 25.5887 82.7629 25.2612C82.8993 24.9338 83.0221 24.62 83.1312 24.3198C83.2404 23.9924 83.3359 23.7059 83.4178 23.4603C83.6361 23.1601 83.7998 22.8463 83.9089 22.5188C84.0181 22.1914 84.1409 21.8639 84.2773 21.5365C84.4956 21.1545 84.632 20.8816 84.6866 20.7179C84.7685 20.5269 84.8776 20.3631 85.0141 20.2267C85.0414 20.1175 85.1096 19.9129 85.2187 19.6127C85.3552 19.2853 85.4916 18.9442 85.628 18.5895C85.7645 18.2347 85.9009 17.9209 86.0373 17.648C86.2011 17.3479 86.3102 17.1569 86.3648 17.075C86.3921 16.9386 86.4467 16.8021 86.5285 16.6657C86.6104 16.5292 86.6513 16.3928 86.6513 16.2564C86.9242 15.9016 87.1425 15.465 87.3062 14.9466C87.4699 14.4281 87.6473 13.9779 87.8383 13.5958C88.0293 13.1865 88.234 12.7909 88.4523 12.4088C88.6706 11.9995 88.8889 11.5902 89.1072 11.1809C89.9531 9.54366 90.799 7.89277 91.6449 6.22823C91.5903 6.0918 91.4676 6.02358 91.2765 6.02358C91.1128 6.02358 90.9764 5.98265 90.8672 5.90078C90.6489 5.95536 90.4443 5.969 90.2533 5.94172C90.0622 5.91443 89.8576 5.90078 89.6393 5.90078C89.1208 5.79164 88.6842 5.7507 88.3295 5.77799C88.002 5.77799 87.6746 5.77799 87.3471 5.77799C87.1834 5.77799 87.0061 5.76435 86.815 5.73706C86.6513 5.70977 86.4876 5.69613 86.3239 5.69613C85.9146 5.69613 85.4916 5.72342 85.055 5.77799C84.6457 5.83257 84.25 5.90078 83.868 5.98265C83.6224 5.92807 83.3632 5.90078 83.0903 5.90078C82.8447 5.90078 82.6128 5.8735 82.3945 5.81892C82.2853 5.40961 82.258 5.17767 82.3126 5.12309C82.258 5.04123 82.1898 4.97301 82.108 4.91844C82.0534 4.83657 81.9988 4.75471 81.9442 4.67285C81.9715 4.42726 81.9442 4.27718 81.8624 4.22261C81.8078 4.14074 81.7532 4.03159 81.6986 3.89516C81.6986 3.70414 81.685 3.52678 81.6577 3.36305C81.6577 3.17204 81.685 2.98103 81.7396 2.79002C81.685 2.68087 81.6168 2.599 81.5349 2.54443C81.4531 2.46257 81.3848 2.3807 81.3303 2.29884C81.3576 2.1624 81.3576 2.05325 81.3303 1.97139C81.3303 1.86224 81.3439 1.75309 81.3712 1.64394C81.5349 1.5075 81.7123 1.412 81.9033 1.35742C82.0943 1.27556 82.2444 1.15277 82.3535 0.989043C82.7083 0.879893 83.063 0.811675 83.4178 0.784387C83.7998 0.7571 84.1682 0.743456 84.5229 0.743456C84.9049 0.743456 85.2597 0.7571 85.5871 0.784387C85.9418 0.784387 86.2829 0.798031 86.6104 0.825318C86.856 0.825318 87.0743 0.866249 87.2653 0.948112C87.4836 1.00269 87.7019 1.04362 87.9202 1.07091C88.0566 1.09819 88.1931 1.11184 88.3295 1.11184C88.4659 1.08455 88.6024 1.07091 88.7388 1.07091C89.2027 1.07091 89.6666 1.08455 90.1305 1.11184C90.6216 1.11184 91.0992 1.11184 91.5631 1.11184C91.9451 1.11184 92.2998 1.11184 92.6273 1.11184C92.9547 1.11184 93.2822 1.08455 93.6096 1.02997C93.7188 0.920824 93.8006 0.811675 93.8552 0.702525C93.9098 0.593375 93.9644 0.484225 94.0189 0.375075C94.2645 0.375075 94.4282 0.388719 94.5101 0.416006C94.592 0.416006 94.6602 0.416006 94.7148 0.416006L95.2059 0.620662C95.3151 0.620662 95.4379 0.607019 95.5743 0.579731C95.7108 0.525156 95.7926 0.42965 95.8199 0.293213Z" fill="#BAC4D1"/>
<path d="M120.788 15.274C120.733 15.3832 120.679 15.4923 120.624 15.6015C120.57 15.6833 120.529 15.7788 120.501 15.888C120.611 15.9971 120.706 16.1199 120.788 16.2564C120.897 16.3655 120.952 16.4883 120.952 16.6248C120.952 16.7339 120.924 16.8431 120.87 16.9522C120.842 17.0341 120.842 17.1159 120.87 17.1978C120.761 17.3888 120.638 17.5662 120.501 17.7299C120.392 17.8936 120.31 18.071 120.256 18.262C120.147 18.3712 120.051 18.4803 119.969 18.5895C119.915 18.6986 119.86 18.8078 119.806 18.9169C119.669 18.9715 119.574 19.067 119.519 19.2034C119.492 19.3126 119.424 19.4081 119.314 19.4899C119.287 19.5991 119.151 19.8583 118.905 20.2676C118.66 20.6769 118.387 21.1135 118.086 21.5774C117.786 22.0413 117.5 22.4916 117.227 22.9282C116.954 23.3648 116.763 23.6513 116.654 23.7877C116.599 23.9242 116.531 24.0333 116.449 24.1152C116.395 24.197 116.326 24.2925 116.245 24.4017C116.19 24.4835 116.149 24.579 116.122 24.6882C116.094 24.7701 116.054 24.8383 115.999 24.8929C115.944 25.002 115.876 25.0975 115.794 25.1794C115.74 25.2612 115.685 25.3704 115.631 25.5068C115.358 25.8616 115.085 26.2845 114.812 26.7757C114.539 27.2669 114.28 27.7035 114.034 28.0855C113.898 28.3038 113.761 28.5221 113.625 28.7404C113.516 28.9587 113.393 29.177 113.257 29.3953C113.12 29.6136 112.984 29.8182 112.847 30.0093C112.711 30.2003 112.574 30.4049 112.438 30.6232C112.22 30.7869 112.029 30.9916 111.865 31.2372C111.701 31.4555 111.51 31.6465 111.292 31.8102C110.937 31.8102 110.719 31.6465 110.637 31.319C110.282 31.2372 110.105 31.2372 110.105 31.319C110.105 31.4009 110.105 31.4691 110.105 31.5237C109.996 31.5783 109.914 31.6601 109.859 31.7693C109.832 31.8784 109.764 31.9603 109.655 32.0149C109.436 31.9603 109.245 31.8648 109.082 31.7284C108.945 31.6192 108.741 31.5783 108.468 31.6056C108.358 31.4418 108.236 31.3054 108.099 31.1963C107.963 31.0598 107.84 30.9234 107.731 30.7869C107.676 30.6232 107.594 30.4868 107.485 30.3776C107.403 30.2685 107.322 30.1593 107.24 30.0502C107.158 29.9137 107.076 29.791 106.994 29.6818C106.912 29.5727 106.83 29.4635 106.749 29.3544C106.558 29.1088 106.367 28.8768 106.175 28.6585C106.012 28.4129 105.862 28.1673 105.725 27.9218C105.507 27.5943 105.289 27.2669 105.07 26.9394C104.879 26.5847 104.675 26.2436 104.456 25.9161C104.347 25.7524 104.238 25.5887 104.129 25.425C104.02 25.2612 103.924 25.0975 103.842 24.9338C103.788 24.7973 103.706 24.6336 103.597 24.4426C103.515 24.2516 103.406 24.1288 103.269 24.0742C103.215 23.8559 103.119 23.6922 102.983 23.5831C102.846 23.4739 102.71 23.3375 102.574 23.1737C102.383 22.9554 102.205 22.7235 102.041 22.4779C101.878 22.205 101.714 21.9322 101.55 21.6593C101.005 20.8952 100.486 20.1448 99.9949 19.4081C99.531 18.6713 99.0671 17.9073 98.6032 17.1159C98.7397 16.6793 98.8079 16.3519 98.8079 16.1336C98.8079 15.9153 98.8761 15.7379 99.0125 15.6015C99.0125 15.4923 99.0398 15.3286 99.0944 15.1103C99.4491 14.51 99.7902 13.9642 100.118 13.4731C100.418 13.0092 100.622 12.6271 100.732 12.327C100.868 12.0268 101.005 11.713 101.141 11.3856C101.277 11.3037 101.387 11.2082 101.468 11.099C101.55 10.9626 101.659 10.8398 101.796 10.7307C101.85 10.4305 101.973 10.1849 102.164 9.9939C102.355 9.7756 102.478 9.51637 102.533 9.21621C102.778 9.0252 102.915 8.8069 102.942 8.56131C103.297 8.31573 103.515 7.98828 103.597 7.57896C103.815 7.36066 103.992 7.11508 104.129 6.8422C104.293 6.56933 104.443 6.28281 104.579 5.98265C104.907 5.70977 105.166 5.35504 105.357 4.91844C105.521 4.80929 105.643 4.65921 105.725 4.46819C105.807 4.27718 105.916 4.11346 106.053 3.97702C106.271 3.62228 106.435 3.33576 106.544 3.11746C106.68 2.87188 106.817 2.62629 106.953 2.3807C107.144 2.3807 107.267 2.31248 107.322 2.17605C107.376 2.03961 107.485 1.98504 107.649 2.01232C107.649 1.76674 107.717 1.54844 107.854 1.35742C107.908 1.33014 107.99 1.30285 108.099 1.27556C108.208 1.22099 108.263 1.16641 108.263 1.11184C108.208 0.784387 108.222 0.593375 108.304 0.5388C108.386 0.484225 108.454 0.42965 108.509 0.375075C108.809 0.42965 109.013 0.470581 109.123 0.497869C109.232 0.525156 109.409 0.620662 109.655 0.784387C109.928 0.784387 110.119 0.838962 110.228 0.948112C110.337 1.05726 110.46 1.13912 110.596 1.1937C110.705 1.30285 110.787 1.412 110.842 1.52115C110.924 1.6303 111.033 1.71216 111.169 1.76674C111.387 2.0669 111.619 2.39435 111.865 2.74908C112.111 3.10382 112.342 3.43127 112.561 3.73143C112.861 4.14074 113.161 4.53641 113.461 4.91844C113.789 5.27317 114.089 5.66884 114.362 6.10544C114.444 6.24188 114.594 6.48747 114.812 6.8422C115.03 7.16965 115.276 7.52439 115.549 7.90641C115.822 8.28844 116.067 8.64317 116.285 8.97062C116.504 9.27079 116.654 9.44815 116.736 9.50273C116.818 9.63917 116.995 9.8984 117.268 10.2804C117.541 10.6624 117.827 11.0718 118.127 11.5084C118.455 11.9177 118.769 12.3133 119.069 12.6954C119.369 13.0774 119.574 13.323 119.683 13.4321C119.983 13.8414 120.201 14.1825 120.338 14.4554C120.501 14.701 120.651 14.9739 120.788 15.274ZM111.415 22.9691C111.715 22.5598 111.947 22.1914 112.111 21.8639C112.274 21.5365 112.438 21.209 112.602 20.8816C112.875 20.5541 113.038 20.3222 113.093 20.1858C113.147 20.0493 113.216 19.9129 113.298 19.7765C113.516 19.449 113.734 19.1216 113.952 18.7941C114.198 18.4667 114.389 18.1119 114.525 17.7299C114.689 17.6207 114.812 17.4843 114.894 17.3206C114.976 17.1569 115.098 17.0068 115.262 16.8703C115.098 16.2973 114.907 15.8607 114.689 15.5605C114.471 15.2331 114.253 14.9193 114.034 14.6191C113.952 14.4827 113.871 14.3463 113.789 14.2098C113.707 14.0734 113.625 13.9369 113.543 13.8005C113.434 13.7186 113.338 13.6368 113.257 13.5549C113.202 13.4731 113.134 13.3912 113.052 13.3093C112.997 13.1729 112.915 12.9955 112.806 12.7772C112.697 12.6408 112.588 12.518 112.479 12.4088C112.37 12.2997 112.274 12.1633 112.192 11.9995C112.083 11.8904 111.947 11.7403 111.783 11.5493C111.619 11.3583 111.442 11.1536 111.251 10.9353C111.087 10.6897 110.937 10.4714 110.801 10.2804C110.664 10.0621 110.555 9.88475 110.473 9.74832C110.419 9.61188 110.364 9.50273 110.31 9.42087C110.282 9.31172 110.241 9.20257 110.187 9.09342C110.05 8.9024 109.914 8.73868 109.777 8.60224C109.641 8.43852 109.505 8.26115 109.368 8.07014C109.286 8.12471 109.204 8.16564 109.123 8.19293C109.068 8.19293 109.013 8.22022 108.959 8.27479C108.768 8.62953 108.549 8.95698 108.304 9.25714C108.086 9.5573 107.867 9.88475 107.649 10.2395C107.458 10.5669 107.267 10.908 107.076 11.2628C106.885 11.5902 106.694 11.9177 106.503 12.2451C106.367 12.4361 106.23 12.6271 106.094 12.8182C105.984 12.9819 105.862 13.1729 105.725 13.3912C105.589 13.5822 105.466 13.7869 105.357 14.0052C105.275 14.1962 105.166 14.3872 105.029 14.5782C104.811 14.8511 104.634 15.0967 104.497 15.315C104.361 15.5333 104.224 15.7925 104.088 16.0926C104.17 16.2564 104.293 16.4883 104.456 16.7885C104.647 17.0614 104.838 17.3479 105.029 17.648C105.22 17.9209 105.384 18.1801 105.521 18.4257C105.684 18.6713 105.78 18.835 105.807 18.9169C106.025 19.1079 106.203 19.3262 106.339 19.5718C106.476 19.7901 106.653 20.0084 106.871 20.2267C106.98 20.445 107.103 20.636 107.24 20.7997C107.376 20.9635 107.513 21.1408 107.649 21.3318C107.785 21.5229 107.963 21.8094 108.181 22.1914C108.399 22.5461 108.618 22.9145 108.836 23.2965C109.054 23.6786 109.273 24.0333 109.491 24.3607C109.709 24.6882 109.887 24.8929 110.023 24.9747C110.296 24.6746 110.514 24.3471 110.678 23.9924C110.869 23.6103 111.115 23.2693 111.415 22.9691Z" fill="#BAC4D1"/>
<path d="M136.874 0.989043C137.31 0.934468 137.638 0.975399 137.856 1.11184C138.102 1.22099 138.347 1.28921 138.593 1.31649C138.729 1.34378 138.866 1.35742 139.002 1.35742C139.166 1.33014 139.33 1.31649 139.493 1.31649C139.848 1.31649 140.121 1.35742 140.312 1.43929C140.53 1.52115 140.749 1.69852 140.967 1.97139C141.022 2.02597 141.09 2.10783 141.172 2.21698C141.281 2.29884 141.335 2.3807 141.335 2.46257C141.335 2.68087 141.281 2.87188 141.172 3.0356C141.062 3.19933 141.008 3.43127 141.008 3.73143C141.008 4.19532 141.062 4.65921 141.172 5.12309C141.281 5.55969 141.349 6.00993 141.376 6.47382C141.513 8.16564 141.581 9.87111 141.581 11.5902C141.608 13.282 141.622 14.9602 141.622 16.6248C141.622 16.8431 141.608 17.0477 141.581 17.2387C141.581 17.4024 141.526 17.5525 141.417 17.689V18.2211C141.39 18.9305 141.404 19.6537 141.458 20.3904C141.513 21.0999 141.54 21.8094 141.54 22.5188C141.54 23.1465 141.499 23.7741 141.417 24.4017C141.363 25.0293 141.335 25.6705 141.335 26.3254C141.335 26.9258 141.376 27.5124 141.458 28.0855C141.54 28.6585 141.581 29.2452 141.581 29.8455C141.445 30.0911 141.363 30.2821 141.335 30.4186C141.308 30.555 141.254 30.6778 141.172 30.7869C141.09 30.8415 140.994 30.8552 140.885 30.8279C140.803 30.8006 140.735 30.8279 140.68 30.9097C140.544 31.0735 140.449 31.2645 140.394 31.4828C140.339 31.7011 140.203 31.8784 139.985 32.0149C139.93 32.3969 139.78 32.6834 139.534 32.8744C139.316 33.0927 139.152 33.3656 139.043 33.6931C138.716 33.7203 138.484 33.7067 138.347 33.6521C138.238 33.5976 138.115 33.543 137.979 33.4884C137.952 33.0245 137.952 32.6834 137.979 32.4651C138.034 32.2741 138.061 32.0695 138.061 31.8512C138.061 31.5783 137.993 31.3736 137.856 31.2372C137.72 31.1007 137.624 30.9234 137.57 30.7051C137.27 30.5141 137.065 30.3913 136.956 30.3367C136.847 30.2548 136.751 30.1593 136.669 30.0502C136.505 29.8319 136.369 29.5999 136.26 29.3544C136.151 29.1088 136.028 28.8768 135.892 28.6585C135.51 28.0309 135.114 27.3897 134.705 26.7348C134.322 26.0799 133.9 25.4386 133.436 24.811C133.354 24.6746 133.258 24.5518 133.149 24.4426C133.04 24.3335 132.944 24.2107 132.863 24.0742C132.399 23.3375 131.962 22.5871 131.553 21.823C131.144 21.059 130.666 20.3358 130.12 19.6537C129.902 19.3808 129.738 19.0806 129.629 18.7532C129.52 18.3984 129.356 18.0983 129.138 17.8527C129.111 17.9891 129.097 18.1392 129.097 18.3029C129.097 18.4667 129.097 18.6167 129.097 18.7532C129.097 19.681 129.111 20.6087 129.138 21.5365C129.192 22.437 129.22 23.3511 129.22 24.2789C129.22 24.4699 129.192 24.6473 129.138 24.811C129.111 24.9474 129.097 25.1112 129.097 25.3022C129.097 25.575 129.111 25.8343 129.138 26.0799C129.165 26.3254 129.179 26.571 129.179 26.8166C129.179 27.1168 129.165 27.4033 129.138 27.6762C129.138 27.949 129.124 28.2219 129.097 28.4948C129.042 28.8495 128.974 29.1906 128.892 29.5181C128.81 29.8182 128.77 30.132 128.77 30.4595C128.77 30.6505 128.783 30.8279 128.81 30.9916C128.865 31.1553 128.892 31.3054 128.892 31.4418C128.701 31.742 128.456 31.8921 128.156 31.8921C127.883 31.8921 127.651 32.0012 127.46 32.2195C127.296 32.1922 127.16 32.2059 127.05 32.2605C126.969 32.315 126.887 32.3423 126.805 32.3423C126.696 32.3423 126.6 32.3287 126.518 32.3014C126.464 32.2741 126.395 32.2605 126.314 32.2605C126.177 32.2605 126.041 32.3287 125.904 32.4651C125.768 32.6016 125.631 32.6698 125.495 32.6698C125.413 32.6698 125.263 32.6152 125.045 32.5061C124.854 32.3969 124.635 32.2605 124.39 32.0967C124.172 31.9603 123.967 31.8102 123.776 31.6465C123.585 31.5101 123.489 31.4009 123.489 31.319C123.462 31.1826 123.448 30.9916 123.448 30.746C123.448 30.4186 123.462 30.1048 123.489 29.8046C123.544 29.4771 123.599 29.1497 123.653 28.8222C123.735 27.8945 123.776 26.9803 123.776 26.0799C123.776 25.1521 123.776 24.2243 123.776 23.2965C123.776 22.9145 123.776 22.5325 123.776 22.1505C123.803 21.7684 123.817 21.3864 123.817 21.0044C123.817 20.1039 123.776 19.2034 123.694 18.3029C123.639 17.3752 123.612 16.461 123.612 15.5605C123.612 14.9329 123.639 14.319 123.694 13.7186C123.749 13.091 123.776 12.4771 123.776 11.8767C123.776 11.4129 123.762 10.9626 123.735 10.526C123.708 10.0894 123.694 9.63917 123.694 9.17528C123.667 8.87512 123.667 8.56131 123.694 8.23386C123.721 7.87913 123.735 7.55168 123.735 7.25151C123.735 6.89678 123.68 6.56933 123.571 6.26917C123.489 5.94172 123.448 5.64155 123.448 5.36868C123.448 5.20496 123.476 5.05487 123.53 4.91844C123.612 4.75471 123.653 4.59099 123.653 4.42726C123.653 4.20896 123.612 3.99066 123.53 3.77236C123.476 3.55406 123.448 3.33576 123.448 3.11746C123.448 2.89916 123.476 2.69451 123.53 2.5035C123.585 2.31248 123.612 2.10783 123.612 1.88953C123.994 1.69852 124.335 1.60301 124.635 1.60301C124.936 1.60301 125.154 1.71216 125.29 1.93046C125.29 2.42163 125.318 2.80366 125.372 3.07653C125.427 3.32212 125.468 3.58135 125.495 3.85423C125.495 4.01795 125.481 4.20896 125.454 4.42726C125.454 4.64556 125.468 4.86386 125.495 5.08216C125.522 5.27317 125.577 5.4369 125.659 5.57334C125.768 5.70977 125.945 5.77799 126.191 5.77799C126.245 5.91443 126.314 6.03722 126.395 6.14637C126.477 6.25552 126.532 6.39196 126.559 6.55568C126.723 6.44653 126.818 6.29645 126.846 6.10544C126.873 5.91443 126.873 5.73706 126.846 5.57334C126.982 5.62791 127.105 5.6552 127.214 5.6552C127.323 5.62791 127.432 5.64155 127.542 5.69613C127.596 6.07815 127.664 6.41925 127.746 6.71941C127.828 6.99228 127.855 7.31973 127.828 7.70176C128.374 8.11107 128.838 8.69775 129.22 9.4618C129.629 10.1986 130.011 10.8671 130.366 11.4674C130.557 11.7676 130.775 12.0541 131.021 12.327C131.294 12.5726 131.498 12.8727 131.635 13.2275C131.853 13.3639 132.03 13.5413 132.167 13.7596C132.303 13.9779 132.426 14.1962 132.535 14.4145C133.081 15.3695 133.681 16.2973 134.336 17.1978C134.991 18.0983 135.673 18.9851 136.383 19.8583C136.41 19.6673 136.424 19.4899 136.424 19.3262C136.424 19.1352 136.424 18.9442 136.424 18.7532L136.383 15.0694C136.383 14.8511 136.369 14.6464 136.342 14.4554C136.342 14.2644 136.328 14.0597 136.301 13.8414C136.246 13.132 136.233 12.4361 136.26 11.7539C136.287 11.0718 136.287 10.3759 136.26 9.66645C136.205 8.92969 136.164 8.17929 136.137 7.41524C136.137 6.65119 136.11 5.88714 136.055 5.12309C136.028 4.65921 136.001 4.19532 135.973 3.73143C135.946 3.26755 135.932 2.80366 135.932 2.33977C135.932 1.76674 135.987 1.24827 136.096 0.784387C136.151 0.729812 136.205 0.688881 136.26 0.661594C136.342 0.607019 136.437 0.579731 136.546 0.579731C136.71 0.579731 136.819 0.716168 136.874 0.989043Z" fill="#BAC4D1"/>
<path d="M152.632 20.7997C152.687 20.9362 152.878 21.2227 153.205 21.6593C153.56 22.0959 153.956 22.5734 154.392 23.0919C154.829 23.6103 155.238 24.1152 155.62 24.6063C156.03 25.0702 156.316 25.4113 156.48 25.6296C156.78 26.0116 157.067 26.3937 157.339 26.7757C157.64 27.1304 157.913 27.5124 158.158 27.9218L158.895 29.1497C159.113 29.4226 159.304 29.6545 159.468 29.8455C159.659 30.0365 159.809 30.2958 159.918 30.6232C159.973 30.8415 160 30.9916 160 31.0735C160 31.2645 159.932 31.4009 159.795 31.4828C159.577 31.4828 159.454 31.5101 159.427 31.5646C159.427 31.6465 159.372 31.7147 159.263 31.7693C159.154 31.8239 158.977 31.8512 158.731 31.8512C158.513 31.8784 158.335 31.8921 158.199 31.8921C157.953 31.8921 157.64 31.8784 157.258 31.8512C156.903 31.8512 156.616 31.8921 156.398 31.9739C156.343 32.0012 156.262 32.0422 156.152 32.0967C156.043 32.1513 155.961 32.1786 155.907 32.1786C155.689 32.1786 155.525 32.1377 155.416 32.0558C155.334 32.0012 155.211 31.9603 155.047 31.933C154.829 31.6874 154.638 31.4418 154.474 31.1963C154.338 30.9234 154.174 30.6505 153.983 30.3776C153.792 30.1866 153.601 30.0229 153.41 29.8865C153.219 29.7227 153.055 29.5454 152.919 29.3544C152.51 28.754 152.087 28.1673 151.65 27.5943C151.213 27.0213 150.763 26.4619 150.299 25.9161C150.081 25.616 149.849 25.3431 149.603 25.0975C149.358 24.8519 149.126 24.579 148.908 24.2789C148.689 24.006 148.485 23.7195 148.294 23.4193C148.103 23.0919 147.912 22.7781 147.721 22.4779C147.557 22.2323 147.339 21.9185 147.066 21.5365C146.793 21.1272 146.493 20.7315 146.165 20.3495C145.838 19.9402 145.51 19.5582 145.183 19.2034C144.855 18.8487 144.583 18.5758 144.364 18.3848C144.337 18.2211 144.269 18.0983 144.16 18.0164C144.05 17.9073 143.928 17.8118 143.791 17.7299C143.737 17.5935 143.682 17.4707 143.628 17.3615C143.546 17.2251 143.505 17.0886 143.505 16.9522C143.505 16.7612 143.546 16.5838 143.628 16.4201C143.682 16.3109 143.723 16.2154 143.75 16.1336C143.75 16.0244 143.778 15.9153 143.832 15.8061C143.969 15.506 144.146 15.2195 144.364 14.9466C144.61 14.6464 144.801 14.3326 144.937 14.0052C144.992 13.9233 145.019 13.8414 145.019 13.7596C145.019 13.6504 145.046 13.5549 145.101 13.4731C145.156 13.2548 145.265 13.0774 145.428 12.9409C145.62 12.7772 145.77 12.5999 145.879 12.4088C146.015 12.1905 146.138 11.9722 146.247 11.7539C146.384 11.5084 146.52 11.2491 146.656 10.9763C147.066 10.2941 147.489 9.63917 147.925 9.01155C148.389 8.35666 148.853 7.70176 149.317 7.04686C149.672 6.50111 150.013 5.98265 150.34 5.49147C150.695 4.97301 151.05 4.45455 151.404 3.93609C151.595 3.6905 151.8 3.40398 152.018 3.07653C152.237 2.74908 152.469 2.42163 152.714 2.09418C152.987 1.76674 153.26 1.46657 153.533 1.1937C153.806 0.920824 154.079 0.702525 154.352 0.5388C154.761 0.511513 155.034 0.607019 155.17 0.825318C155.307 1.01633 155.511 1.11184 155.784 1.11184C156.139 1.1937 156.371 1.30285 156.48 1.43929C156.589 1.57572 156.712 1.71216 156.848 1.8486C157.23 1.8486 157.53 1.91682 157.749 2.05325C157.994 2.18969 158.226 2.39435 158.445 2.66722C158.363 2.96738 158.24 3.24026 158.076 3.48585C157.913 3.70414 157.762 3.93609 157.626 4.18168C157.408 4.29083 157.244 4.44091 157.135 4.63192C157.053 4.82293 156.917 4.97301 156.726 5.08216C156.453 5.54605 156.166 5.99629 155.866 6.43289C155.566 6.8422 155.266 7.25151 154.965 7.66083C154.802 7.90641 154.624 8.12471 154.433 8.31573C154.27 8.50674 154.12 8.71139 153.983 8.92969C153.929 9.01155 153.874 9.10706 153.819 9.21621C153.792 9.29807 153.751 9.37994 153.697 9.4618C153.369 9.98026 153.014 10.4714 152.632 10.9353C152.25 11.3719 151.896 11.8631 151.568 12.4088C151.459 12.5999 151.364 12.8045 151.282 13.0228C151.227 13.2138 151.145 13.4048 151.036 13.5958C150.927 13.7596 150.763 13.9779 150.545 14.2507C150.354 14.5236 150.163 14.8238 149.972 15.1512C149.781 15.4514 149.603 15.7516 149.44 16.0517C149.303 16.3246 149.235 16.5565 149.235 16.7475C149.262 16.884 149.426 17.1569 149.726 17.5662C150.054 17.9482 150.408 18.3712 150.79 18.835C151.2 19.2716 151.582 19.6946 151.937 20.1039C152.291 20.4859 152.523 20.7179 152.632 20.7997ZM155.334 13.3503C155.525 13.7596 155.73 14.1143 155.948 14.4145C156.03 14.5236 156.125 14.6191 156.234 14.701C156.343 14.7829 156.425 14.892 156.48 15.0284C156.534 15.083 156.589 15.2058 156.644 15.3968C156.698 15.5605 156.753 15.6833 156.807 15.7652C156.889 15.9835 157.053 16.2291 157.299 16.502C157.544 16.7748 157.667 17.0204 157.667 17.2387C157.667 17.3752 157.64 17.5252 157.585 17.689C157.53 17.8527 157.49 18.0028 157.462 18.1392C157.435 18.3029 157.421 18.4803 157.421 18.6713C157.421 18.835 157.367 18.9851 157.258 19.1216C157.121 19.258 156.971 19.3399 156.807 19.3671C156.644 19.3944 156.494 19.4627 156.357 19.5718C156.303 19.6264 156.221 19.7219 156.112 19.8583C156.002 19.9948 155.893 20.1448 155.784 20.3086C155.675 20.4723 155.566 20.636 155.457 20.7997C155.375 20.9362 155.334 21.0453 155.334 21.1272C155.006 21.1545 154.788 21.1681 154.679 21.1681C154.597 21.1408 154.502 21.1408 154.392 21.1681C154.256 21.0317 154.106 20.9225 153.942 20.8407C153.806 20.7315 153.628 20.636 153.41 20.5541C153.355 20.3358 153.233 20.0903 153.042 19.8174C152.851 19.5172 152.687 19.2716 152.551 19.0806L152.264 18.7122C151.855 18.1392 151.473 17.5935 151.118 17.075C150.79 16.5292 150.545 15.9289 150.381 15.274C150.9 14.892 151.295 14.6055 151.568 14.4145C151.868 14.2235 152.182 14.0461 152.51 13.8824C152.837 13.7186 153.151 13.5686 153.451 13.4321C153.778 13.2684 154.079 13.0774 154.352 12.8591C154.57 12.8591 154.72 12.8727 154.802 12.9C154.884 12.9273 154.938 12.9546 154.965 12.9819C154.993 13.0092 155.02 13.0637 155.047 13.1456C155.102 13.2002 155.197 13.2684 155.334 13.3503Z" fill="#BAC4D1"/>
</svg>
