<svg width="160" height="26" viewBox="0 0 160 26" fill="none" xmlns="http://www.w3.org/2000/svg">
<path d="M8.34674 0.340088C9.49062 0.340088 10.4736 0.494988 11.2958 0.804789C12.0584 1.10267 12.7733 1.25162 13.4406 1.25162C14.1198 1.25162 14.4593 1.00735 14.4593 0.518819H14.8168L15.1385 6.02373H14.7811C14.7811 5.64244 14.6917 5.18966 14.513 4.66538C14.3342 4.1411 14.0363 3.5632 13.6193 2.93169C13.2023 2.30017 12.541 1.76994 11.6354 1.34098C10.7298 0.912027 9.65743 0.69755 8.41823 0.69755C5.98749 0.69755 4.77212 1.53759 4.77212 3.21766C4.77212 4.77857 5.48108 6.1548 6.89902 7.34634L13.7265 13.1015C15.776 14.8292 16.8007 16.7953 16.8007 18.9996C16.8007 20.8942 15.7879 22.4074 13.7623 23.5394C12.0465 24.5164 9.86595 25.005 7.22073 25.005C5.43342 25.005 3.89634 24.576 2.60947 23.7181C2.25201 23.4798 1.91838 23.3606 1.60858 23.3606C1.09622 23.3606 0.714924 23.6466 0.464701 24.2186C0.393208 24.3854 0.357462 24.5879 0.357462 24.8262H0L0.107239 19.2498H0.464701C0.464701 19.5358 0.524278 19.8754 0.643432 20.2686C0.941317 21.2576 1.57283 22.1989 2.53798 23.0925C3.0146 23.5334 3.66399 23.9028 4.48615 24.2007C5.30831 24.4986 6.21984 24.6475 7.22073 24.6475C8.53143 24.6475 9.58594 24.3198 10.3843 23.6645C11.2064 22.9853 11.6175 22.1572 11.6175 21.1801C11.6175 19.6192 11.1171 18.4158 10.1162 17.5698L3.28865 11.8146C1.17962 10.0392 0.125112 8.06127 0.125112 5.88075C0.125112 4.18876 0.988978 2.81253 2.71671 1.75206C4.24188 0.810746 6.11856 0.340088 8.34674 0.340088Z" fill="#3B4758"/>
<path d="M33.0474 22.0023L33.0652 15.3535H26.6309V21.9665C26.6309 23.6347 27.5842 24.4688 29.4906 24.4688V24.8262H18.0518V24.4688C19.9583 24.4688 20.9115 23.6347 20.9115 21.9665V9.09791C20.9115 7.42975 19.9583 6.59567 18.0518 6.59567V6.23821H25.2011C26.1543 6.23821 26.6309 7.19144 26.6309 9.09791V14.996H33.0652V9.09791C33.0652 7.42975 32.112 6.59567 30.2055 6.59567V6.23821H41.6443V6.59567C39.7379 6.59567 38.7846 7.42975 38.7846 9.09791V21.9665C38.7846 23.6347 39.7379 24.4688 41.6443 24.4688L41.6265 24.8262H34.4772C33.524 24.8262 33.0474 23.8849 33.0474 22.0023Z" fill="#3B4758"/>
<path d="M52.7256 24.6475C54.5368 24.6475 55.7045 24.016 56.2288 22.753C56.7531 21.4661 57.0152 19.0592 57.0152 15.5322C57.0152 12.0053 56.7531 9.59835 56.2288 8.31149C55.7045 7.04846 54.5368 6.41694 52.7256 6.41694C50.6762 6.41694 49.4251 7.20336 48.9723 8.77619C48.6148 10.0392 48.4361 12.2912 48.4361 15.5322C48.4361 18.7732 48.6148 21.0252 48.9723 22.2883C49.4251 23.8611 50.6762 24.6475 52.7256 24.6475ZM60.1609 22.5385C58.4212 24.1828 55.9428 25.005 52.7256 25.005C49.5085 25.005 47.0301 24.1828 45.2904 22.5385C43.5746 20.8942 42.7167 18.5587 42.7167 15.5322C42.7167 12.5295 43.5865 10.1941 45.3262 8.52597C47.0658 6.88164 49.5323 6.05948 52.7256 6.05948C55.919 6.05948 58.3855 6.88164 60.1251 8.52597C61.8648 10.1941 62.7346 12.5295 62.7346 15.5322C62.7346 18.5587 61.8767 20.8942 60.1609 22.5385Z" fill="#3B4758"/>
<path d="M63.4495 6.23821H74.8883C77.8671 6.23821 80.1966 6.82802 81.8767 8.00765C83.8904 9.42558 84.8972 11.2188 84.8972 13.3875C84.8972 15.5561 83.8904 17.2302 81.8767 18.4098C80.2681 19.3511 77.9386 19.8218 74.8883 19.8218H72.0286V21.9665C72.0286 23.6347 72.9818 24.4688 74.8883 24.4688V24.8262H63.4495V24.4688C65.356 24.4688 66.3092 23.6347 66.3092 21.9665V8.77619C66.2377 7.32251 65.2845 6.59567 63.4495 6.59567V6.23821ZM72.0286 6.59567V19.4643H74.8883C77.748 19.4643 79.1778 17.4387 79.1778 13.3875C79.1778 8.8596 77.748 6.59567 74.8883 6.59567H72.0286Z" fill="#3B4758"/>
<path d="M89.7945 8.4366C89.1749 7.20932 88.1501 6.59567 86.7203 6.59567V6.23821H93.6193C94.644 6.23821 95.4424 7.11995 96.0143 8.88343L100.304 22.038C100.828 23.6585 101.948 24.4688 103.664 24.4688V24.8262H92.2252V24.4688C93.7742 24.4688 94.5487 24.0637 94.5487 23.2534C94.5487 22.9793 94.4772 22.6219 94.3342 22.181L92.7435 17.3195H87.3101L85.7194 22.181C85.5764 22.6219 85.5049 22.9674 85.5049 23.2177C85.5049 24.0517 86.3747 24.4688 88.1144 24.4688V24.8262H82.0375V24.4688C83.7295 24.4688 84.8377 23.6585 85.3619 22.038L89.7945 8.4366ZM92.6363 16.9621L90.0447 9.02641L90.0268 8.99067L87.4173 16.9621H92.6363Z" fill="#3B4758"/>
<path d="M122.091 24.8262H117.891L108.132 9.09791V21.9665C108.132 23.6347 109.085 24.4688 110.992 24.4688V24.8262H104.915V24.4688C106.822 24.4688 107.775 23.6347 107.775 21.9665V9.09791C107.775 7.42975 106.822 6.59567 104.915 6.59567V6.23821H113.083L121.734 20.072V9.09791C121.734 7.42975 120.78 6.59567 118.874 6.59567V6.23821H124.951V6.59567C123.044 6.59567 122.091 7.42975 122.091 9.09791V24.8262Z" fill="#3B4758"/>
<path d="M126.22 6.23821H137.659V6.59567C135.752 6.59567 134.799 7.42975 134.799 9.09791V21.9665C134.799 23.6347 135.752 24.4688 137.659 24.4688V24.8262H126.22V24.4688C128.126 24.4688 129.08 23.6347 129.08 21.9665V9.09791C129.08 7.42975 128.126 6.59567 126.22 6.59567V6.23821Z" fill="#3B4758"/>
<path d="M146.13 8.4366C145.511 7.20932 144.486 6.59567 143.056 6.59567V6.23821H149.955C150.98 6.23821 151.778 7.11995 152.35 8.88343L156.64 22.038C157.164 23.6585 158.284 24.4688 160 24.4688V24.8262H148.561V24.4688C150.11 24.4688 150.885 24.0637 150.885 23.2534C150.885 22.9793 150.813 22.6219 150.67 22.181L149.08 17.3195H143.646L142.055 22.181C141.912 22.6219 141.841 22.9674 141.841 23.2177C141.841 24.0517 142.711 24.4688 144.45 24.4688V24.8262H138.374V24.4688C140.066 24.4688 141.174 23.6585 141.698 22.038L146.13 8.4366ZM148.972 16.9621L146.381 9.02641L146.363 8.99067L143.753 16.9621H148.972Z" fill="#3B4758"/>
</svg>
