<svg width="160" height="81" viewBox="0 0 160 81" fill="none" xmlns="http://www.w3.org/2000/svg">
<path d="M8.34674 24.3401C9.49062 24.3401 10.4736 24.495 11.2958 24.8048C12.0584 25.1027 12.7733 25.2516 13.4406 25.2516C14.1198 25.2516 14.4593 25.0074 14.4593 24.5188H14.8168L15.1385 30.0237H14.7811C14.7811 29.6424 14.6917 29.1897 14.513 28.6654C14.3342 28.1411 14.0363 27.5632 13.6193 26.9317C13.2023 26.3002 12.541 25.7699 11.6354 25.341C10.7298 24.912 9.65743 24.6975 8.41823 24.6975C5.98749 24.6975 4.77212 25.5376 4.77212 27.2177C4.77212 28.7786 5.48108 30.1548 6.89902 31.3463L13.7265 37.1015C15.776 38.8292 16.8007 40.7953 16.8007 42.9996C16.8007 44.8942 15.7879 46.4074 13.7623 47.5394C12.0465 48.5164 9.86595 49.005 7.22073 49.005C5.43342 49.005 3.89634 48.576 2.60947 47.7181C2.25201 47.4798 1.91838 47.3606 1.60858 47.3606C1.09622 47.3606 0.714924 47.6466 0.464701 48.2186C0.393208 48.3854 0.357462 48.5879 0.357462 48.8262H0L0.107239 43.2498H0.464701C0.464701 43.5358 0.524278 43.8754 0.643432 44.2686C0.941317 45.2576 1.57283 46.1989 2.53798 47.0925C3.0146 47.5334 3.66399 47.9028 4.48615 48.2007C5.30831 48.4986 6.21984 48.6475 7.22073 48.6475C8.53143 48.6475 9.58594 48.3198 10.3843 47.6645C11.2064 46.9853 11.6175 46.1572 11.6175 45.1801C11.6175 43.6192 11.1171 42.4158 10.1162 41.5698L3.28865 35.8146C1.17962 34.0392 0.125112 32.0613 0.125112 29.8807C0.125112 28.1888 0.988978 26.8125 2.71671 25.7521C4.24188 24.8107 6.11856 24.3401 8.34674 24.3401Z" fill="#BAC4D1"/>
<path d="M33.0474 46.0023L33.0652 39.3535H26.6309V45.9665C26.6309 47.6347 27.5842 48.4688 29.4906 48.4688V48.8262H18.0518V48.4688C19.9583 48.4688 20.9115 47.6347 20.9115 45.9665V33.0979C20.9115 31.4298 19.9583 30.5957 18.0518 30.5957V30.2382H25.2011C26.1543 30.2382 26.6309 31.1914 26.6309 33.0979V38.996H33.0652V33.0979C33.0652 31.4298 32.112 30.5957 30.2055 30.5957V30.2382H41.6443V30.5957C39.7379 30.5957 38.7846 31.4298 38.7846 33.0979V45.9665C38.7846 47.6347 39.7379 48.4688 41.6443 48.4688L41.6265 48.8262H34.4772C33.524 48.8262 33.0474 47.8849 33.0474 46.0023Z" fill="#BAC4D1"/>
<path d="M52.7256 48.6475C54.5368 48.6475 55.7045 48.016 56.2288 46.753C56.7531 45.4661 57.0152 43.0592 57.0152 39.5322C57.0152 36.0053 56.7531 33.5984 56.2288 32.3115C55.7045 31.0485 54.5368 30.4169 52.7256 30.4169C50.6762 30.4169 49.4251 31.2034 48.9723 32.7762C48.6148 34.0392 48.4361 36.2912 48.4361 39.5322C48.4361 42.7732 48.6148 45.0252 48.9723 46.2883C49.4251 47.8611 50.6762 48.6475 52.7256 48.6475ZM60.1609 46.5385C58.4212 48.1828 55.9428 49.005 52.7256 49.005C49.5085 49.005 47.0301 48.1828 45.2904 46.5385C43.5746 44.8942 42.7167 42.5587 42.7167 39.5322C42.7167 36.5295 43.5865 34.1941 45.3262 32.526C47.0658 30.8816 49.5323 30.0595 52.7256 30.0595C55.919 30.0595 58.3855 30.8816 60.1251 32.526C61.8648 34.1941 62.7346 36.5295 62.7346 39.5322C62.7346 42.5587 61.8767 44.8942 60.1609 46.5385Z" fill="#BAC4D1"/>
<path d="M63.4495 30.2382H74.8883C77.8671 30.2382 80.1966 30.828 81.8767 32.0076C83.8904 33.4256 84.8972 35.2188 84.8972 37.3875C84.8972 39.5561 83.8904 41.2302 81.8767 42.4098C80.2681 43.3511 77.9386 43.8218 74.8883 43.8218H72.0286V45.9665C72.0286 47.6347 72.9818 48.4688 74.8883 48.4688V48.8262H63.4495V48.4688C65.356 48.4688 66.3092 47.6347 66.3092 45.9665V32.7762C66.2377 31.3225 65.2845 30.5957 63.4495 30.5957V30.2382ZM72.0286 30.5957V43.4643H74.8883C77.748 43.4643 79.1778 41.4387 79.1778 37.3875C79.1778 32.8596 77.748 30.5957 74.8883 30.5957H72.0286Z" fill="#BAC4D1"/>
<path d="M89.7945 32.4366C89.1749 31.2093 88.1501 30.5957 86.7203 30.5957V30.2382H93.6193C94.644 30.2382 95.4424 31.12 96.0143 32.8834L100.304 46.038C100.828 47.6585 101.948 48.4688 103.664 48.4688V48.8262H92.2252V48.4688C93.7742 48.4688 94.5487 48.0637 94.5487 47.2534C94.5487 46.9793 94.4772 46.6219 94.3342 46.181L92.7435 41.3195H87.3101L85.7194 46.181C85.5764 46.6219 85.5049 46.9674 85.5049 47.2177C85.5049 48.0517 86.3747 48.4688 88.1144 48.4688V48.8262H82.0375V48.4688C83.7295 48.4688 84.8377 47.6585 85.3619 46.038L89.7945 32.4366ZM92.6363 40.9621L90.0447 33.0264L90.0268 32.9907L87.4173 40.9621H92.6363Z" fill="#BAC4D1"/>
<path d="M122.091 48.8262H117.891L108.132 33.0979V45.9665C108.132 47.6347 109.085 48.4688 110.992 48.4688V48.8262H104.915V48.4688C106.822 48.4688 107.775 47.6347 107.775 45.9665V33.0979C107.775 31.4298 106.822 30.5957 104.915 30.5957V30.2382H113.083L121.734 44.072V33.0979C121.734 31.4298 120.78 30.5957 118.874 30.5957V30.2382H124.951V30.5957C123.044 30.5957 122.091 31.4298 122.091 33.0979V48.8262Z" fill="#BAC4D1"/>
<path d="M126.22 30.2382H137.659V30.5957C135.752 30.5957 134.799 31.4298 134.799 33.0979V45.9665C134.799 47.6347 135.752 48.4688 137.659 48.4688V48.8262H126.22V48.4688C128.126 48.4688 129.08 47.6347 129.08 45.9665V33.0979C129.08 31.4298 128.126 30.5957 126.22 30.5957V30.2382Z" fill="#BAC4D1"/>
<path d="M146.13 32.4366C145.511 31.2093 144.486 30.5957 143.056 30.5957V30.2382H149.955C150.98 30.2382 151.778 31.12 152.35 32.8834L156.64 46.038C157.164 47.6585 158.284 48.4688 160 48.4688V48.8262H148.561V48.4688C150.11 48.4688 150.885 48.0637 150.885 47.2534C150.885 46.9793 150.813 46.6219 150.67 46.181L149.08 41.3195H143.646L142.055 46.181C141.912 46.6219 141.841 46.9674 141.841 47.2177C141.841 48.0517 142.711 48.4688 144.45 48.4688V48.8262H138.374V48.4688C140.066 48.4688 141.174 47.6585 141.698 46.038L146.13 32.4366ZM148.972 40.9621L146.381 33.0264L146.363 32.9907L143.753 40.9621H148.972Z" fill="#BAC4D1"/>
</svg>
