<svg width="160" height="80" viewBox="0 0 160 80" fill="none" xmlns="http://www.w3.org/2000/svg">
<path d="M16.4796 27.3377H10.8031V57.2167H5.67657V27.3377H0V22.7833H16.4796V27.3377Z" fill="#BAC4D1"/>
<path d="M33.3993 57.2167H19.1199V22.7833H33.2673V27.3377H24.2684V37.3927H32.0132V41.8592H24.2684V52.6622H33.3993V57.2167Z" fill="#BAC4D1"/>
<path d="M53.8834 54.0704C53.8834 56.1679 52.8346 57.2167 50.7371 57.2167H40C37.9611 57.2167 36.9417 56.1679 36.9417 54.0704V25.9516C36.9417 23.8394 37.9611 22.7833 40 22.7833H50.7371C52.8346 22.7833 53.8834 23.8394 53.8834 25.9516V34.0044H48.7569V27.2057H42.0902V52.7943H48.7569V45.5555H53.8834V54.0704Z" fill="#BAC4D1"/>
<path d="M75.2475 57.2167H70.055V41.7712H63.0803V57.2167H57.9318V22.7833H63.0803V36.9747H70.055V22.7833H75.2475V57.2167Z" fill="#BAC4D1"/>
<path d="M96.8097 57.2167H92.2992L84.0484 35.5445C84.2684 36.6006 84.3784 37.4294 84.3784 38.0308V57.2167H79.3619V22.7833H83.8724L92.1232 44.0154C91.9032 42.9593 91.7932 42.1305 91.7932 41.5291V22.7833H96.8097V57.2167Z" fill="#BAC4D1"/>
<path d="M118.328 54.0704C118.328 56.1679 117.286 57.2167 115.204 57.2167H104.026C101.988 57.2167 100.968 56.1679 100.968 54.0704V25.9516C100.968 23.8394 101.988 22.7833 104.026 22.7833H115.204C117.286 22.7833 118.328 23.8394 118.328 25.9516V54.0704ZM113.179 52.7943V27.2057H106.117V52.7943H113.179Z" fill="#BAC4D1"/>
<path d="M139.626 22.7833L133.025 57.2607H127.899L121.32 22.7833H126.491L130.341 46.3916C130.37 47.0664 130.414 48.0491 130.473 49.3399C130.458 48.6652 130.502 47.6824 130.605 46.3916L134.477 22.7833H139.626Z" fill="#BAC4D1"/>
<path d="M160 57.2167H154.895L153.861 50.6821H147.415L146.381 57.2167H141.298V57.1287L147.965 22.7393H153.377L160 57.2167ZM153.135 46.2596L150.627 30.7261L148.097 46.2596H153.135Z" fill="#BAC4D1"/>
</svg>
