<svg width="160" height="80" viewBox="0 0 160 80" fill="none" xmlns="http://www.w3.org/2000/svg">
<path d="M26.1384 23.3302H0V31.8652H7.73484V56.67H18.4036V31.8652H26.1384V23.3302Z" fill="#3B4758"/>
<path d="M52.3484 45.5568L58.1273 56.67H46.3917L42.0353 46.757H39.7237V56.67H29.055V23.3302H45.8583C53.5042 23.3302 57.3272 27.2272 57.3272 35.0214C57.3272 40.3557 55.6676 43.8675 52.3484 45.5568ZM42.1687 31.8652H39.7237V38.5332H42.1687C43.4726 38.5332 44.4061 38.3998 44.9692 38.1331C45.5619 37.8664 45.8583 37.2588 45.8583 36.3105V34.0878C45.8583 33.1395 45.5619 32.532 44.9692 32.2653C44.4061 31.9985 43.4726 31.8652 42.1687 31.8652Z" fill="#3B4758"/>
<path d="M71.0312 51.3801H79.833L81.0776 56.67H92.3243L83.7004 23.3302H67.2083L58.5844 56.67H69.831L71.0312 51.3801ZM75.7433 33.5544L77.877 42.8896H72.9872L75.1654 33.5544H75.7433Z" fill="#3B4758"/>
<path d="M116.527 47.1126L117.327 56.0921C115.045 57.0108 112.229 57.4702 108.881 57.4702C105.71 57.4702 103.087 57.1294 101.012 56.4478C98.938 55.7365 97.2932 54.6696 96.0781 53.2471C94.8631 51.8246 94.0037 50.0169 93.4999 47.8239C93.0257 45.6308 92.7886 43.0377 92.7886 40.0446C92.7886 37.1403 93.0109 34.6065 93.4554 32.4431C93.9296 30.2501 94.7594 28.4275 95.9448 26.9753C97.1302 25.4936 98.7305 24.3822 100.746 23.6414C102.791 22.9005 105.369 22.53 108.481 22.53C109.162 22.53 109.918 22.5745 110.748 22.6634C111.607 22.7227 112.437 22.8116 113.237 22.9301C114.067 23.0486 114.837 23.1968 115.549 23.3746C116.289 23.5228 116.882 23.7006 117.327 23.9081L115.726 32.0875C113.356 31.5836 111.237 31.3317 109.37 31.3317C107.443 31.3317 106.11 31.5096 105.369 31.8652C104.628 32.2208 104.258 32.9321 104.258 33.9989V47.9572C104.939 48.1054 105.621 48.2239 106.302 48.3128C107.014 48.3721 107.74 48.4018 108.481 48.4018C111.444 48.4018 114.126 47.972 116.527 47.1126Z" fill="#3B4758"/>
<path d="M131.712 56.67V23.3302H121.043V56.67H131.712Z" fill="#3B4758"/>
<path d="M159.2 47.1126L160 56.0921C157.718 57.0108 154.903 57.4702 151.554 57.4702C148.383 57.4702 145.76 57.1294 143.686 56.4478C141.611 55.7365 139.966 54.6696 138.751 53.2471C137.536 51.8246 136.677 50.0169 136.173 47.8239C135.699 45.6308 135.462 43.0377 135.462 40.0446C135.462 37.1403 135.684 34.6065 136.129 32.4431C136.603 30.2501 137.433 28.4275 138.618 26.9753C139.803 25.4936 141.404 24.3822 143.419 23.6414C145.464 22.9005 148.042 22.53 151.154 22.53C151.835 22.53 152.591 22.5745 153.421 22.6634C154.28 22.7227 155.11 22.8116 155.91 22.9301C156.74 23.0486 157.511 23.1968 158.222 23.3746C158.963 23.5228 159.555 23.7006 160 23.9081L158.4 32.0875C156.029 31.5836 153.91 31.3317 152.043 31.3317C150.117 31.3317 148.783 31.5096 148.042 31.8652C147.301 32.2208 146.931 32.9321 146.931 33.9989V47.9572C147.612 48.1054 148.294 48.2239 148.976 48.3128C149.687 48.3721 150.413 48.4018 151.154 48.4018C154.117 48.4018 156.799 47.972 159.2 47.1126Z" fill="#3B4758"/>
</svg>
