<svg width="160" height="80" viewBox="0 0 160 80" fill="none" xmlns="http://www.w3.org/2000/svg">
<path d="M26.6407 50.4295C26.6407 50.8446 26.5666 51.2301 26.4183 51.5859C26.2701 51.9417 26.0625 52.253 25.7957 52.5199C25.5437 52.7719 25.2397 52.972 24.8839 53.1203C24.543 53.2685 24.1723 53.3426 23.7721 53.3426H10.6963C9.98471 53.3426 9.22122 53.2611 8.40584 53.098C7.60528 52.935 6.81214 52.6755 6.02641 52.3197C5.24068 51.9491 4.47718 51.4895 3.73593 50.941C3.0095 50.3776 2.37202 49.7031 1.82349 48.9173C1.27496 48.1168 0.830206 47.1976 0.489229 46.1599C0.163076 45.1221 0 43.9509 0 42.6463V29.3037H5.78179V42.6463C5.78179 43.4024 5.90781 44.0844 6.15983 44.6922C6.42669 45.2852 6.78249 45.7967 7.22724 46.2266C7.67199 46.6565 8.19087 46.9901 8.78388 47.2273C9.39171 47.4497 10.044 47.5609 10.7408 47.5609H20.8589V29.3037H26.6407V50.4295Z" fill="#3B4758"/>
<path d="M58.574 45.2259C58.574 46.2192 58.448 47.1161 58.196 47.9167C57.9439 48.7024 57.6104 49.3992 57.1953 50.007C56.7802 50.6 56.2984 51.1115 55.7498 51.5414C55.2013 51.9565 54.6231 52.2975 54.0153 52.5643C53.4223 52.8312 52.8219 53.0313 52.214 53.1647C51.6062 53.2833 51.028 53.3426 50.4795 53.3426H40.05V47.5609H50.4795C51.2504 47.5609 51.8286 47.3607 52.214 46.9604C52.5995 46.5602 52.7922 45.982 52.7922 45.2259V37.4427C52.7922 36.6422 52.5921 36.0492 52.1918 35.6637C51.8064 35.2782 51.2356 35.0855 50.4795 35.0855H40.0945C39.3088 35.0855 38.7158 35.2857 38.3155 35.6859C37.9152 36.0714 37.7151 36.6422 37.7151 37.3982V60.859H31.9333V37.3982C31.9333 36.405 32.0593 35.5154 32.3113 34.7297C32.5634 33.944 32.8969 33.2546 33.312 32.6616C33.742 32.0538 34.2312 31.5423 34.7797 31.1272C35.3282 30.6973 35.899 30.3489 36.492 30.082C37.0998 29.8152 37.7077 29.6225 38.3155 29.5039C38.9382 29.3704 39.5163 29.3037 40.05 29.3037H50.4795C51.4728 29.3037 52.3623 29.4297 53.148 29.6818C53.9338 29.9338 54.6231 30.2674 55.2161 30.6825C55.824 31.0976 56.3354 31.5794 56.7505 32.1279C57.1805 32.6764 57.5288 33.2546 57.7957 33.8624C58.0625 34.4555 58.2553 35.0559 58.3739 35.6637C58.5073 36.2715 58.574 36.8497 58.574 37.3982V45.2259Z" fill="#3B4758"/>
<path d="M86.7491 45.2259C86.7491 46.2192 86.6231 47.1161 86.3711 47.9167C86.1191 48.7024 85.7855 49.3992 85.3704 50.007C84.9553 50.6 84.4735 51.1115 83.9249 51.5414C83.3764 51.9565 82.7982 52.2975 82.1904 52.5643C81.5974 52.8312 80.9896 53.0313 80.3669 53.1647C79.7591 53.2833 79.1809 53.3426 78.6324 53.3426H62.9771V47.5609H78.5879C79.3736 47.5609 79.9666 47.3607 80.3669 46.9604C80.7672 46.5602 80.9673 45.982 80.9673 45.2259C80.8932 43.6841 80.1149 42.9132 78.6324 42.9132H69.6706C68.3956 42.9132 67.3134 42.6908 66.4239 42.246C65.5344 41.8013 64.808 41.2454 64.2446 40.5782C63.6961 39.9111 63.2958 39.1921 63.0438 38.4212C62.8066 37.6503 62.688 36.9312 62.688 36.2641C62.688 34.9743 62.9178 33.8921 63.3773 33.0174C63.8369 32.1279 64.4151 31.4089 65.1119 30.8604C65.8087 30.3118 66.5647 29.919 67.3801 29.6818C68.1955 29.4297 68.959 29.3037 69.6706 29.3037H83.8805V35.0855H69.7151C69.4186 35.0855 69.1814 35.1226 69.0035 35.1967C68.8404 35.256 68.7144 35.345 68.6254 35.4636C68.5513 35.5673 68.5068 35.6859 68.492 35.8194C68.4772 35.938 68.4698 36.0566 68.4698 36.1752C68.4846 36.4124 68.5291 36.5977 68.6032 36.7311C68.6773 36.8645 68.7663 36.9609 68.87 37.0202C68.9887 37.0795 69.1147 37.1166 69.2481 37.1314C69.3963 37.1314 69.5372 37.1314 69.6706 37.1314H78.6324C80.1149 37.1314 81.375 37.3982 82.4128 37.9319C83.4505 38.4656 84.2882 39.1402 84.9256 39.9556C85.5631 40.7561 86.0227 41.6308 86.3044 42.5796C86.6009 43.5284 86.7491 44.4105 86.7491 45.2259Z" fill="#3B4758"/>
<path d="M96.6894 24.367H90.9076V19.1411H96.6894V24.367ZM96.6894 53.3426H90.9076V29.3037H96.6894V53.3426Z" fill="#3B4758"/>
<path d="M128.623 45.2259C128.623 46.2192 128.497 47.1161 128.245 47.9167C127.993 48.7024 127.659 49.3992 127.244 50.007C126.829 50.6 126.347 51.1115 125.798 51.5414C125.25 51.9565 124.672 52.2975 124.064 52.5643C123.471 52.8312 122.863 53.0313 122.24 53.1647C121.633 53.2833 121.054 53.3426 120.506 53.3426H110.076C109.083 53.3426 108.194 53.2166 107.408 52.9646C106.622 52.7126 105.925 52.379 105.318 51.9639C104.725 51.534 104.213 51.0448 103.783 50.4962C103.368 49.9477 103.027 49.3769 102.76 48.7839C102.493 48.1761 102.293 47.5683 102.16 46.9604C102.041 46.3378 101.982 45.7596 101.982 45.2259V37.3982C101.982 35.9157 102.249 34.663 102.782 33.6401C103.331 32.6023 104.006 31.7647 104.806 31.1272C105.621 30.4749 106.504 30.0079 107.452 29.7262C108.401 29.4446 109.276 29.3037 110.076 29.3037H120.506V35.0855H110.121C109.35 35.0855 108.764 35.2857 108.364 35.6859C107.964 36.0714 107.764 36.6422 107.764 37.3982V45.1814C107.764 45.9672 107.956 46.5602 108.342 46.9604C108.742 47.3607 109.32 47.5609 110.076 47.5609H120.506C121.292 47.5609 121.877 47.3607 122.263 46.9604C122.648 46.5602 122.841 45.982 122.841 45.2259V19.1411H128.623V45.2259Z" fill="#3B4758"/>
<path d="M160 37.2648C160 38.0654 159.859 38.9326 159.577 39.8666C159.296 40.7858 158.836 41.6456 158.199 42.4462C157.576 43.2319 156.753 43.8916 155.73 44.4253C154.722 44.959 153.492 45.2259 152.039 45.2259H141.609V39.7332H152.039C152.825 39.7332 153.432 39.496 153.862 39.0216C154.292 38.5324 154.507 37.9319 154.507 37.2203C154.507 36.4643 154.263 35.8713 153.773 35.4413C153.299 35.0114 152.721 34.7964 152.039 34.7964H141.609C140.824 34.7964 140.216 35.041 139.786 35.5303C139.356 36.0047 139.141 36.5977 139.141 37.3093V45.3816C139.141 46.1525 139.378 46.7529 139.853 47.1828C140.342 47.6127 140.942 47.8277 141.654 47.8277H152.039V53.3426H141.609C140.809 53.3426 139.942 53.2018 139.008 52.9201C138.088 52.6385 137.229 52.1863 136.428 51.5636C135.642 50.9262 134.983 50.1034 134.449 49.0952C133.915 48.0723 133.648 46.8344 133.648 45.3816V37.2648C133.648 36.4643 133.789 35.6044 134.071 34.6852C134.353 33.7513 134.805 32.8914 135.427 32.1057C136.065 31.3051 136.888 30.638 137.896 30.1043C138.919 29.5706 140.157 29.3037 141.609 29.3037H152.039C152.839 29.3037 153.699 29.4446 154.618 29.7262C155.552 30.0079 156.412 30.4675 157.198 31.105C157.999 31.7276 158.666 32.5504 159.199 33.5734C159.733 34.5815 160 35.812 160 37.2648Z" fill="#3B4758"/>
</svg>
