<svg width="160" height="80" viewBox="0 0 160 80" fill="none" xmlns="http://www.w3.org/2000/svg">
<path d="M36.7117 35.3445C36.7117 34.1705 36.6316 33.2012 36.4716 32.4363C36.3115 31.6715 36.1336 31.0401 35.938 30.5421C35.7601 30.0262 35.5911 29.6083 35.431 29.2881C35.271 28.9501 35.1909 28.6389 35.1909 28.3543C35.1909 28.0875 35.2976 27.8652 35.5111 27.6873C35.7245 27.5094 35.9735 27.3582 36.2581 27.2337C36.5605 27.1092 36.8629 27.0203 37.1652 26.9669C37.4854 26.9136 37.7433 26.8869 37.939 26.8869C38.4548 26.8869 38.8283 26.958 39.0595 27.1003C39.2908 27.2426 39.4775 27.5183 39.6198 27.9274C39.7799 28.4432 39.8866 29.128 39.94 29.9818C40.0111 30.8177 40.0467 31.716 40.0467 32.6765C40.0467 34.046 39.9667 35.549 39.8066 37.1854C39.6465 38.8218 39.3886 40.467 39.0329 42.1212C38.6949 43.7753 38.2502 45.3761 37.6989 46.9236C37.1652 48.471 36.516 49.8495 35.7512 51.059C34.9864 52.2507 34.1059 53.2112 33.1099 53.9404C32.1138 54.6519 30.9844 55.0076 29.7215 55.0076C28.7255 55.0076 27.8272 54.812 27.0268 54.4207C26.2442 54.0116 25.5417 53.4602 24.9191 52.7665C24.2966 52.0728 23.7452 51.2635 23.265 50.3386C22.8025 49.3959 22.3934 48.391 22.0377 47.3238C21.6286 48.4088 21.1572 49.4226 20.6236 50.3653C20.09 51.2902 19.4942 52.0995 18.8361 52.7932C18.1958 53.4869 17.4843 54.0294 16.7017 54.4207C15.9191 54.812 15.0742 55.0076 14.1671 55.0076C13.0465 55.0076 12.0505 54.7675 11.1789 54.2873C10.3252 53.7892 9.56923 53.1222 8.91112 52.2863C8.25302 51.4325 7.68384 50.4453 7.2036 49.3248C6.72336 48.2042 6.30538 47.0214 5.94964 45.7763C5.61169 44.5313 5.32711 43.2506 5.09588 41.9344C4.86465 40.6182 4.669 39.3465 4.50892 38.1192C4.34884 36.8919 4.21544 35.7447 4.10872 34.6775C4.002 33.6103 3.89528 32.6853 3.78856 31.9027C3.66405 31.1913 3.47729 30.6399 3.22828 30.2486C2.99705 29.8573 2.59685 29.6616 2.02768 29.6616C1.72531 29.6616 1.4674 29.715 1.25396 29.8217C1.04052 29.9284 0.809294 30.0796 0.56028 30.2753L0 29.6083C0.409093 29.2703 0.862654 28.9413 1.36068 28.6211C1.87649 28.2831 2.42788 27.9897 3.01484 27.7407C3.6018 27.4916 4.23323 27.2871 4.90912 27.127C5.58501 26.9669 6.29648 26.8869 7.04352 26.8869C8.11072 26.8869 8.97338 27.0737 9.63148 27.4472C10.2896 27.8029 10.8054 28.2565 11.1789 28.8079C11.5702 29.3415 11.8459 29.9195 12.006 30.5421C12.1661 31.1646 12.2817 31.7249 12.3528 32.2229C12.673 34.9087 12.9843 37.2743 13.2866 39.3198C13.6068 41.3652 13.9448 43.0817 14.3005 44.469C14.6562 45.8386 15.0386 46.8791 15.4477 47.5906C15.8746 48.2843 16.3726 48.6311 16.9418 48.6311C17.3153 48.6311 17.68 48.471 18.0357 48.1509C18.3914 47.8307 18.7294 47.386 19.0495 46.8169C19.3697 46.2477 19.6721 45.5629 19.9566 44.7625C20.2412 43.9443 20.4902 43.0461 20.7037 42.0678C20.5258 41.0896 20.3746 40.1202 20.2501 39.1597C20.1256 38.1992 20.01 37.2832 19.9033 36.4117C19.8144 35.5223 19.7254 34.6952 19.6365 33.9304C19.5476 33.1656 19.4497 32.4897 19.343 31.9027C19.0762 30.2308 19.2274 28.9768 19.7966 28.1409C20.3835 27.3049 21.5486 26.8869 23.2916 26.8869C24.0565 26.8869 24.6968 26.958 25.2126 27.1003C25.7462 27.2248 26.182 27.4739 26.5199 27.8474C26.8757 28.2031 27.1602 28.7011 27.3737 29.3415C27.5871 29.964 27.7561 30.7644 27.8806 31.7427C28.2186 34.4107 28.5476 36.7941 28.8678 38.8929C29.1879 40.9917 29.5259 42.7615 29.8816 44.2022C30.2373 45.6429 30.6198 46.7457 31.0288 47.5105C31.4557 48.2576 31.9538 48.6311 32.5229 48.6311C33.1277 48.6311 33.688 48.2576 34.2038 47.5105C34.7196 46.7635 35.1642 45.7763 35.5378 44.5491C35.9113 43.3218 36.1959 41.9077 36.3915 40.3069C36.605 38.7061 36.7117 37.052 36.7117 35.3445Z" fill="#BAC4D1"/>
<path d="M43.5418 40.9206C43.5418 38.5905 43.8797 36.554 44.5556 34.8109C45.2315 33.05 46.1297 31.5826 47.2503 30.4087C48.3886 29.2347 49.7049 28.3543 51.1989 27.7673C52.693 27.1804 54.2582 26.8869 55.8946 26.8869C57.531 26.8869 59.0962 27.1626 60.5903 27.714C62.0844 28.2476 63.3917 29.0747 64.5123 30.1952C65.6506 31.3158 66.5577 32.7387 67.2336 34.464C67.9095 36.1715 68.2475 38.1992 68.2475 40.5471C68.2475 42.8771 67.9095 44.9404 67.2336 46.7368C66.5577 48.5333 65.6506 50.0451 64.5123 51.2724C63.3917 52.4997 62.0844 53.4335 60.5903 54.0738C59.0962 54.6964 57.531 55.0076 55.8946 55.0076C54.2582 55.0076 52.693 54.7141 51.1989 54.1272C49.7049 53.5224 48.3886 52.6331 47.2503 51.4592C46.1297 50.2853 45.2315 48.8179 44.5556 47.057C43.8797 45.2961 43.5418 43.2506 43.5418 40.9206ZM59.95 40.6538C59.95 39.2308 59.8966 37.8613 59.7899 36.5451C59.701 35.2111 59.5142 34.0282 59.2296 32.9966C58.945 31.965 58.5359 31.1468 58.0023 30.5421C57.4687 29.9195 56.7662 29.6083 55.8946 29.6083C55.0231 29.6083 54.3205 29.9373 53.7869 30.5954C53.2533 31.2357 52.8442 32.0895 52.5596 33.1567C52.275 34.2061 52.0883 35.4067 51.9993 36.7585C51.9104 38.1103 51.8659 39.4976 51.8659 40.9206C51.8659 42.3435 51.9104 43.7398 51.9993 45.1093C52.0883 46.4611 52.275 47.6706 52.5596 48.7378C52.8442 49.805 53.2533 50.6677 53.7869 51.3258C54.3205 51.9661 55.0231 52.2863 55.8946 52.2863C56.7662 52.2863 57.4687 51.9483 58.0023 51.2724C58.5359 50.5965 58.945 49.7072 59.2296 48.6044C59.5142 47.5016 59.701 46.2566 59.7899 44.8692C59.8966 43.4819 59.95 42.0767 59.95 40.6538Z" fill="#BAC4D1"/>
<path d="M86.4165 14.9076C85.9185 14.9076 85.4472 15.0143 85.0025 15.2277C84.5578 15.4412 84.1665 15.788 83.8286 16.2683C83.5084 16.7307 83.2505 17.3266 83.0549 18.0558C82.8592 18.7851 82.7614 19.6655 82.7614 20.6971V27.2604H88.6043V29.1814H82.7614V50.2052C82.7614 52.6242 82.4412 54.8564 81.8009 56.9019C81.1784 58.9474 80.2268 60.7083 78.9461 62.1845C77.6655 63.6786 76.0647 64.8437 74.1437 65.6796C72.2228 66.5156 69.9817 66.9336 67.4204 66.9336C66.5133 66.9336 65.6417 66.8535 64.8057 66.6935C63.9698 66.5512 63.2316 66.3466 62.5913 66.0798C61.951 65.813 61.4441 65.4929 61.0705 65.1193C60.6792 64.7636 60.4836 64.3634 60.4836 63.9187C60.4836 63.5986 60.528 63.2695 60.617 62.9316C60.7059 62.6114 60.8393 62.3179 61.0172 62.0511C61.195 61.7843 61.4174 61.562 61.6842 61.3841C61.9332 61.2241 62.2267 61.144 62.5646 61.144C62.7603 61.144 62.9381 61.2419 63.0982 61.4375C63.2405 61.6332 63.3917 61.8733 63.5518 62.1579C63.7119 62.4425 63.8986 62.7537 64.1121 63.0917C64.3077 63.4474 64.5656 63.7676 64.8858 64.0521C65.2059 64.3367 65.6061 64.5769 66.0864 64.7725C66.5488 64.9682 67.118 65.066 67.7939 65.066C68.701 65.066 69.5014 64.8792 70.1951 64.5057C70.8888 64.15 71.4846 63.6519 71.9827 63.0116C72.4807 62.3713 72.8987 61.6154 73.2366 60.7438C73.5746 59.8723 73.8414 58.9385 74.037 57.9424C74.2327 56.9464 74.3661 55.9058 74.4372 54.8209C74.5262 53.7359 74.5706 52.6509 74.5706 51.5659V29.1814H69.6615V27.2604H74.5706V24.1389C74.5706 22.5736 74.7574 21.2129 75.1309 20.0568C75.5222 18.8829 76.0291 17.8868 76.6517 17.0687C77.292 16.2505 78.0123 15.5835 78.8127 15.0677C79.6131 14.5518 80.4224 14.1427 81.2406 13.8404C82.0766 13.538 82.8859 13.3335 83.6685 13.2267C84.4511 13.12 85.1359 13.0667 85.7229 13.0667C86.9857 13.0667 88.1063 13.1645 89.0845 13.3601C90.0628 13.538 90.881 13.787 91.5391 14.1072C92.1972 14.4095 92.6952 14.7653 93.0332 15.1744C93.3711 15.5835 93.5401 16.0015 93.5401 16.4283C93.5401 16.7485 93.4867 17.0775 93.38 17.4155C93.2911 17.7357 93.1577 18.038 92.9798 18.3226C92.802 18.5894 92.5796 18.8117 92.3128 18.9896C92.0638 19.1497 91.7792 19.2297 91.4591 19.2297C91.2634 19.2297 91.0855 19.123 90.9255 18.9096C90.7654 18.6961 90.5964 18.4293 90.4185 18.1092C90.2407 17.789 90.045 17.4422 89.8316 17.0687C89.6181 16.6951 89.3513 16.3483 89.0312 16.0281C88.7288 15.708 88.3642 15.4412 87.9373 15.2277C87.5104 15.0143 87.0035 14.9076 86.4165 14.9076Z" fill="#BAC4D1"/>
<path d="M102.505 40.7605C102.505 40.3158 102.362 39.9779 102.078 39.7467C101.793 39.5154 101.428 39.3998 100.984 39.3998C100.361 39.3998 99.7654 39.5421 99.1963 39.8267C98.6449 40.1113 98.1557 40.5293 97.7289 41.0807C97.302 41.632 96.964 42.3168 96.715 43.135C96.466 43.9354 96.3415 44.8692 96.3415 45.9364C96.3415 46.968 96.4127 47.8218 96.5549 48.4977C96.715 49.1736 96.9196 49.7161 97.1686 50.1252C97.4354 50.5165 97.7378 50.7922 98.0757 50.9523C98.4137 51.1123 98.7694 51.1924 99.1429 51.1924C99.6054 51.1924 100.041 51.0768 100.45 50.8455C100.859 50.5965 101.215 50.2853 101.517 49.9117C101.82 49.5382 102.06 49.1202 102.238 48.6578C102.416 48.1953 102.505 47.7329 102.505 47.2704V40.7605ZM98.2625 29.0747C97.6577 29.0747 97.0974 29.1458 96.5816 29.2881C96.0658 29.4304 95.6211 29.6083 95.2476 29.8217C94.8741 30.0351 94.5806 30.2753 94.3672 30.5421C94.1537 30.7911 94.047 31.0312 94.047 31.2624C94.047 31.5292 94.1804 31.7249 94.4472 31.8494C94.7318 31.9561 95.0431 32.0895 95.381 32.2496C95.719 32.3919 96.0213 32.6053 96.2881 32.8899C96.5727 33.1567 96.715 33.5747 96.715 34.1439C96.715 34.5174 96.635 34.8642 96.4749 35.1844C96.3326 35.4867 96.1281 35.7624 95.8613 36.0115C95.6123 36.2427 95.3099 36.4294 94.9541 36.5717C94.6162 36.6962 94.2605 36.7585 93.8869 36.7585C92.8909 36.7585 92.0816 36.4206 91.4591 35.7447C90.8543 35.0688 90.5519 34.1705 90.5519 33.05C90.5519 31.965 90.8365 31.0401 91.4057 30.2753C91.9749 29.4926 92.713 28.8523 93.6201 28.3543C94.5451 27.8563 95.5856 27.4916 96.7417 27.2604C97.8978 27.0114 99.054 26.8869 100.21 26.8869C101.597 26.8869 102.923 27.0381 104.185 27.3405C105.448 27.6428 106.56 28.1231 107.52 28.7812C108.499 29.4393 109.272 30.2753 109.842 31.2891C110.429 32.3029 110.722 33.5302 110.722 34.9709V50.0451C110.722 50.2052 110.731 50.3831 110.749 50.5787C110.766 50.7744 110.811 50.9523 110.882 51.1123C110.953 51.2724 111.06 51.4058 111.202 51.5125C111.345 51.6193 111.549 51.6726 111.816 51.6726C112.136 51.6726 112.43 51.557 112.696 51.3258C112.981 51.0768 113.23 50.8278 113.443 50.5787L114.11 51.139C113.844 51.5125 113.523 51.9216 113.15 52.3663C112.776 52.811 112.323 53.229 111.789 53.6203C111.256 54.0116 110.633 54.3406 109.922 54.6074C109.21 54.8742 108.401 55.0076 107.494 55.0076C106.373 55.0076 105.377 54.6786 104.506 54.0205C103.634 53.3446 103.065 52.3129 102.798 50.9256C102.229 51.6904 101.633 52.3307 101.011 52.8465C100.406 53.3624 99.7832 53.7803 99.1429 54.1005C98.5026 54.4207 97.8534 54.6519 97.1953 54.7942C96.5549 54.9365 95.9057 55.0076 95.2476 55.0076C94.3939 55.0076 93.5668 54.8742 92.7664 54.6074C91.966 54.3406 91.2456 53.9226 90.6053 53.3535C89.9828 52.7665 89.4759 52.0106 89.0845 51.0857C88.711 50.1608 88.5243 49.0313 88.5243 47.6973C88.5243 46.0787 88.8444 44.7536 89.4847 43.722C90.1251 42.6904 90.961 41.8277 91.9927 41.134C93.0421 40.4226 94.2249 39.8178 95.5411 39.3198C96.8751 38.8218 98.2358 38.297 99.6231 37.7457C100.655 37.3366 101.402 36.7318 101.864 35.9314C102.345 35.1132 102.585 34.2773 102.585 33.4235C102.585 32.1073 102.193 31.0579 101.411 30.2753C100.646 29.4749 99.5965 29.0747 98.2625 29.0747Z" fill="#BAC4D1"/>
<path d="M134.654 36.1182C134.103 36.1182 133.64 36.0381 133.267 35.8781C132.893 35.7002 132.591 35.469 132.36 35.1844C132.128 34.8998 131.959 34.5885 131.853 34.2506C131.746 33.8948 131.693 33.5302 131.693 33.1567C131.693 32.6765 131.719 32.214 131.773 31.7693C131.844 31.3247 131.853 30.9245 131.799 30.5687C131.764 30.213 131.63 29.9284 131.399 29.715C131.168 29.5015 130.759 29.3948 130.172 29.3948C129.549 29.3948 128.891 29.5727 128.197 29.9284C127.504 30.2841 126.872 30.8444 126.303 31.6093C125.734 32.3741 125.263 33.3612 124.889 34.5707C124.516 35.7624 124.329 37.2032 124.329 38.8929C124.329 40.7605 124.498 42.468 124.836 44.0155C125.191 45.5451 125.716 46.8524 126.41 47.9374C127.104 49.0224 127.966 49.8673 128.998 50.472C130.029 51.059 131.239 51.3525 132.626 51.3525C133.249 51.3525 133.836 51.2813 134.387 51.139C134.956 50.9967 135.49 50.8011 135.988 50.5521C136.486 50.303 136.957 50.0185 137.402 49.6983C137.864 49.3604 138.309 49.0046 138.736 48.6311L139.403 49.2714C138.994 49.8228 138.469 50.4276 137.829 51.0857C137.189 51.7438 136.415 52.3663 135.508 52.9533C134.601 53.5224 133.542 54.0027 132.333 54.394C131.123 54.7675 129.745 54.9543 128.197 54.9543C126.65 54.9543 125.138 54.6608 123.662 54.0738C122.203 53.4691 120.905 52.5975 119.767 51.4592C118.628 50.3208 117.712 48.9424 117.019 47.3238C116.343 45.6874 116.005 43.8287 116.005 41.7477C116.005 40.1291 116.209 38.6439 116.618 37.2921C117.027 35.9225 117.579 34.6863 118.272 33.5836C118.984 32.4808 119.802 31.5114 120.727 30.6755C121.67 29.8395 122.657 29.1458 123.689 28.5944C124.72 28.0252 125.77 27.5984 126.837 27.3138C127.922 27.0292 128.962 26.8869 129.958 26.8869C131.275 26.8869 132.422 27.0381 133.4 27.3405C134.378 27.6428 135.188 28.043 135.828 28.5411C136.486 29.0391 136.975 29.6171 137.295 30.2753C137.615 30.9156 137.776 31.5826 137.776 32.2763C137.776 32.7921 137.704 33.2901 137.562 33.7703C137.438 34.2328 137.242 34.6419 136.975 34.9976C136.726 35.3356 136.406 35.6113 136.015 35.8247C135.623 36.0203 135.17 36.1182 134.654 36.1182Z" fill="#BAC4D1"/>
<path d="M151.649 29.1814V48.8979C151.649 49.8406 151.827 50.4987 152.183 50.8722C152.538 51.228 153.028 51.4058 153.65 51.4058C154.13 51.4058 154.557 51.2724 154.931 51.0056C155.304 50.7388 155.624 50.4364 155.891 50.0985C156.211 49.725 156.487 49.2892 156.718 48.7912L157.545 49.1647C157.279 49.7339 156.958 50.3564 156.585 51.0323C156.229 51.7082 155.749 52.3396 155.144 52.9266C154.539 53.4958 153.775 53.976 152.85 54.3673C151.943 54.7586 150.795 54.9543 149.408 54.9543C148.625 54.9543 147.869 54.8386 147.14 54.6074C146.429 54.3762 145.788 54.0116 145.219 53.5135C144.668 53.0155 144.223 52.393 143.885 51.6459C143.547 50.8989 143.378 50.0007 143.378 48.9513V29.1814H140.39V27.2604C140.888 27.2604 141.582 27.1359 142.471 26.8869C143.361 26.6201 144.268 26.1843 145.193 25.5796C146.135 24.9748 147.007 24.1655 147.807 23.1517C148.608 22.1379 149.177 20.8839 149.515 19.3898H151.649V27.2604H155.998C157.421 27.2604 158.132 27.0203 158.132 26.5401C158.132 26.3622 158.043 26.2466 157.866 26.1932C157.688 26.1221 157.483 26.042 157.252 25.9531C157.039 25.8464 156.843 25.7041 156.665 25.5262C156.487 25.3483 156.398 25.0549 156.398 24.6458C156.398 24.1477 156.549 23.7564 156.852 23.4719C157.172 23.1873 157.581 23.045 158.079 23.045C158.399 23.045 158.675 23.1161 158.906 23.2584C159.155 23.3829 159.36 23.5608 159.52 23.792C159.68 24.0055 159.795 24.2545 159.867 24.5391C159.956 24.8236 160 25.1082 160 25.3928C160 26.5489 159.662 27.4739 158.986 28.1675C158.328 28.8434 157.261 29.1814 155.785 29.1814H151.649Z" fill="#BAC4D1"/>
</svg>
